<?xml version="1.0" encoding="UTF-8"?>
<svg version="1.1" xmlns="http://www.w3.org/2000/svg" width="1280" height="720">
<path d="M0 0 C422.4 0 844.8 0 1280 0 C1280 237.6 1280 475.2 1280 720 C857.6 720 435.2 720 0 720 C0 482.4 0 244.8 0 0 Z " fill="#FEFEFE" transform="translate(0,0)"/>
<path d="M0 0 C4.51163098 3.28736931 5.77346515 8.03670671 7.0546875 13.1953125 C7.7146875 13.1953125 8.3746875 13.1953125 9.0546875 13.1953125 C10.0645348 15.10680918 11.06223245 17.02472819 12.0546875 18.9453125 C12.6115625 20.01265625 13.1684375 21.08 13.7421875 22.1796875 C15.0546875 25.1953125 15.0546875 25.1953125 15.0546875 29.1953125 C15.7146875 29.1953125 16.3746875 29.1953125 17.0546875 29.1953125 C17.57417969 30.23429687 18.09367187 31.27328125 18.62890625 32.34375 C18.96414307 33.01414307 19.29937988 33.68453613 19.64477539 34.37524414 C20.38250273 35.85086294 21.11996592 37.32661382 21.85717773 38.80249023 C23.38328186 41.85704479 24.910587 44.91073413 26.453125 47.95703125 C28.98308448 52.95752164 31.41366672 58.00222298 33.8046875 63.0703125 C34.11092041 63.71363525 34.41715332 64.35695801 34.73266602 65.01977539 C36.14565782 68.03672531 37.4276862 70.91180569 38.0546875 74.1953125 C38.7146875 74.1953125 39.3746875 74.1953125 40.0546875 74.1953125 C42.0346875 78.6503125 42.0346875 78.6503125 44.0546875 83.1953125 C48.0146875 82.5353125 51.9746875 81.8753125 56.0546875 81.1953125 C56.0546875 80.5353125 56.0546875 79.8753125 56.0546875 79.1953125 C57.845486 78.69221192 59.63735661 78.19292622 61.4296875 77.6953125 C62.42742187 77.416875 63.42515625 77.1384375 64.453125 76.8515625 C67.0546875 76.1953125 67.0546875 76.1953125 69.0546875 76.1953125 C69.0546875 75.5353125 69.0546875 74.8753125 69.0546875 74.1953125 C69.68858398 73.97915283 70.32248047 73.76299316 70.97558594 73.5402832 C87.70767632 67.86962523 87.70767632 67.86962523 104.0546875 61.1953125 C105.17786377 60.69813721 105.17786377 60.69813721 106.32373047 60.19091797 C119.49231195 54.38212895 119.49231195 54.38212895 132.375 47.97265625 C134.0546875 47.1953125 134.0546875 47.1953125 136.0546875 47.1953125 C136.0546875 47.8553125 136.0546875 48.5153125 136.0546875 49.1953125 C135.51279785 49.47616699 134.9709082 49.75702148 134.41259766 50.04638672 C120.27714739 57.38348609 106.28216079 64.92748462 92.44921875 72.8203125 C91.71034424 73.24038574 90.97146973 73.66045898 90.21020508 74.09326172 C88.80540576 74.89295833 87.40277937 75.69648793 86.00268555 76.50439453 C81.27736507 79.1953125 81.27736507 79.1953125 79.0546875 79.1953125 C79.0546875 79.8553125 79.0546875 80.5153125 79.0546875 81.1953125 C78.33667969 81.47117187 77.61867188 81.74703125 76.87890625 82.03125 C73.22534439 83.5371441 69.76742488 85.3533228 66.26171875 87.171875 C64.0546875 88.1953125 64.0546875 88.1953125 62.0546875 88.1953125 C61.7246875 89.1853125 61.3946875 90.1753125 61.0546875 91.1953125 C59.05859375 92.36328125 59.05859375 92.36328125 56.6171875 93.3828125 C55.81410156 93.72699219 55.01101563 94.07117188 54.18359375 94.42578125 C52.0546875 95.1953125 52.0546875 95.1953125 50.0546875 95.1953125 C54.35120597 103.89119163 58.69522354 112.5468248 63.3515625 121.05688477 C64.87058862 123.85818009 66.24334561 126.64344011 67.48046875 129.58203125 C69.35446604 133.88338979 71.60668089 137.87463145 73.9296875 141.9453125 C84.3707332 160.56726479 84.3707332 160.56726479 84.0546875 169.1953125 C66.34064629 170.64870859 66.34064629 170.64870859 61.56640625 167.61328125 C59.94975382 165.19483893 58.99087925 162.94881765 58.0546875 160.1953125 C57.28748223 158.36045795 56.51644016 156.52720441 55.7421875 154.6953125 C55.34386719 153.6846875 54.94554687 152.6740625 54.53515625 151.6328125 C52.76362061 147.51948436 50.68940524 143.62901826 48.5546875 139.6953125 C45.37113437 133.82009129 42.57567465 127.94570185 40.1171875 121.72265625 C39.13844156 119.3945363 38.03770079 117.29649963 36.7421875 115.1328125 C35.0546875 112.1953125 35.0546875 112.1953125 35.0546875 109.1953125 C34.0646875 108.8653125 33.0746875 108.5353125 32.0546875 108.1953125 C32.0546875 107.5353125 32.0546875 106.8753125 32.0546875 106.1953125 C29.69775844 107.10532372 27.3443316 108.02307693 24.9921875 108.9453125 C24.33541016 109.19796875 23.67863281 109.450625 23.00195312 109.7109375 C19.60339545 111.05027058 16.48625641 112.48323313 13.37109375 114.3984375 C10.0546875 116.1953125 10.0546875 116.1953125 5.0546875 116.1953125 C5.5496875 121.1453125 5.5496875 121.1453125 6.0546875 126.1953125 C6.7146875 126.1953125 7.3746875 126.1953125 8.0546875 126.1953125 C8.87446357 129.0267162 9.68563024 131.86014152 10.4921875 134.6953125 C10.72228516 135.48679687 10.95238281 136.27828125 11.18945312 137.09375 C12.61518743 142.1354771 13.53439176 146.98039427 14.0546875 152.1953125 C13.58160156 152.48664063 13.10851562 152.77796875 12.62109375 153.078125 C7.99638751 155.94490197 3.48761441 158.93005235 -0.96484375 162.05859375 C-2.9453125 163.1953125 -2.9453125 163.1953125 -5.9453125 163.1953125 C-6.2753125 161.2153125 -6.6053125 159.2353125 -6.9453125 157.1953125 C-7.6053125 157.1953125 -8.2653125 157.1953125 -8.9453125 157.1953125 C-9.61650799 155.739058 -10.28213057 154.28023383 -10.9453125 152.8203125 C-11.3165625 152.00820313 -11.6878125 151.19609375 -12.0703125 150.359375 C-12.9453125 148.1953125 -12.9453125 148.1953125 -12.9453125 146.1953125 C-13.6053125 146.1953125 -14.2653125 146.1953125 -14.9453125 146.1953125 C-16.11707768 144.07298271 -17.28286035 141.94773459 -18.4453125 139.8203125 C-18.94611328 138.91539062 -18.94611328 138.91539062 -19.45703125 137.9921875 C-21.9453125 133.421875 -21.9453125 133.421875 -21.9453125 131.1953125 C-22.6053125 131.1953125 -23.2653125 131.1953125 -23.9453125 131.1953125 C-25.14352034 129.34487823 -26.25426232 127.43740988 -27.3203125 125.5078125 C-29.59069985 121.41211374 -31.96028998 117.80170706 -34.9453125 114.1953125 C-36.3304221 112.22452384 -37.6303942 110.21465132 -38.9453125 108.1953125 C-34.16215104 106.46805975 -29.3042122 105.25878615 -24.37109375 104.0546875 C-21.28559055 103.28067301 -18.2189467 102.45321132 -15.15234375 101.60791016 C-9.40719045 100.0297131 -3.88642845 98.68030156 2.0546875 98.1953125 C2.0546875 97.5353125 2.0546875 96.8753125 2.0546875 96.1953125 C5.32406836 95.35620861 8.59541284 94.52502917 11.8671875 93.6953125 C13.2603418 93.33759766 13.2603418 93.33759766 14.68164062 92.97265625 C15.57431641 92.74707031 16.46699219 92.52148438 17.38671875 92.2890625 C18.20889893 92.07958984 19.0310791 91.87011719 19.87817383 91.65429688 C22.0546875 91.1953125 22.0546875 91.1953125 25.0546875 91.1953125 C24.60029297 90.44701172 24.60029297 90.44701172 24.13671875 89.68359375 C21.57701238 85.29665083 19.53023607 80.97514215 17.8046875 76.1953125 C15.49822338 69.9547213 12.53429416 64.26803128 9.36132812 58.44140625 C7.10377917 54.26664236 5.07989041 50.10523112 3.3046875 45.6953125 C0.36628603 38.07211137 0.36628603 38.07211137 -3.9453125 31.1953125 C-6.95804063 29.71808764 -6.95804063 29.71808764 -9.9453125 30.1953125 C-14.2027616 32.7182453 -15.54369528 39.08233407 -17.140625 43.5078125 C-17.57117188 44.6834375 -18.00171875 45.8590625 -18.4453125 47.0703125 C-18.8475 48.20210938 -19.2496875 49.33390625 -19.6640625 50.5 C-20.086875 51.38945312 -20.5096875 52.27890625 -20.9453125 53.1953125 C-22.4303125 53.6903125 -22.4303125 53.6903125 -23.9453125 54.1953125 C-24.76079364 56.42454262 -24.76079364 56.42454262 -25.2578125 59.1328125 C-26.54583935 64.3939592 -28.60315534 68.29612537 -31.515625 72.82421875 C-33.5219486 76.15164615 -34.71917106 79.51688819 -35.9453125 83.1953125 C-36.6053125 83.1953125 -37.2653125 83.1953125 -37.9453125 83.1953125 C-38.11546875 83.74058594 -38.285625 84.28585937 -38.4609375 84.84765625 C-41.15657946 93.23569108 -44.77937329 101.00564754 -48.796875 108.8359375 C-49.97157096 111.24925845 -50.97793056 113.69254455 -51.9453125 116.1953125 C-52.6053125 116.1953125 -53.2653125 116.1953125 -53.9453125 116.1953125 C-54.12707031 116.76378906 -54.30882812 117.33226562 -54.49609375 117.91796875 C-56.97546368 125.53408458 -60.10887545 132.64201159 -63.76171875 139.765625 C-64.94903749 142.20295918 -65.96906048 144.66695474 -66.9453125 147.1953125 C-67.6053125 147.1953125 -68.2653125 147.1953125 -68.9453125 147.1953125 C-69.21794922 148.04802734 -69.21794922 148.04802734 -69.49609375 148.91796875 C-71.08356958 153.79436886 -72.75389996 158.54951791 -74.9453125 163.1953125 C-75.43773437 164.24460937 -75.93015625 165.29390625 -76.4375 166.375 C-78.9453125 169.1953125 -78.9453125 169.1953125 -81.03442383 169.69360352 C-83.59169473 169.82323238 -86.07599808 169.76758149 -88.6328125 169.6328125 C-89.51259766 169.61412109 -90.39238281 169.59542969 -91.29882812 169.57617188 C-97.7484437 169.3921813 -97.7484437 169.3921813 -98.9453125 168.1953125 C-99.49251892 162.22924249 -98.07252524 158.42601671 -95.4453125 153.2578125 C-95.11144531 152.57396484 -94.77757813 151.89011719 -94.43359375 151.18554688 C-93.61638211 149.51610023 -92.7825378 147.85481265 -91.9453125 146.1953125 C-91.2853125 146.1953125 -90.6253125 146.1953125 -89.9453125 146.1953125 C-89.78675781 145.6384375 -89.62820312 145.0815625 -89.46484375 144.5078125 C-87.95267716 139.56194167 -86.06715776 135.60152721 -83.2109375 131.30859375 C-81.34360993 128.19061778 -80.1107019 124.8883531 -78.83984375 121.4921875 C-77.99209869 119.31544473 -77.02340517 117.26601031 -75.9453125 115.1953125 C-75.2853125 115.1953125 -74.6253125 115.1953125 -73.9453125 115.1953125 C-73.85636719 114.52886719 -73.76742187 113.86242187 -73.67578125 113.17578125 C-72.7352175 109.33807995 -71.04937139 106.00263142 -69.2578125 102.5078125 C-68.89768066 101.79447754 -68.53754883 101.08114258 -68.16650391 100.34619141 C-66.19546218 96.48546919 -64.12522325 92.74471929 -61.8203125 89.0703125 C-59.49814597 85.34114962 -57.79172188 81.5755492 -56.1328125 77.5078125 C-53.64147739 71.46681786 -50.588953 66.08770698 -47.1394043 60.54931641 C-44.10865052 55.62815675 -41.87348653 50.64699503 -39.9453125 45.1953125 C-39.4503125 44.2053125 -39.4503125 44.2053125 -38.9453125 43.1953125 C-38.2853125 43.1953125 -37.6253125 43.1953125 -36.9453125 43.1953125 C-36.75195312 42.60363281 -36.55859375 42.01195312 -36.359375 41.40234375 C-35.00116531 37.280648 -33.62480665 33.2002601 -31.9453125 29.1953125 C-31.2853125 29.1953125 -30.6253125 29.1953125 -29.9453125 29.1953125 C-29.80802734 28.18404297 -29.80802734 28.18404297 -29.66796875 27.15234375 C-28.76178475 23.44433678 -27.13248151 20.24702757 -25.3828125 16.8828125 C-25.05345703 16.23763672 -24.72410156 15.59246094 -24.38476562 14.92773438 C-23.57706995 13.34746022 -22.76193637 11.77099145 -21.9453125 10.1953125 C-21.2853125 10.1953125 -20.6253125 10.1953125 -19.9453125 10.1953125 C-19.7596875 9.0815625 -19.7596875 9.0815625 -19.5703125 7.9453125 C-18.97305424 5.31737615 -18.41770776 3.44265263 -16.9453125 1.1953125 C-12.05163668 -1.86186026 -5.33152875 -2.20541149 0 0 Z " fill="#094366" transform="translate(207.9453125,241.8046875)"/>
<path d="M0 0 C0 0.66 0 1.32 0 2 C0.94875 2.061875 1.8975 2.12375 2.875 2.1875 C14.64451714 3.98365121 24.46496693 12.8761865 31.375 22.125 C38.27018858 33.82785155 39.75590869 46.27738521 39.59375 59.55859375 C39.59203185 61.08358159 39.59211169 62.60857239 39.59387207 64.13356018 C39.59223672 67.29596035 39.5738611 70.45763618 39.54199219 73.61987305 C39.50207968 77.64991018 39.49798589 81.67901462 39.50545502 85.7092123 C39.50853757 88.84502033 39.49636264 91.98062294 39.47932434 95.11638069 C39.47235621 96.60216039 39.46916218 98.08796329 39.47001648 99.57375908 C39.46301073 107.57814545 39.10224055 114.52333792 36 122 C35.68675781 122.86753906 35.37351562 123.73507812 35.05078125 124.62890625 C34.02539062 127.31445312 34.02539062 127.31445312 33 130 C32.34 130 31.68 130 31 130 C30.7215625 130.99 30.7215625 130.99 30.4375 132 C25.37496898 142.56528213 14.37895157 149.96160818 3.8125 154.3125 C-11.59361937 158.07844029 -26.85590315 157.25508968 -41 150 C-43.9453125 147.796875 -43.9453125 147.796875 -46 146 C-45.67 144.35 -45.34 142.7 -45 141 C-44.34 141 -43.68 141 -43 141 C-42.9175 140.29875 -42.835 139.5975 -42.75 138.875 C-41.81369749 135.28584036 -40.29264151 132.89951721 -38 130 C-37.01 130 -36.02 130 -35 130 C-33.9171875 131.1446875 -33.9171875 131.1446875 -32.8125 132.3125 C-27.23943732 137.63787101 -21.96611933 138.21485231 -14.5 138.4375 C-8.51346537 138.288877 -3.65398031 137.99227695 1 134 C3.76673047 130.91637529 6.14520052 127.70959895 8 124 C8.66 124 9.32 124 10 124 C12.31028795 114.03035828 13.44906246 104.76805141 13.3984375 94.5 C13.40130768 93.18064453 13.40417786 91.86128906 13.40713501 90.50195312 C13.41150761 87.73556732 13.40529422 84.96947601 13.39111328 82.203125 C13.37402406 78.70390354 13.383893 75.20537304 13.40183067 71.70617676 C13.41544054 68.30406639 13.40583863 64.90212981 13.3984375 61.5 C13.40451019 60.26830078 13.41058289 59.03660156 13.4168396 57.76757812 C13.31528079 44.96878892 12.30944111 33.33259372 3.6875 23.3125 C-1.41488691 18.92207405 -6.27681205 17.49927722 -12.875 17.7890625 C-19.79163946 18.47564068 -24.5424416 21.80109926 -29 27 C-33.07374573 34.59887814 -34.18093476 41.71177387 -34.1875 50.1875 C-34.20586914 51.40663086 -34.20586914 51.40663086 -34.22460938 52.65039062 C-34.25129475 63.83156392 -31.38830213 73.41053219 -24 82 C-21.86624263 83.45050496 -21.86624263 83.45050496 -20 84 C-20 84.66 -20 85.32 -20 86 C-15.05 86.33 -10.1 86.66 -5 87 C-5 86.34 -5 85.68 -5 85 C-3.9275 84.443125 -2.855 83.88625 -1.75 83.3125 C1.66834713 81.38579525 3.63845396 79.14872805 6 76 C6.66 76 7.32 76 8 76 C8 83.59 8 91.18 8 99 C1 102 1 102 -3 102 C-3 102.66 -3 103.32 -3 104 C-5.97973615 104.08184423 -8.95716832 104.14089764 -11.9375 104.1875 C-12.76830078 104.21263672 -13.59910156 104.23777344 -14.45507812 104.26367188 C-22.12048207 104.3531513 -28.99943312 103.0004724 -35 98 C-37.54979582 96.60862785 -37.54979582 96.60862785 -40.12109375 95.2578125 C-45.09242178 91.92981328 -48.39651119 87.29078258 -51.5625 82.3125 C-51.93568359 81.75111328 -52.30886719 81.18972656 -52.69335938 80.61132812 C-58.20999296 72.02456802 -60.71851407 64.09478853 -60.5625 53.875 C-60.55444336 52.87670166 -60.54638672 51.87840332 -60.53808594 50.84985352 C-60.11068438 34.81328347 -54.43844974 22.31633106 -43 11 C-40.14966369 8.6821441 -37.1852842 6.82166667 -34 5 C-33.27167969 4.51273437 -32.54335938 4.02546875 -31.79296875 3.5234375 C-22.22447127 -2.01052389 -10.67108491 -0.43717416 0 0 Z " fill="#084265" transform="translate(713,322)"/>
<path d="M0 0 C1.07088867 0.00902344 2.14177734 0.01804687 3.24511719 0.02734375 C4.05625977 0.03894531 4.86740234 0.05054688 5.703125 0.0625 C5.79621557 13.47640829 5.86708719 26.89023846 5.91037369 40.30440521 C5.93115951 46.53459669 5.95931125 52.76456552 6.00488281 58.99462891 C6.04866336 65.01822569 6.07232965 71.04160966 6.08263397 77.06535339 C6.0899679 79.35201868 6.10428757 81.63867365 6.12604523 83.92524719 C6.31247136 104.34809644 5.04704376 121.28637086 -9.609375 136.875 C-14.10402854 141.127109 -18.76861487 144.30235858 -24.296875 147.0625 C-25.26238281 147.54976562 -26.22789062 148.03703125 -27.22265625 148.5390625 C-38.94370479 153.76463582 -52.26400267 153.89907436 -64.26391602 149.31030273 C-79.76239998 142.66479033 -89.25926621 133.03916611 -96.421875 117.64453125 C-100.63322305 105.21729436 -99.76197159 87.72812086 -94.30078125 75.90625 C-89.34242868 67.25915763 -81.78771039 59.27178202 -73.296875 54.0625 C-72.39839844 53.50304687 -71.49992187 52.94359375 -70.57421875 52.3671875 C-58.52001473 45.81433323 -43.33458935 46.35704434 -30.296875 50.0625 C-28.646875 50.7225 -26.996875 51.3825 -25.296875 52.0625 C-25.296875 60.3125 -25.296875 68.5625 -25.296875 77.0625 C-26.946875 75.4125 -28.596875 73.7625 -30.296875 72.0625 C-35.92427899 67.01226565 -41.19020331 65.541654 -48.6484375 65.765625 C-56.02753735 66.59278074 -60.9406455 69.11611211 -65.734375 74.8125 C-71.64298115 82.4603827 -72.78805026 89.58776216 -72.671875 99.0625 C-72.68347656 100.00867188 -72.69507813 100.95484375 -72.70703125 101.9296875 C-72.66342379 112.42454871 -69.15544079 120.10543702 -62.296875 128.0625 C-56.31774359 132.81834357 -49.70419973 133.74475359 -42.296875 133.0625 C-35.66737809 131.45247932 -30.93032688 128.51847021 -27.09375 122.75 C-26.40078803 121.52681713 -25.71861358 120.29746554 -25.046875 119.0625 C-24.69625 118.44632812 -24.345625 117.83015625 -23.984375 117.1953125 C-21.39160369 112.54826853 -20.18375898 108.95462366 -20.13865662 103.67120361 C-20.1288678 102.79904709 -20.11907898 101.92689056 -20.10899353 101.02830505 C-20.10323807 100.07956009 -20.0974826 99.13081512 -20.09155273 98.15332031 C-20.08165314 97.14811844 -20.07175354 96.14291656 -20.06155396 95.10725403 C-20.02996928 91.7850683 -20.00519341 88.46286828 -19.98046875 85.140625 C-19.95989661 82.8370527 -19.93890007 80.53348415 -19.91749573 78.22991943 C-19.86230192 72.16696207 -19.81288071 66.1039708 -19.76464844 60.04095459 C-19.71441382 53.85409527 -19.65873797 47.6672852 -19.60351562 41.48046875 C-19.49596694 29.34118791 -19.3945146 17.2018643 -19.296875 5.0625 C-16.821875 4.5675 -16.821875 4.5675 -14.296875 4.0625 C-14.296875 3.4025 -14.296875 2.7425 -14.296875 2.0625 C-9.37574841 0.5483072 -5.16358061 -0.05658718 0 0 Z " fill="#074265" transform="translate(523.296875,273.9375)"/>
<path d="M0 0 C0.80954636 0.00496994 1.61909271 0.00993988 2.45317078 0.01506042 C3.37801018 0.02464531 3.37801018 0.02464531 4.3215332 0.03442383 C4.32517883 0.67541016 4.32882446 1.31639648 4.33258057 1.97680664 C4.37481504 8.72715849 4.44443847 15.47685603 4.52905273 22.22680664 C4.55705271 24.73650527 4.57837002 27.24628864 4.5925293 29.75610352 C4.23994666 55.55011256 4.23994666 55.55011256 15.0715332 78.22192383 C19.18010697 81.53160825 23.57107911 82.81163876 28.7590332 83.47192383 C34.90292584 82.7174107 40.21237663 80.60175915 44.5715332 76.09692383 C54.28995239 62.60012859 53.09923182 47.65146607 53.1340332 31.72192383 C53.15720682 29.22776162 53.18257804 26.73361881 53.21020508 24.23950195 C53.27268277 18.17113435 53.30791695 12.10308754 53.3215332 6.03442383 C54.73555653 5.39084375 56.15125286 4.75093877 57.56762695 4.11254883 C58.74989868 3.57742676 58.74989868 3.57742676 59.95605469 3.03149414 C64.80412682 0.98798845 69.2069993 -0.00937111 74.45996094 0.01586914 C75.73427979 0.02199219 77.00859863 0.02811523 78.3215332 0.03442383 C78.36807885 7.57159995 78.40351457 15.10876098 78.42515755 22.64604855 C78.43555034 26.14673412 78.4496261 29.64732063 78.47241211 33.14794922 C78.49850117 37.18173113 78.50804318 41.21541061 78.5168457 45.24926758 C78.52716827 46.49336899 78.53749084 47.7374704 78.54812622 49.01927185 C78.54897983 55.69022673 78.0712523 61.58952424 76.3215332 68.03442383 C75.6615332 68.03442383 75.0015332 68.03442383 74.3215332 68.03442383 C74.17458008 68.59129883 74.02762695 69.14817383 73.8762207 69.72192383 C70.36292165 81.67521716 61.91814517 89.84701855 51.3215332 96.03442383 C48.34869144 97.3820524 46.6091341 98.03442383 43.3215332 98.03442383 C43.3215332 98.69442383 43.3215332 99.35442383 43.3215332 100.03442383 C38.31887087 101.47818418 33.30453022 101.29805335 28.1340332 101.34692383 C27.13049805 101.37592773 26.12696289 101.40493164 25.09301758 101.43481445 C12.58437825 101.54061296 2.39774559 95.30386178 -6.6784668 87.03442383 C-12.41373405 81.01938744 -17.01220488 73.47374149 -17.6784668 65.03442383 C-18.3384668 65.03442383 -18.9984668 65.03442383 -19.6784668 65.03442383 C-20.71291307 61.931085 -20.79930104 59.80566134 -20.79199219 56.55322266 C-20.79191666 55.43228714 -20.79184113 54.31135162 -20.79176331 53.15644836 C-20.78660202 51.94700058 -20.78144073 50.7375528 -20.77612305 49.49145508 C-20.7747081 48.25272141 -20.77329315 47.01398773 -20.77183533 45.73771667 C-20.76718282 42.44810846 -20.7582007 39.15854923 -20.74713135 35.86895752 C-20.73689309 32.51070759 -20.73233253 29.15245049 -20.72729492 25.79418945 C-20.71625825 19.20758171 -20.69951446 12.62100678 -20.6784668 6.03442383 C-17.11310334 4.22987715 -13.6830501 2.54332307 -9.8659668 1.34692383 C-9.09639648 1.09555664 -8.32682617 0.84418945 -7.53393555 0.58520508 C-4.90267891 0.07767131 -2.66686741 -0.02124334 0 0 Z " fill="#084366" transform="translate(333.678466796875,323.965576171875)"/>
<path d="M0 0 C1.46373047 0.01353516 1.46373047 0.01353516 2.95703125 0.02734375 C4.06111328 0.04474609 4.06111328 0.04474609 5.1875 0.0625 C5.18892502 0.78753723 5.19035004 1.51257446 5.19181824 2.25958252 C5.20976031 9.14327737 5.25170208 16.02646857 5.31959057 22.90983963 C5.35366173 26.44746372 5.37893909 29.98466512 5.38305664 33.52246094 C5.38821394 37.60402155 5.43352982 41.6843293 5.48046875 45.765625 C5.4765361 47.01611633 5.47260345 48.26660767 5.46855164 49.55499268 C5.63840884 59.93452603 8.32326351 69.98692766 15.1875 78.0625 C20.72042386 82.63317624 25.75165418 82.50386558 32.78515625 82.49609375 C36.48811414 82.02418982 38.93619108 80.84151809 42.1875 79.0625 C42.8475 79.0625 43.5075 79.0625 44.1875 79.0625 C44.4659375 78.49917969 44.744375 77.93585938 45.03125 77.35546875 C45.80219034 75.82661071 46.594013 74.30810569 47.40625 72.80078125 C47.8290625 72.00027344 48.251875 71.19976562 48.6875 70.375 C49.1103125 69.58738281 49.533125 68.79976563 49.96875 67.98828125 C53.18040093 60.27826026 53.51042656 52.50851592 53.6015625 44.24609375 C53.62092865 43.14902603 53.6402948 42.05195831 53.6602478 40.92164612 C53.71960791 37.44784099 53.76625384 33.97400194 53.8125 30.5 C53.8507199 28.13214771 53.88977392 25.76430872 53.9296875 23.39648438 C54.02527323 17.61860848 54.11044583 11.84065117 54.1875 6.0625 C55.60152333 5.41891992 57.01721965 4.77901494 58.43359375 4.140625 C59.61586548 3.60550293 59.61586548 3.60550293 60.82202148 3.05957031 C65.67009362 1.01606463 70.0729661 0.01870506 75.32592773 0.04394531 C76.60024658 0.05006836 77.87456543 0.05619141 79.1875 0.0625 C79.23404565 7.59967613 79.26948136 15.13683715 79.29112434 22.67412472 C79.30151714 26.17481029 79.3155929 29.67539681 79.33837891 33.17602539 C79.36446796 37.20980731 79.37400998 41.24348678 79.3828125 45.27734375 C79.39313507 46.52144516 79.40345764 47.76554657 79.41409302 49.04734802 C79.41494663 55.7183029 78.9372191 61.61760041 77.1875 68.0625 C76.5275 68.0625 75.8675 68.0625 75.1875 68.0625 C75.10242187 68.74699219 75.01734375 69.43148437 74.9296875 70.13671875 C72.44923703 79.9149156 65.0017281 88.19240963 56.7734375 93.57421875 C48.97490157 98.0625 48.97490157 98.0625 44.1875 98.0625 C44.1875 98.7225 44.1875 99.3825 44.1875 100.0625 C39.44115112 101.41995986 34.77905911 101.28549899 29.875 101.3125 C28.95009766 101.333125 28.02519531 101.35375 27.07226562 101.375 C21.24549886 101.40813016 17.3788098 100.69689602 12.1875 98.0625 C10.54245934 97.476935 8.89670515 96.89336771 7.25 96.3125 C-4.25923338 91.70182077 -10.50634265 81.55180707 -16.515625 71.26171875 C-19.94554361 62.8005641 -20.095666 53.8431859 -20.0078125 44.83203125 C-20.0049826 43.71559738 -20.00215271 42.59916351 -19.99923706 41.44889832 C-19.98814707 37.92415103 -19.9630638 34.39966896 -19.9375 30.875 C-19.92745574 28.46810266 -19.91833243 26.06120129 -19.91015625 23.65429688 C-19.88824451 17.79027589 -19.85488031 11.9264069 -19.8125 6.0625 C-18.42172699 5.24136823 -17.02461107 4.43097505 -15.625 3.625 C-14.84769531 3.17253906 -14.07039062 2.72007812 -13.26953125 2.25390625 C-8.87963546 0.12526044 -4.82529015 -0.05813603 0 0 Z " fill="#084366" transform="translate(973.8125,323.9375)"/>
<path d="M0 0 C0.33 20.46 0.66 40.92 1 62 C1.66 62 2.32 62 3 62 C3.21914063 62.64066406 3.43828125 63.28132813 3.6640625 63.94140625 C6.0626273 70.48383301 8.63844076 76.41810446 14.84765625 80.09375 C20.55125934 82.54301097 26.50464771 83.28295965 32.39453125 81.12109375 C39.71939118 77.44044274 43.20574777 72.71457912 45.8125 65.0625 C46.22058825 63.71197589 46.62096885 62.35896533 47 61 C47.66 61 48.32 61 49 61 C49.00142502 60.30508957 49.00285004 59.61017914 49.00431824 58.89421082 C49.02214581 52.34614094 49.06375057 45.79870479 49.13209057 39.25095654 C49.16638662 35.88458022 49.19147435 32.51865891 49.19555664 29.15209961 C49.20481061 25.28180679 49.24572749 21.41296085 49.29296875 17.54296875 C49.2890361 16.33352097 49.28510345 15.12407318 49.28105164 13.87797546 C49.31051628 12.19657219 49.31051628 12.19657219 49.34057617 10.48120117 C49.34723801 9.49302902 49.35389984 8.50485687 49.36076355 7.48674011 C50 5 50 5 52.31465149 3.23164368 C57.8792719 0.67941274 62.71478981 -0.10964703 68.7734375 -0.05078125 C69.75489746 -0.04344971 70.73635742 -0.03611816 71.74755859 -0.02856445 C72.49086426 -0.01913818 73.23416992 -0.00971191 74 0 C74.02321781 7.58901249 74.04096311 15.17802127 74.05181217 22.76706123 C74.05702039 26.29133488 74.06408045 29.81558414 74.07543945 33.33984375 C74.08842978 37.39583565 74.09324526 41.45180212 74.09765625 45.5078125 C74.10281754 46.76739777 74.10797882 48.02698303 74.11329651 49.32473755 C74.11337204 50.50550873 74.11344757 51.68627991 74.11352539 52.90283203 C74.115746 53.93763702 74.11796661 54.97244202 74.12025452 56.03860474 C73.99600122 59.09847423 73.5659392 61.99302204 73 65 C72.34 65 71.68 65 71 65 C70.82984375 65.65226562 70.6596875 66.30453125 70.484375 66.9765625 C68.99946267 72.33172505 67.46939473 76.56688451 64 81 C63.50628906 81.63679688 63.01257813 82.27359375 62.50390625 82.9296875 C57.30100347 89.29813663 51.34448372 94.72636827 43 96 C43 96.66 43 97.32 43 98 C37.01631659 100.66641331 31.03477075 100.22314726 24.625 100.125 C23.50738281 100.11597656 22.38976562 100.10695313 21.23828125 100.09765625 C18.49196538 100.07418346 15.74609528 100.04134728 13 100 C13 99.34 13 98.68 13 98 C12.443125 97.90203125 11.88625 97.8040625 11.3125 97.703125 C-1.00194714 95.29015901 -8.53946463 89.13446232 -16.0625 79.125 C-18 76 -18 76 -18 73 C-18.99 72.67 -19.98 72.34 -21 72 C-21.9140625 69.7421875 -21.9140625 69.7421875 -22.625 66.875 C-22.86476563 65.94429688 -23.10453125 65.01359375 -23.3515625 64.0546875 C-24.88754123 56.81893226 -25.13444774 49.98039856 -25.09765625 42.59765625 C-25.0962413 41.51995468 -25.09482635 40.44225311 -25.09336853 39.33189392 C-25.08779611 35.90873371 -25.07524868 32.48564025 -25.0625 29.0625 C-25.05748144 26.73372491 -25.05291915 24.40494878 -25.04882812 22.07617188 C-25.03783571 16.38409202 -25.02112514 10.69205078 -25 5 C-23.60721983 4.34760842 -22.21060788 3.70339448 -20.8125 3.0625 C-20.03519531 2.70285156 -19.25789062 2.34320313 -18.45703125 1.97265625 C-12.10461241 -0.54205327 -7.08339605 0 0 0 Z " fill="#054064" transform="translate(789,325)"/>
<path d="M0 0 C0 0.66 0 1.32 0 2 C-0.54188965 2.28085449 -1.0837793 2.56170898 -1.64208984 2.85107422 C-15.77754011 10.18817359 -29.77252671 17.73217212 -43.60546875 25.625 C-44.34434326 26.04507324 -45.08321777 26.46514648 -45.84448242 26.89794922 C-47.24928174 27.69764583 -48.65190813 28.50117543 -50.05200195 29.30908203 C-54.77732243 32 -54.77732243 32 -57 32 C-57 32.66 -57 33.32 -57 34 C-57.71800781 34.27585937 -58.43601562 34.55171875 -59.17578125 34.8359375 C-62.82934311 36.3418316 -66.28726262 38.1580103 -69.79296875 39.9765625 C-72 41 -72 41 -74 41 C-74.33 41.99 -74.66 42.98 -75 44 C-76.99609375 45.16796875 -76.99609375 45.16796875 -79.4375 46.1875 C-80.24058594 46.53167969 -81.04367187 46.87585938 -81.87109375 47.23046875 C-84 48 -84 48 -86 48 C-81.70348153 56.69587913 -77.35946396 65.3515123 -72.703125 73.86157227 C-71.18409888 76.66286759 -69.81134189 79.44812761 -68.57421875 82.38671875 C-66.70022146 86.68807729 -64.44800661 90.67931895 -62.125 94.75 C-51.6839543 113.37195229 -51.6839543 113.37195229 -52 122 C-69.71404121 123.45339609 -69.71404121 123.45339609 -74.48828125 120.41796875 C-76.10493368 117.99952643 -77.06380825 115.75350515 -78 113 C-78.76720527 111.16514545 -79.53824734 109.33189191 -80.3125 107.5 C-80.71082031 106.489375 -81.10914063 105.47875 -81.51953125 104.4375 C-83.29106689 100.32417186 -85.36528226 96.43370576 -87.5 92.5 C-90.68355313 86.62477879 -93.47901285 80.75038935 -95.9375 74.52734375 C-96.91624594 72.1992238 -98.01698671 70.10118713 -99.3125 67.9375 C-101 65 -101 65 -101 62 C-102.485 61.505 -102.485 61.505 -104 61 C-104 60.34 -104 59.68 -104 59 C-106.35692906 59.91001122 -108.7103559 60.82776443 -111.0625 61.75 C-111.71927734 62.00265625 -112.37605469 62.2553125 -113.05273438 62.515625 C-116.45129205 63.85495808 -119.56843109 65.28792063 -122.68359375 67.203125 C-126 69 -126 69 -131 69 C-130.505 73.95 -130.505 73.95 -130 79 C-129.34 79 -128.68 79 -128 79 C-127.18022393 81.8314037 -126.36905726 84.66482902 -125.5625 87.5 C-125.33240234 88.29148437 -125.10230469 89.08296875 -124.86523438 89.8984375 C-123.43950007 94.9401646 -122.52029574 99.78508177 -122 105 C-122.47308594 105.29132813 -122.94617188 105.58265625 -123.43359375 105.8828125 C-128.05829999 108.74958947 -132.56707309 111.73473985 -137.01953125 114.86328125 C-139 116 -139 116 -142 116 C-142.33 114.02 -142.66 112.04 -143 110 C-143.66 110 -144.32 110 -145 110 C-145.67119549 108.5437455 -146.33681807 107.08492133 -147 105.625 C-147.37125 104.81289063 -147.7425 104.00078125 -148.125 103.1640625 C-149 101 -149 101 -149 99 C-149.66 99 -150.32 99 -151 99 C-152.17176518 96.87767021 -153.33754785 94.75242209 -154.5 92.625 C-154.83386719 92.02171875 -155.16773438 91.4184375 -155.51171875 90.796875 C-158 86.2265625 -158 86.2265625 -158 84 C-158.66 84 -159.32 84 -160 84 C-161.19820784 82.14956573 -162.30894982 80.24209738 -163.375 78.3125 C-165.64538735 74.21680124 -168.01497748 70.60639456 -171 67 C-172.3851096 65.02921134 -173.6850817 63.01933882 -175 61 C-170.21683854 59.27274725 -165.3588997 58.06347365 -160.42578125 56.859375 C-157.34027805 56.08536051 -154.2736342 55.25789882 -151.20703125 54.41259766 C-145.46187795 52.8344006 -139.94111595 51.48498906 -134 51 C-134 50.34 -134 49.68 -134 49 C-133.12263184 48.7733667 -132.24526367 48.5467334 -131.34130859 48.31323242 C-128.06350128 47.46311751 -124.78738653 46.60698577 -121.51220703 45.74682617 C-120.09876947 45.37691694 -118.68471294 45.00936399 -117.27001953 44.64428711 C-115.22778745 44.11681843 -113.18798743 43.58070293 -111.1484375 43.04296875 C-109.92302246 42.72352295 -108.69760742 42.40407715 -107.43505859 42.07495117 C-104.06123343 41.0191621 -101.14564608 39.59305589 -98 38 C-95.125 37.8125 -95.125 37.8125 -93 38 C-92.505 37.01 -92.505 37.01 -92 36 C-89.27734375 35.3671875 -89.27734375 35.3671875 -85.9375 34.875 C-84.83277344 34.70742188 -83.72804688 34.53984375 -82.58984375 34.3671875 C-81.30787109 34.18542969 -81.30787109 34.18542969 -80 34 C-80 33.34 -80 32.68 -80 32 C-78.2092015 31.49689942 -76.41733089 30.99761372 -74.625 30.5 C-73.12839844 30.08234375 -73.12839844 30.08234375 -71.6015625 29.65625 C-69 29 -69 29 -67 29 C-67 28.34 -67 27.68 -67 27 C-66.36610352 26.78384033 -65.73220703 26.56768066 -65.07910156 26.3449707 C-48.34701118 20.67431273 -48.34701118 20.67431273 -32 14 C-30.87682373 13.50282471 -30.87682373 13.50282471 -29.73095703 12.99560547 C-16.56237555 7.18681645 -16.56237555 7.18681645 -3.6796875 0.77734375 C-2 0 -2 0 0 0 Z " fill="#68AD50" transform="translate(344,289)"/>
<path d="M0 0 C0.33 32.01 0.66 64.02 1 97 C1.66 97 2.32 97 3 97 C3.18433594 97.6290625 3.36867188 98.258125 3.55859375 98.90625 C5.80071005 105.52298434 8.69497176 109.09539713 14.171875 113.40625 C14.77515625 113.9321875 15.3784375 114.458125 16 115 C16 115.66 16 116.32 16 117 C19.63 117.66 23.26 118.32 27 119 C27 124.61 27 130.22 27 136 C16.47375154 136.72594817 6.60705303 134.14098727 -2 128 C-3.093125 127.34 -4.18625 126.68 -5.3125 126 C-15.07764974 118.91378515 -22.50860076 105.7041753 -25 94 C-25.08975724 91.14740296 -25.12620904 88.31999516 -25.11352539 85.46777344 C-25.11367142 84.60887512 -25.11381744 83.74997681 -25.1139679 82.86505127 C-25.11327196 80.02980004 -25.10549445 77.19461474 -25.09765625 74.359375 C-25.09579094 72.39211055 -25.09436757 70.42484564 -25.09336853 68.45758057 C-25.08955227 63.28233556 -25.07972956 58.10711867 -25.06866455 52.93188477 C-25.0584313 47.64990621 -25.0538668 42.36792311 -25.04882812 37.0859375 C-25.03810651 26.72394599 -25.02104075 16.36197533 -25 6 C-23.71912546 5.34856366 -22.43697913 4.6996275 -21.15429688 4.05175781 C-20.44043823 3.69011536 -19.72657959 3.3284729 -18.99108887 2.95587158 C-16.84817496 1.92711262 -14.82730778 1.23336392 -12.5 0.75 C-11.8296875 0.60046875 -11.159375 0.4509375 -10.46875 0.296875 C-7.00273458 -0.11992432 -3.49098619 0 0 0 Z " fill="#074265" transform="translate(613,286)"/>
<path d="M0 0 C1.32995054 0.70393342 2.6552543 1.41669421 3.9765625 2.13671875 C6.36566085 3.29955423 8.68587534 4.00775156 11.24609375 4.7109375 C14.93708841 5.75270534 17.94091688 7.08956978 21.2265625 9.11328125 C25.65400445 11.59653712 30.4875474 13.30479323 35.18359375 15.2109375 C37.18372029 16.06480782 39.18372198 16.91897066 41.18359375 17.7734375 C46.32423707 19.93970595 51.53150218 21.65014283 56.8828125 23.21875 C57.64207031 23.54617188 58.40132812 23.87359375 59.18359375 24.2109375 C59.51359375 25.2009375 59.84359375 26.1909375 60.18359375 27.2109375 C61.13234375 27.3346875 62.08109375 27.4584375 63.05859375 27.5859375 C66.18359375 28.2109375 66.18359375 28.2109375 68.18359375 30.2109375 C57.95359375 30.2109375 47.72359375 30.2109375 37.18359375 30.2109375 C37.18359375 37.4709375 37.18359375 44.7309375 37.18359375 52.2109375 C33.25483209 51.22874708 31.79788707 50.34856238 28.68359375 47.9609375 C18.8831701 40.91100203 7.51357549 36.81094802 -4.56640625 36.8984375 C-5.35700439 36.90262695 -6.14760254 36.90681641 -6.9621582 36.91113281 C-16.29909767 37.09048753 -23.95355752 39.16684586 -31.81640625 44.2109375 C-33.17039058 45.04456707 -34.52456414 45.87788933 -35.87890625 46.7109375 C-39.23965678 48.81407102 -42.51328106 51.00885404 -45.81640625 53.2109375 C-45.81640625 45.6209375 -45.81640625 38.0309375 -45.81640625 30.2109375 C-56.37640625 30.2109375 -66.93640625 30.2109375 -77.81640625 30.2109375 C-75.5005094 27.89504065 -73.87903743 27.38386008 -70.81640625 26.2109375 C-69.43797742 25.61463529 -68.06333468 25.00954694 -66.69140625 24.3984375 C-65.90378906 24.0478125 -65.11617187 23.6971875 -64.3046875 23.3359375 C-62.67173747 22.59764926 -61.04387317 21.84798558 -59.421875 21.0859375 C-52.82173046 18.00384235 -46.1028506 15.33865644 -39.30444336 12.73388672 C-34.7889017 10.99849461 -30.36913069 9.15024984 -25.98046875 7.11328125 C-22.15576516 5.51850412 -18.18296435 4.35071914 -14.22265625 3.140625 C-11.66104526 2.46116931 -11.66104526 2.46116931 -10.81640625 0.2109375 C-7.00807482 -1.05850631 -3.80864158 -1.65450667 0 0 Z " fill="#69AE50" transform="translate(707.81640625,274.7890625)"/>
<path d="M0 0 C1.04542969 -0.00322266 2.09085938 -0.00644531 3.16796875 -0.00976562 C8.7835599 0.02928084 13.5745268 0.42805415 18.875 2.3125 C18.215 4.2925 17.555 6.2725 16.875 8.3125 C16.215 8.3125 15.555 8.3125 14.875 8.3125 C14.689375 9.42625 14.689375 9.42625 14.5 10.5625 C13.9171624 13.12698542 13.08835551 15.00416512 11.875 17.3125 C10.96878906 17.27769531 10.06257812 17.24289062 9.12890625 17.20703125 C0.46586104 17.01451913 -7.01500642 16.85636903 -13.875 22.625 C-14.6175 23.511875 -15.36 24.39875 -16.125 25.3125 C-17.424375 26.735625 -17.424375 26.735625 -18.75 28.1875 C-25.36884834 36.89651097 -25.25605568 46.47879098 -25.44140625 56.9375 C-25.46218735 57.92500244 -25.48296844 58.91250488 -25.50437927 59.92993164 C-25.56930753 63.05738961 -25.6284937 66.18492527 -25.6875 69.3125 C-25.73073928 71.44401817 -25.77435522 73.57552873 -25.81835938 75.70703125 C-25.92493003 80.90877412 -26.0267974 86.11059277 -26.125 91.3125 C-27.56447369 91.96421026 -29.00523351 92.61308027 -30.4465332 93.26074219 C-31.2487178 93.62238464 -32.0509024 93.9840271 -32.87739563 94.35662842 C-35.33612968 95.40229021 -37.68397771 96.08698843 -40.3125 96.5625 C-41.08980469 96.71203125 -41.86710938 96.8615625 -42.66796875 97.015625 C-45.50356132 97.35824032 -48.27104814 97.33110368 -51.125 97.3125 C-51.22718396 89.71781019 -51.29679205 82.12330042 -51.34472656 74.52807617 C-51.36472885 71.94923274 -51.39193956 69.370434 -51.42675781 66.79174805 C-51.47577817 63.06547961 -51.49808374 59.33981553 -51.515625 55.61328125 C-51.53627014 54.4773201 -51.55691528 53.34135895 -51.57818604 52.17097473 C-51.58226725 37.30956045 -46.586171 24.80183502 -36.375 14.0625 C-25.57671602 3.74989596 -14.76760689 -0.22931067 0 0 Z " fill="#074265" transform="translate(927.125,324.6875)"/>
<path d="M0 0 C0.90049072 0.00225586 1.80098145 0.00451172 2.72875977 0.00683594 C3.41510498 0.00973633 4.1014502 0.01263672 4.80859375 0.015625 C4.92431942 11.69824897 5.01322373 23.38073715 5.06765461 35.06381702 C5.09377562 40.48846966 5.12921967 45.91273088 5.18579102 51.3371582 C5.24002101 56.56968227 5.26999541 61.80182931 5.28297997 67.03461266 C5.29223604 69.03340277 5.31031069 71.03217169 5.33724403 73.03080177 C5.37341473 75.82543548 5.37854416 78.6185009 5.3762207 81.41333008 C5.39419708 82.24411072 5.41217346 83.07489136 5.43069458 83.93084717 C5.40986633 86.2381134 5.40986633 86.2381134 4.80859375 90.015625 C1.55033374 92.74869309 -1.90763051 93.68845119 -6.00390625 94.703125 C-6.97972656 94.95449219 -7.95554687 95.20585937 -8.9609375 95.46484375 C-12.19140625 96.015625 -12.19140625 96.015625 -20.19140625 96.015625 C-20.19140625 65.985625 -20.19140625 35.955625 -20.19140625 5.015625 C-12.25614385 1.48884171 -8.1850649 -0.02659647 0 0 Z " fill="#084265" transform="translate(565.19140625,325.984375)"/>
<path d="M0 0 C0 0.66 0 1.32 0 2 C0.556875 2.20625 1.11375 2.4125 1.6875 2.625 C7.05665958 5.81747326 9.43010725 10.14020822 11 16 C11.26427896 19.33349664 11.2332407 22.65002875 11.1953125 25.9921875 C11.1924826 26.93812775 11.18965271 27.88406799 11.18673706 28.8586731 C11.17558932 31.86424694 11.15049465 34.86951702 11.125 37.875 C11.11496321 39.91926651 11.10583859 41.96353772 11.09765625 44.0078125 C11.07566767 49.00532444 11.04117509 54.0026108 11 59 C6.38 59 1.76 59 -3 59 C-3.01458252 57.94611084 -3.02916504 56.89222168 -3.04418945 55.80639648 C-3.10244945 51.87181787 -3.17967904 47.93779507 -3.26245117 44.00366211 C-3.29557083 42.30551214 -3.32364261 40.60725552 -3.34643555 38.90893555 C-3.38022169 36.45836213 -3.43254639 34.00875469 -3.48828125 31.55859375 C-3.49467117 30.80726669 -3.5010611 30.05593964 -3.50764465 29.28184509 C-3.64792543 24.17767317 -4.63592783 20.54651396 -7 16 C-10.34210921 13.03984613 -13.53643691 12.41814558 -18 12.5703125 C-21.61068185 13.34604493 -23.45265225 15.39052182 -26 18 C-27.69026137 21.38052274 -27.24444959 25.22260142 -27.31640625 28.9453125 C-27.33718735 29.8303244 -27.35796844 30.7153363 -27.37937927 31.62716675 C-27.44486598 34.45969741 -27.50375562 37.29232225 -27.5625 40.125 C-27.60568606 42.04297857 -27.64930037 43.96094754 -27.69335938 45.87890625 C-27.80054647 50.58584051 -27.9018164 55.29286967 -28 60 C-32.62 60 -37.24 60 -42 60 C-42 39.87 -42 19.74 -42 -1 C-37.38 -1 -32.76 -1 -28 -1 C-27.67 0.32 -27.34 1.64 -27 3 C-26.54109375 2.65066406 -26.0821875 2.30132812 -25.609375 1.94140625 C-24.99578125 1.48636719 -24.3821875 1.03132813 -23.75 0.5625 C-23.14671875 0.11003906 -22.5434375 -0.34242188 -21.921875 -0.80859375 C-15.04638887 -5.07083617 -6.78090728 -3.46259095 0 0 Z " fill="#6AAF52" transform="translate(1161,353)"/>
<path d="M0 0 C0.49628906 1.00417969 0.99257813 2.00835937 1.50390625 3.04296875 C5.34787332 10.79089048 9.26956836 18.46589436 13.45703125 26.03515625 C14.83404788 28.68111984 15.98924498 31.35644025 17.14038086 34.10522461 C18.80843655 37.78195854 20.87550301 41.24621552 22.875 44.75 C33.3160457 63.37195229 33.3160457 63.37195229 33 72 C15.28595879 73.45339609 15.28595879 73.45339609 10.51171875 70.41796875 C8.89506632 67.99952643 7.93619175 65.75350515 7 63 C6.23279473 61.16514545 5.46175266 59.33189191 4.6875 57.5 C4.28917969 56.489375 3.89085937 55.47875 3.48046875 54.4375 C1.70891963 50.32414057 -0.36551331 46.43385287 -2.5 42.5 C-5.62364358 36.72782809 -8.39640838 30.97185588 -10.80078125 24.85546875 C-12.57785398 20.62406757 -14.76377691 16.62007384 -16.9609375 12.59375 C-18 10 -18 10 -18.05859375 7.859375 C-16.34662814 4.85238006 -13.79458028 4.11863603 -10.6875 2.75 C-9.53636719 2.22921875 -8.38523438 1.7084375 -7.19921875 1.171875 C-4 0 -4 0 0 0 Z " fill="#084366" transform="translate(259,339)"/>
<path d="M0 0 C4.95 0 9.9 0 15 0 C15 20.13 15 40.26 15 61 C10.05 61 5.1 61 0 61 C0 40.87 0 20.74 0 0 Z " fill="#6FB158" transform="translate(1093,352)"/>
<path d="M0 0 C4.17161404 2.16350184 7.85473711 4.70947422 10 9 C10.66891054 14.57425451 9.52546657 17.79474792 6.40625 22.265625 C3.80642115 25.47208058 1.75708498 26.77056246 -2.36328125 27.30859375 C-6.47476073 27.50959941 -9.21883238 27.42454762 -12.875 25.4375 C-16.92477497 20.79216989 -19.97306115 16.48437115 -19.55859375 10.06640625 C-16.91597512 0.29056531 -9.1529392 -1.83308183 0 0 Z " fill="#0B4568" transform="translate(562,284)"/>
<path d="M0 0 C7.59 0 15.18 0 23 0 C23 6.27 23 12.54 23 19 C15.41 19 7.82 19 0 19 C0 12.73 0 6.46 0 0 Z " fill="#174E6F" transform="translate(618,326)"/>
<path d="M0 0 C4.95 0 9.9 0 15 0 C15 4.62 15 9.24 15 14 C10.05 14 5.1 14 0 14 C0 9.38 0 4.76 0 0 Z " fill="#77B661" transform="translate(1093,332)"/>
<path d="M0 0 C4.62 0 9.24 0 14 0 C14 4.62 14 9.24 14 14 C9.38 14 4.76 14 0 14 C0 9.38 0 4.76 0 0 Z " fill="#6AAE52" transform="translate(1065,398)"/>
<path d="M0 0 C0.66 0.33 1.32 0.66 2 1 C-1.96 2.98 -1.96 2.98 -6 5 C-6.07665606 12.45232482 -6.12885207 19.90454632 -6.16479492 27.35717773 C-6.1797939 29.88748982 -6.20019973 32.41777631 -6.22631836 34.94799805 C-6.2630947 38.60471962 -6.27981593 42.26109467 -6.29296875 45.91796875 C-6.30845261 47.03205612 -6.32393646 48.14614349 -6.33988953 49.29399109 C-6.3415509 57.21354716 -5.06931019 64.36335427 -3 72 C-5 71 -5 71 -5.81640625 68.7421875 C-6.06261719 67.79601562 -6.30882812 66.84984375 -6.5625 65.875 C-6.81128906 64.94429688 -7.06007813 64.01359375 -7.31640625 63.0546875 C-8.93292722 55.8311481 -9.13444504 48.97985605 -9.09765625 41.59765625 C-9.0962413 40.51995468 -9.09482635 39.44225311 -9.09336853 38.33189392 C-9.08779611 34.90873371 -9.07524868 31.48564025 -9.0625 28.0625 C-9.05748144 25.73372491 -9.05291915 23.40494878 -9.04882812 21.07617188 C-9.03783571 15.38409202 -9.02112514 9.69205078 -9 4 C-7.54618103 3.30300448 -6.08677047 2.61766134 -4.625 1.9375 C-3.40683594 1.36322266 -3.40683594 1.36322266 -2.1640625 0.77734375 C-1.44992187 0.52082031 -0.73578125 0.26429688 0 0 Z " fill="#366682" transform="translate(773,326)"/>
<path d="M0 0 C1 1 1 1 1.12025452 3.20826721 C1.1169236 4.67053993 1.1169236 4.67053993 1.11352539 6.16235352 C1.11344986 7.26341934 1.11337433 8.36448517 1.11329651 9.49891663 C1.10813522 10.6968132 1.10297394 11.89470978 1.09765625 13.12890625 C1.0962413 14.34827377 1.09482635 15.5676413 1.09336853 16.82395935 C1.08774967 20.7368307 1.07519396 24.64964581 1.0625 28.5625 C1.05748743 31.20768147 1.0529241 33.85286383 1.04882812 36.49804688 C1.03777411 42.99871726 1.02101764 49.49935461 1 56 C0.34 56 -0.32 56 -1 56 C-1 38.18 -1 20.36 -1 2 C-4.3 2 -7.6 2 -11 2 C-6.95807022 -0.69461986 -4.7948504 -0.23200889 0 0 Z " fill="#BACBD4" transform="translate(864,323)"/>
<path d="M0 0 C0 0.66 0 1.32 0 2 C-3.03069678 3.68721053 -6.07611678 5.34591379 -9.125 7 C-9.9809375 7.47695313 -10.836875 7.95390625 -11.71875 8.4453125 C-16.28904368 10.90623987 -19.65124595 12.70147594 -25 12 C-23.53838645 9.0767729 -21.57243274 8.86463293 -18.5625 7.6875 C-13.54366086 5.67276888 -8.74582925 3.43429532 -3.9609375 0.91796875 C-2 0 -2 0 0 0 Z " fill="#91C37F" transform="translate(344,289)"/>
<path d="M0 0 C-8.261959 5.37129841 -8.261959 5.37129841 -13 7 C-13.33 6.34 -13.66 5.68 -14 5 C-16.02463255 4.34786708 -16.02463255 4.34786708 -18 4 C-15.56592995 3.13475247 -13.12856816 2.28257135 -10.6875 1.4375 C-9.99720703 1.19064453 -9.30691406 0.94378906 -8.59570312 0.68945312 C-3.33984375 -1.11328125 -3.33984375 -1.11328125 0 0 Z " fill="#7EB969" transform="translate(324,301)"/>
<path d="M0 0 C0.66 0 1.32 0 2 0 C2 7.59 2 15.18 2 23 C1.67 23 1.34 23 1 23 C0.67 16.73 0.34 10.46 0 4 C-0.99 4.99 -1.98 5.98 -3 7 C-3.66 6.67 -4.32 6.34 -5 6 C-3.38405168 3.95880212 -1.7143618 1.95927063 0 0 Z " fill="#1B5172" transform="translate(719,398)"/>
<path d="M0 0 C-1.53643852 3.68069887 -3.78150945 5.98775204 -6.625 8.75 C-7.85089844 9.94882812 -7.85089844 9.94882812 -9.1015625 11.171875 C-9.72804688 11.77515625 -10.35453125 12.3784375 -11 13 C-11.66 12.67 -12.32 12.34 -13 12 C-2.63106796 0 -2.63106796 0 0 0 Z " fill="#265A78" transform="translate(447,331)"/>
<path d="M0 0 C0.66 0.33 1.32 0.66 2 1 C0.56877218 2.48523642 -0.87020889 3.96300462 -2.3125 5.4375 C-3.11300781 6.26121094 -3.91351562 7.08492188 -4.73828125 7.93359375 C-7 10 -7 10 -10 11 C-8.55218207 7.55571735 -6.72305391 5.63869038 -3.875 3.25 C-3.15054688 2.63640625 -2.42609375 2.0228125 -1.6796875 1.390625 C-0.84824219 0.70226562 -0.84824219 0.70226562 0 0 Z " fill="#BFCED7" transform="translate(693,340)"/>
<path d="M0 0 C-1.40844718 3.21524305 -3.10344786 5.32183868 -5.625 7.75 C-6.57246094 8.67039062 -6.57246094 8.67039062 -7.5390625 9.609375 C-8.02117187 10.06828125 -8.50328125 10.5271875 -9 11 C-9 7.25983417 -8.0658409 6.54723807 -5.625 3.8125 C-4.99851562 3.09707031 -4.37203125 2.38164062 -3.7265625 1.64453125 C-2 0 -2 0 0 0 Z " fill="#C2D0D9" transform="translate(464,343)"/>
<path d="M0 0 C0.99 0 1.98 0 3 0 C3.33 0.99 3.66 1.98 4 3 C3.236875 3.45375 2.47375 3.9075 1.6875 4.375 C-0.23632814 5.53824492 -2.12941224 6.7529415 -4 8 C-2.87548273 5.0280615 -1.77706209 2.66559313 0 0 Z " fill="#396884" transform="translate(675,452)"/>
<path d="M0 0 C0 0.66 0 1.32 0 2 C-2.97 3.32 -5.94 4.64 -9 6 C-9.66 5.34 -10.32 4.68 -11 4 C-9.5437455 3.32880451 -8.08492133 2.66318193 -6.625 2 C-5.81289063 1.62875 -5.00078125 1.2575 -4.1640625 0.875 C-2 0 -2 0 0 0 Z " fill="#BEDBB3" transform="translate(344,289)"/>
<path d="M0 0 C0.66 0 1.32 0 2 0 C0.61811547 3.21043882 -0.92421903 5.04936365 -3.625 7.25 C-4.57246094 8.03117187 -4.57246094 8.03117187 -5.5390625 8.828125 C-6.02117188 9.21484375 -6.50328125 9.6015625 -7 10 C-5.15014033 6.06048404 -2.92434659 3.21678125 0 0 Z " fill="#BECED7" transform="translate(913,346)"/>
<path d="M0 0 C-1 3 -1 3 -3.875 4.75 C-7 6 -7 6 -10 5 C-8.71186658 4.16121545 -7.41936744 3.32913217 -6.125 2.5 C-5.40570313 2.0359375 -4.68640625 1.571875 -3.9453125 1.09375 C-2 0 -2 0 0 0 Z " fill="#E1EEDC" transform="translate(354,283)"/>
<path d="M0 0 C2.125 0.375 2.125 0.375 4 1 C-1.75 6 -1.75 6 -4 6 C-2.84826645 3.53199953 -1.95216435 1.95216435 0 0 Z " fill="#C4D2DA" transform="translate(198,271)"/>
<path d="M0 0 C0.66 0 1.32 0 2 0 C2 0.99 2 1.98 2 3 C-0.5 5.1875 -0.5 5.1875 -3 7 C-3.66 6.67 -4.32 6.34 -5 6 C-3.38405168 3.95880212 -1.7143618 1.95927063 0 0 Z " fill="#295C7A" transform="translate(719,398)"/>
<path d="M0 0 C-1.04874998 2.62187494 -1.64931313 3.79371361 -4.125 5.25 C-4.74375 5.4975 -5.3625 5.745 -6 6 C-3.84615385 0 -3.84615385 0 0 0 Z " fill="#326380" transform="translate(195,242)"/>
</svg>
