<?xml version="1.0" encoding="UTF-8"?>
<svg version="1.1" xmlns="http://www.w3.org/2000/svg" width="1280" height="720">
<path d="M0 0 C422.4 0 844.8 0 1280 0 C1280 237.6 1280 475.2 1280 720 C857.6 720 435.2 720 0 720 C0 482.4 0 244.8 0 0 Z " fill="#FEFEFE" transform="translate(0,0)"/>
<path d="M0 0 C0 0.66 0 1.32 0 2 C0.556875 2.04125 1.11375 2.0825 1.6875 2.125 C4.52913396 3.20021285 5.67644966 4.88064313 7.49609375 7.2421875 C9.84768784 9.99080397 12.63573696 12.19457895 15.42578125 14.484375 C15.94527344 14.98453125 16.46476563 15.4846875 17 16 C17 16.66 17 17.32 17 18 C18.32 18.66 19.64 19.32 21 20 C21 20.66 21 21.32 21 22 C22.32 22.66 23.64 23.32 25 24 C25 24.66 25 25.32 25 26 C25.53625 26.226875 26.0725 26.45375 26.625 26.6875 C31.58691918 29.42961323 35.0871424 32.98153303 38.5703125 37.38671875 C40.8971752 40.01238623 43.61693927 42.16986575 46.328125 44.38671875 C48 46 48 46 49 49 C49.99 49.33 50.98 49.66 52 50 C52 50.66 52 51.32 52 52 C52.928125 52.37125 52.928125 52.37125 53.875 52.75 C56.38710296 54.22770762 56.76107344 55.43955177 58 58 C58.99 58.33 59.98 58.66 61 59 C61 59.66 61 60.32 61 61 C61.99 61.33 62.98 61.66 64 62 C65.44870685 64.326711 66.75791683 66.57114911 68 69 C68.35964844 69.63292969 68.71929688 70.26585937 69.08984375 70.91796875 C71.41904573 76.24614324 70.73007514 82.02396067 68.76171875 87.3515625 C67.30772314 90.37500747 65.90076415 93.23441129 64 96 C63.01 96.33 62.02 96.66 61 97 C60.67 97.99 60.34 98.98 60 100 C59.34 100 58.68 100 58 100 C57.67 100.99 57.34 101.98 57 103 C56.34 103 55.68 103 55 103 C54.67 103.99 54.34 104.98 54 106 C53.34 106 52.68 106 52 106 C51.67 106.99 51.34 107.98 51 109 C50.34 109 49.68 109 49 109 C48.67 109.99 48.34 110.98 48 112 C47.34 112 46.68 112 46 112 C45.67 112.99 45.34 113.98 45 115 C44.34 115 43.68 115 43 115 C42.67 115.99 42.34 116.98 42 118 C41.34 118 40.68 118 40 118 C39.67 118.99 39.34 119.98 39 121 C38.34 121 37.68 121 37 121 C36.5937867 121.89271606 36.5937867 121.89271606 36.17936707 122.8034668 C35.01366144 124.974556 33.85613833 126.40284677 32.13012695 128.14453125 C31.5522493 128.73194092 30.97437164 129.31935059 30.37898254 129.92456055 C29.75505112 130.54758057 29.13111969 131.17060059 28.48828125 131.8125 C27.84183151 132.46323486 27.19538177 133.11396973 26.52934265 133.78442383 C25.16086853 135.15863482 23.78977409 136.53024071 22.41625977 137.89941406 C20.32873553 139.98378896 18.25485498 142.08109087 16.18164062 144.1796875 C14.84716622 145.51643617 13.51190456 146.85239947 12.17578125 148.1875 C11.56197098 148.81052002 10.94816071 149.43354004 10.31575012 150.07543945 C4.15432582 156.17221461 -1.89812304 160.08085585 -10.75 160.25 C-26.24996607 159.95541 -35.90378729 146.27008649 -46.17578125 136.0625 C-46.73406301 135.50829376 -47.29234478 134.95408752 -47.86754417 134.38308716 C-50.81344551 131.45784273 -53.7562058 128.52947933 -56.6965332 125.59863281 C-59.71166586 122.59462009 -62.73831801 119.60249077 -65.76759052 116.61274719 C-68.11901109 114.28756838 -70.46140953 111.95345423 -72.80153465 109.61691284 C-73.91321768 108.51006326 -75.0282424 107.40655839 -76.14681435 106.30667114 C-84.13126517 98.44755333 -91.45677408 91.01258226 -92.25 79.3125 C-92.12043305 71.58167189 -89.43009822 65.43009822 -84 60 C-83.34 60 -82.68 60 -82 60 C-81.61328125 59.12601562 -81.61328125 59.12601562 -81.21875 58.234375 C-79.90165983 55.8197097 -78.44911616 54.18259823 -76.5 52.25 C-75.58734375 51.32960938 -75.58734375 51.32960938 -74.65625 50.390625 C-73 49 -73 49 -71 49 C-70.72977524 48.40511276 -70.45955048 47.81022552 -70.18113708 47.1973114 C-69.00819207 45.01523999 -67.84237605 43.58898479 -66.10180664 41.84301758 C-65.516819 41.25172562 -64.93183136 40.66043365 -64.32911682 40.05122375 C-63.69585983 39.42201523 -63.06260284 38.7928067 -62.41015625 38.14453125 C-61.75099716 37.48345871 -61.09183807 36.82238617 -60.41270447 36.14128113 C-59.01384255 34.74105868 -57.61245359 33.34335692 -56.20874023 31.94799805 C-54.09456872 29.84440822 -51.99111666 27.73053664 -49.88867188 25.61523438 C-43.22733778 18.94798409 -36.56653344 12.51774212 -29.13452148 6.70581055 C-27.00225184 5.08828888 -27.00225184 5.08828888 -25.39477539 3.26879883 C-24 2 -24 2 -21 2 C-21 1.34 -21 0.68 -21 0 C-13.47264358 -2.4579123 -7.52735642 -2.4579123 0 0 Z " fill="#9EA0A1" transform="translate(750,242)"/>
<path d="M0 0 C3.26675945 2.53190559 6.10520251 5.44757998 8.9296875 8.45703125 C10.93785232 10.6481638 10.93785232 10.6481638 13.91015625 12.48046875 C13.91015625 13.14046875 13.91015625 13.80046875 13.91015625 14.48046875 C14.79960938 14.86138672 14.79960938 14.86138672 15.70703125 15.25 C18.15413324 16.61673249 19.40363579 17.99789857 21.16015625 20.16796875 C24.19848581 23.77354009 27.46052226 26.77449186 31.0546875 29.8125 C32.79665898 31.37844067 34.25474981 32.97241211 35.72265625 34.79296875 C37.80896234 37.62616297 37.80896234 37.62616297 40.91015625 39.48046875 C40.91015625 40.14046875 40.91015625 40.80046875 40.91015625 41.48046875 C41.46703125 41.68671875 42.02390625 41.89296875 42.59765625 42.10546875 C45.20418841 43.65529869 46.76635615 45.56239218 48.640625 47.91796875 C51.19914769 51.06691975 54.20754337 53.80144181 57.12109375 56.6171875 C57.91773438 57.39707031 58.714375 58.17695313 59.53515625 58.98046875 C60.29054688 59.71265625 61.0459375 60.44484375 61.82421875 61.19921875 C66.9748769 66.83214826 68.21008902 71.89736887 68.0546875 79.44140625 C67.13586277 92.40428492 55.42814046 101.26012116 46.8125 109.84375 C45.53238737 111.12521205 44.25257158 112.40697068 42.97303772 113.68901062 C40.30256176 116.36242159 37.62853637 119.03221589 34.9519043 121.69946289 C31.52657855 125.11336035 28.11035763 128.53620622 24.69672298 131.96178913 C22.06062429 134.60512071 19.41977356 137.24366324 16.77746773 139.8807888 C15.515746 141.14117979 14.2554988 142.40304871 12.99677849 143.66643715 C11.23824929 145.43005885 9.47341297 147.18712069 7.70678711 148.94262695 C7.19184692 149.4616156 6.67690674 149.98060425 6.1463623 150.51531982 C0.32939259 156.26481917 -4.37982101 158.61135094 -12.46484375 158.66796875 C-19.60014737 158.58268624 -24.4151733 156.88123358 -30.08984375 152.48046875 C-31.93884602 150.52052634 -33.68815695 148.50052931 -35.42578125 146.44140625 C-38.15927779 143.22024366 -40.98732889 140.28500662 -44.40234375 137.79296875 C-44.95921875 137.35984375 -45.51609375 136.92671875 -46.08984375 136.48046875 C-46.08984375 135.82046875 -46.08984375 135.16046875 -46.08984375 134.48046875 C-46.64671875 134.25359375 -47.20359375 134.02671875 -47.77734375 133.79296875 C-50.70249834 132.13274587 -52.75959559 129.86419192 -55.08984375 127.48046875 C-56.35931627 126.20827606 -57.63026221 124.93755265 -58.90234375 123.66796875 C-63.08984375 119.48046875 -63.08984375 119.48046875 -67.27734375 115.29296875 C-67.93726318 114.63321045 -68.59718262 113.97345215 -69.27709961 113.29370117 C-70.77966479 111.79073126 -72.28066194 110.28619391 -73.78125 108.78125 C-75.36210132 107.20574843 -76.95384097 105.64111804 -78.5546875 104.0859375 C-93.18273474 89.78141738 -93.18273474 89.78141738 -93.33984375 77.60546875 C-93.37851562 75.81496094 -93.37851562 75.81496094 -93.41796875 73.98828125 C-92.22326316 61.21630957 -77.46509048 50.69345773 -68.79296875 42.015625 C-67.62946697 40.84890096 -66.46603653 39.68210576 -65.30267334 38.51524353 C-62.88404169 36.0906748 -60.46340437 33.66812946 -58.04150391 31.24682617 C-54.94420507 28.14962969 -51.85388944 25.04556273 -48.76521683 21.93976688 C-46.37340921 19.53683837 -43.97706801 17.13847095 -41.57942963 14.74136162 C-40.43758062 13.59833646 -39.29734372 12.45369839 -38.15879059 11.30739021 C-36.57054133 9.70932131 -34.97605472 8.11773831 -33.37988281 6.52758789 C-32.47659241 5.62287247 -31.573302 4.71815704 -30.64263916 3.786026 C-22.5576658 -3.51591793 -9.72700145 -5.72055075 0 0 Z " fill="#E76E2C" transform="translate(652.08984375,142.51953125)"/>
<path d="M0 0 C-0.55935889 2.42388852 -1.24530192 4.70704671 -2.0625 7.0625 C-3.15202009 9.96241726 -3.15202009 9.96241726 -3 13 C-1.35 11.02 0.3 9.04 2 7 C2.99 7.33 3.98 7.66 5 8 C5 8.66 5 9.32 5 10 C4.67 10.33 4.34 10.66 4 11 C4.99 11 5.98 11 7 11 C7.99 11 8.98 11 10 11 C9.835 12.0725 9.67 13.145 9.5 14.25 C8.91189085 18.03028752 8.91189085 18.03028752 9 22 C9.66 22 10.32 22 11 22 C11.99 24.97 11.99 24.97 13 28 C14.98567708 27.96744792 16.97135417 27.93489583 18.95703125 27.90234375 C21 28 21 28 24 29 C24.495 28.505 24.495 28.505 25 28 C26.66617115 27.95936168 28.33388095 27.957279 30 28 C30.37125 27.0409375 30.37125 27.0409375 30.75 26.0625 C32 24 32 24 34.125 23.25 C34.74375 23.1675 35.3625 23.085 36 23 C36.495 23.99 36.495 23.99 37 25 C34.30627974 30.53709165 29.98117647 34.49472767 25 38 C24.01 36.02 24.01 36.02 23 34 C20.36 34.33 17.72 34.66 15 35 C15.99 37.475 15.99 37.475 17 40 C25.60522619 40.69891274 25.60522619 40.69891274 33 37 C33.825 35.989375 34.65 34.97875 35.5 33.9375 C38.00823044 30.99032923 39.2085209 29.66350884 43 29 C47.94599141 31.32872159 51.52635952 35.20327688 55.34765625 39.01171875 C56.04136826 39.69877396 56.73508026 40.38582916 57.44981384 41.09370422 C58.91228592 42.54607461 60.3720767 44.00114929 61.8293457 45.45874023 C64.04803368 47.67306214 66.28220289 49.87090107 68.51757812 52.06835938 C69.94108446 53.4859955 71.36364204 54.90458506 72.78515625 56.32421875 C73.44878677 56.97347824 74.1124173 57.62273773 74.79615784 58.29167175 C79.82791033 63.37302456 83.4599665 68.37859889 84.53125 75.5625 C84.5209375 76.696875 84.510625 77.83125 84.5 79 C84.51546875 80.7015625 84.51546875 80.7015625 84.53125 82.4375 C83.40972306 89.9583277 79.37103104 95.22548009 74.07324219 100.44433594 C73.49054062 101.03404678 72.90783905 101.62375763 72.30747986 102.2313385 C70.39714848 104.15913548 68.47272505 106.07209046 66.546875 107.984375 C65.2035375 109.33041067 63.86079396 110.67703934 62.51861572 112.02423096 C59.71075771 114.83796858 56.8958383 117.64438964 54.07568359 120.44580078 C50.47325663 124.02543981 46.88908829 127.6227394 43.31003952 131.22573471 C40.54279393 134.00747953 37.76603573 136.77957147 34.98636627 139.54889679 C33.66143975 140.87116745 32.33944359 142.19638148 31.0205307 143.52465057 C29.17134627 145.38406821 27.30968764 147.23006198 25.44433594 149.07324219 C24.90898727 149.61668777 24.37363861 150.16013336 23.82206726 150.720047 C18.40216921 156.02203765 11.6095181 160.04913827 3.875 160.3125 C-10.76748104 160.07518264 -20.82876058 146.35229741 -30.41796875 136.8203125 C-31.00014978 136.24220699 -31.58233082 135.66410149 -32.1821537 135.06847763 C-35.2577538 132.01359601 -38.33016783 128.95554982 -41.40014648 125.89501953 C-44.55208316 122.75417728 -47.71553549 119.62520126 -50.88166332 116.49867439 C-53.33431262 114.07226715 -55.77794145 111.63692266 -58.21929359 109.1991539 C-59.3812181 108.04206779 -60.54648911 106.8883312 -61.71529198 105.73819351 C-76.11675226 91.55272531 -76.11675226 91.55272531 -77.55859375 82.48828125 C-77.51863281 81.44027344 -77.47867187 80.39226562 -77.4375 79.3125 C-77.41558594 78.25675781 -77.39367187 77.20101562 -77.37109375 76.11328125 C-76.97945063 72.82760161 -76.24657907 70.06263851 -75 67 C-73.1875 66 -73.1875 66 -71 65 C-69.79308573 63.5647506 -68.58969208 62.12576572 -67.4296875 60.65234375 C-65.37165047 58.27379276 -62.99579264 56.36246725 -60.55078125 54.39453125 C-58.7459798 52.88740659 -58.7459798 52.88740659 -57 50 C-56.01 50 -55.02 50 -54 50 C-53.34 48.68 -52.68 47.36 -52 46 C-51.34 46.66 -50.68 47.32 -50 48 C-50.66 48 -51.32 48 -52 48 C-52 48.66 -52 49.32 -52 50 C-51.0409375 49.7215625 -51.0409375 49.7215625 -50.0625 49.4375 C-49.381875 49.293125 -48.70125 49.14875 -48 49 C-47.505 49.495 -47.505 49.495 -47 50 C-47.34786708 48.02463255 -47.34786708 48.02463255 -48 46 C-48.66 45.67 -49.32 45.34 -50 45 C-49.67 44.34 -49.34 43.68 -49 43 C-47.515 43.495 -47.515 43.495 -46 44 C-45.67 45.65 -45.34 47.3 -45 49 C-43.68 49.33 -42.36 49.66 -41 50 C-41 50.66 -41 51.32 -41 52 C-40.278125 51.979375 -39.55625 51.95875 -38.8125 51.9375 C-36.07673544 51.99829477 -33.66821904 52.43048098 -31 53 C-30.57589844 52.50371094 -30.15179688 52.00742187 -29.71484375 51.49609375 C-25.65756716 46.79678658 -21.45019806 42.32846012 -17 38 C-20.92857553 31.65738138 -20.92857553 31.65738138 -25.9375 26.1875 C-26.9584375 25.1046875 -26.9584375 25.1046875 -28 24 C-27.83160045 19.8609163 -25.08342167 17.74959263 -22.25 15 C-21.38890625 14.154375 -20.5278125 13.30875 -19.640625 12.4375 C-12.66666667 6 -12.66666667 6 -8 6 C-7.71125 5.195625 -7.4225 4.39125 -7.125 3.5625 C-5.3773462 -0.41826699 -4.39661496 0 0 0 Z " fill="#9CC640" transform="translate(536,242)"/>
<path d="M0 0 C1.37147309 0.00374273 2.74294891 0.00658372 4.11442566 0.00857544 C7.67684671 0.01611293 11.23909758 0.03567283 14.80145264 0.0579834 C18.45550232 0.07865839 22.10958023 0.08762284 25.76367188 0.09765625 C32.89850598 0.11893102 40.03322609 0.15294301 47.16796875 0.1953125 C47.23830417 14.964894 47.29107635 29.73445309 47.32340527 44.50416851 C47.33882059 51.36326918 47.35980687 58.2222653 47.39428711 65.08129883 C47.42758258 71.70785587 47.44485171 78.33433332 47.45260048 84.96097755 C47.45811855 87.4817659 47.46889364 90.00254872 47.48515892 92.52329063 C47.70178576 127.50520341 47.70178576 127.50520341 38.16796875 137.1953125 C24.03046568 148.12831487 2.06254207 146.43326374 -14.82788086 144.50292969 C-17.8343595 144.10371343 -20.83251267 143.64383864 -23.83203125 143.1953125 C-23.83203125 133.9553125 -23.83203125 124.7153125 -23.83203125 115.1953125 C-14.70703125 114.8203125 -14.70703125 114.8203125 -11.86669922 114.71728516 C-7.25037196 114.49998839 -3.06097825 114.2373274 1.16796875 112.1953125 C3.71983927 108.61703529 3.47422129 104.71249774 3.48681641 100.48925781 C3.50188484 99.33258354 3.50188484 99.33258354 3.51725769 98.15254211 C3.54809232 95.60951466 3.56512549 93.06659251 3.58203125 90.5234375 C3.60074268 88.7579457 3.62031608 86.99246284 3.64071655 85.22698975 C3.69204639 80.58446526 3.73166756 75.94191177 3.76885986 71.29925537 C3.80889415 66.56010764 3.85998913 61.82108063 3.91015625 57.08203125 C4.00692562 47.78654312 4.09132721 38.49098685 4.16796875 29.1953125 C2.85444852 29.50349606 1.54217303 29.81698915 0.23046875 30.1328125 C-0.86587891 30.39384766 -0.86587891 30.39384766 -1.984375 30.66015625 C-3.83173023 31.03418819 -3.83173023 31.03418819 -4.83203125 32.1953125 C-4.95687279 34.53684091 -5.01802416 36.85038835 -5.03735352 39.19360352 C-5.04725311 39.92526733 -5.05715271 40.65693115 -5.06735229 41.4107666 C-5.09905508 43.84021722 -5.12375918 46.26968743 -5.1484375 48.69921875 C-5.16899947 50.37931337 -5.18999573 52.05940273 -5.21141052 53.73948669 C-5.26670951 58.16999053 -5.31608412 62.60054165 -5.36425781 67.03112793 C-5.41441585 71.54878975 -5.47013158 76.06638258 -5.52539062 80.58398438 C-5.63306785 89.4543682 -5.73449143 98.32481182 -5.83203125 107.1953125 C-8.97768171 107.28376266 -12.123005 107.33618085 -15.26953125 107.3828125 C-16.14802734 107.40794922 -17.02652344 107.43308594 -17.93164062 107.45898438 C-27.88244196 107.56914085 -35.44716274 104.8790859 -42.83203125 98.1953125 C-53.94161653 86.80924432 -56.5594153 72.84986468 -56.42108154 57.35671997 C-56.41231995 56.68470551 -56.40355835 56.01269104 -56.39453125 55.3203125 C-56.38863983 54.27664017 -56.38863983 54.27664017 -56.38262939 53.21188354 C-56.25773089 37.49022836 -54.21012339 23.1098633 -42.98828125 11.24609375 C-31.05227104 -0.05048734 -15.63586189 -0.12520758 0 0 Z " fill="#171718" transform="translate(433.83203125,435.8046875)"/>
<path d="M0 0 C8.97142616 -0.04531904 17.94277536 -0.08195525 26.91429043 -0.10362434 C31.08084326 -0.11402832 35.24731321 -0.12812512 39.41381836 -0.15087891 C43.44034189 -0.17272875 47.46678606 -0.18459405 51.49336433 -0.18975449 C53.02382721 -0.19342856 54.55428611 -0.20060271 56.08471489 -0.21146011 C68.47371661 -0.29579696 80.97337598 0.04264485 90.875 8.4375 C96.67824424 15.43552982 98.31445142 22.30800428 98.22705078 31.32202148 C98.22734283 32.12283646 98.22763489 32.92365143 98.22793579 33.74873352 C98.22655205 36.37296716 98.21103628 38.99691024 98.1953125 41.62109375 C98.19157897 43.44954778 98.1887336 45.27800382 98.18673706 47.10646057 C98.17912741 51.90194289 98.15950198 56.69730267 98.1373291 61.49273682 C98.11681304 66.39292748 98.10772305 71.29313808 98.09765625 76.19335938 C98.07625345 85.79562654 98.0421499 95.39780305 98 105 C88.31541498 105.0931723 78.63098709 105.16400241 68.94604969 105.20724869 C64.44767603 105.22801731 59.94961171 105.25613571 55.45141602 105.30175781 C51.10065917 105.34560237 46.75019761 105.36921748 42.39923668 105.37950897 C40.74923754 105.38683176 39.09925236 105.40112894 37.44938087 105.42292023 C23.86043086 105.59506724 10.69970877 104.3811588 0 95 C-7.82012098 86.71582788 -9.54934858 78.94037567 -9.28125 67.69140625 C-8.62517198 59.08038219 -6.1194456 52.20981716 0 46 C13.0930729 34.76752167 25.54701107 34.5331541 42 35 C42.02505615 36.20648193 42.0501123 37.41296387 42.07592773 38.65600586 C42.16982523 43.11575661 42.27008833 47.57534513 42.37231445 52.03491211 C42.41573041 53.96814185 42.45740042 55.90141159 42.49731445 57.8347168 C42.55485631 60.60738202 42.6185962 63.37984457 42.68359375 66.15234375 C42.70030624 67.02213364 42.71701874 67.89192352 42.73423767 68.78807068 C42.45026213 72.71115966 42.45026213 72.71115966 44 76 C46.32817964 76.36760731 48.6618385 76.70241581 51 77 C50.93317147 70.34273143 50.84343427 63.68605813 50.73754883 57.02929688 C50.70423664 54.76341829 50.67622455 52.49745546 50.65356445 50.23144531 C50.62013407 46.9794515 50.56782438 43.72823415 50.51171875 40.4765625 C50.50532883 39.45881744 50.4989389 38.44107239 50.49235535 37.39248657 C50.47256119 36.45166229 50.45276703 35.51083801 50.43237305 34.54150391 C50.41571846 33.29574081 50.41571846 33.29574081 50.39872742 32.02481079 C50.26714737 31.35662323 50.13556732 30.68843567 50 30 C46.82992698 27.88661799 45.98354714 27.73968172 42.3449707 27.68115234 C41.40422195 27.66128265 40.46347321 27.64141296 39.49421692 27.62094116 C37.97534126 27.60361435 37.97534126 27.60361435 36.42578125 27.5859375 C35.38681198 27.56657135 34.34784271 27.5472052 33.27738953 27.5272522 C29.95584344 27.46742701 26.63426276 27.42105896 23.3125 27.375 C21.06183376 27.33682295 18.81118218 27.29777139 16.56054688 27.2578125 C11.04044041 27.16007546 5.52049184 27.08052925 0 27 C0 18.09 0 9.18 0 0 Z " fill="#181819" transform="translate(694,436)"/>
<path d="M0 0 C1.5102801 0.0056071 3.02056572 0.00987192 4.53085327 0.01286316 C8.47315998 0.0242244 12.41512609 0.05361439 16.3572998 0.0869751 C20.39310094 0.11786601 24.42895803 0.13140881 28.46484375 0.14648438 C36.35952992 0.1784942 44.25394114 0.22958242 52.1484375 0.29296875 C52.17309631 4.26227864 52.19127773 8.23155909 52.20336914 12.20092773 C52.20840807 13.55217261 52.21523927 14.90341201 52.22387695 16.25463867 C52.23596169 18.19317309 52.24113578 20.13174675 52.24609375 22.0703125 C52.25133057 23.23812256 52.25656738 24.40593262 52.26196289 25.60913086 C52.1484375 28.29296875 52.1484375 28.29296875 51.1484375 29.29296875 C49.52264532 29.41578827 47.89166746 29.47079379 46.26147461 29.49829102 C44.69996925 29.52820885 44.69996925 29.52820885 43.10691833 29.55873108 C41.9746431 29.57544357 40.84236786 29.59215607 39.67578125 29.609375 C38.52300186 29.6301561 37.37022247 29.65093719 36.18251038 29.67234802 C32.48371593 29.73796839 28.78484791 29.7967863 25.0859375 29.85546875 C22.58527871 29.8986421 20.08462749 29.94225599 17.58398438 29.98632812 C11.43888088 30.09366243 5.29370346 30.19540518 -0.8515625 30.29296875 C-0.8515625 31.94296875 -0.8515625 33.59296875 -0.8515625 35.29296875 C0.35757813 35.33035156 1.56671875 35.36773437 2.8125 35.40625 C19.19048811 36.01595256 36.80405583 36.99943133 48.7109375 49.73046875 C56.77285648 59.14470963 56.15467261 69.91790356 55.45019531 81.70117188 C54.83465413 86.98805313 52.8148562 90.54525473 49.1484375 94.29296875 C48.35373047 95.16888672 48.35373047 95.16888672 47.54296875 96.0625 C39.75740278 103.66313566 29.24249486 105.42461937 18.76611328 105.40649414 C17.69678307 105.40671318 17.69678307 105.40671318 16.60585022 105.40693665 C14.26845165 105.40624447 11.93113451 105.39848487 9.59375 105.390625 C7.96564782 105.38875835 6.33754508 105.38733561 4.70944214 105.38633728 C0.43841991 105.38253157 -3.83256795 105.37271801 -8.10357666 105.3616333 C-12.46748388 105.35137723 -16.83139669 105.34683069 -21.1953125 105.34179688 C-29.74741331 105.3310939 -38.29947966 105.31351297 -46.8515625 105.29296875 C-46.8515625 96.05296875 -46.8515625 86.81296875 -46.8515625 77.29296875 C-20.1215625 76.79796875 -20.1215625 76.79796875 7.1484375 76.29296875 C7.4784375 74.64296875 7.8084375 72.99296875 8.1484375 71.29296875 C6.43432143 69.57885268 4.15905594 70.16363475 1.8203125 70.15234375 C-22.32973496 69.80875268 -22.32973496 69.80875268 -31.8515625 64.29296875 C-33.00591797 63.62587891 -33.00591797 63.62587891 -34.18359375 62.9453125 C-41.62509361 57.98891464 -46.15942364 50.5331907 -48.37890625 41.9609375 C-50.15006631 31.96339767 -48.94122348 23.67238421 -43.44921875 15.10546875 C-38.81563569 9.12372827 -32.79810699 6.03438736 -25.8515625 3.29296875 C-25.20545517 3.03713013 -24.55934784 2.7812915 -23.8936615 2.5177002 C-16.01281401 -0.23293538 -8.23241292 -0.09059802 0 0 Z " fill="#19191A" transform="translate(846.8515625,435.70703125)"/>
<path d="M0 0 C16.7990625 -0.061875 16.7990625 -0.061875 33.9375 -0.125 C37.45784912 -0.14320801 40.97819824 -0.16141602 44.60522461 -0.18017578 C48.94445801 -0.18920898 48.94445801 -0.18920898 50.98365784 -0.19088745 C52.39077524 -0.19393418 53.79788783 -0.20091693 55.20497131 -0.21115112 C67.55359111 -0.29638202 80.00866919 0.07256735 89.875 8.4375 C99.22648468 19.71429035 97 31.10312605 97 46 C82.48 46 67.96 46 53 46 C52.505 37.09 52.505 37.09 52 28 C50.4 26.2 50.4 26.2 44 26 C44 52.4 44 78.8 44 106 C29.48 106 14.96 106 0 106 C0 71.02 0 36.04 0 0 Z " fill="#19191A" transform="translate(590,436)"/>
<path d="M0 0 C16.9228125 -0.0928125 16.9228125 -0.0928125 34.1875 -0.1875 C39.49171021 -0.22846802 39.49171021 -0.22846802 44.90307617 -0.27026367 C49.28771973 -0.28381348 49.28771973 -0.28381348 51.35322571 -0.28633118 C52.7676834 -0.29087826 54.18213094 -0.30130226 55.59651184 -0.31672668 C80.24504076 -0.57162481 80.24504076 -0.57162481 89.34765625 7.203125 C99.45600636 18.19565703 97 31.49708193 97 46 C82.81 46 68.62 46 54 46 C54 40.06 54 34.12 54 28 C50.7 27.01 47.4 26.02 44 25 C44 51.4 44 77.8 44 105 C29.48 105 14.96 105 0 105 C0 70.35 0 35.7 0 0 Z " fill="#171718" transform="translate(488,436)"/>
<path d="M0 0 C1.8866883 1.53204764 2.62159401 3.04666044 3.55859375 5.265625 C1.38435258 7.76600234 -0.17186423 8.70191086 -3.44140625 9.265625 C-4.28239281 13.28367191 -4.4954557 16.28366043 -3.44140625 20.265625 C2.79120517 21.59606777 2.79120517 21.59606777 8.55859375 19.453125 C10.58914362 17.43242142 10.58914362 17.43242142 11.55859375 15.265625 C16.94353303 15.57533394 19.38326779 18.61992607 22.87109375 22.328125 C23.42087891 22.89595703 23.97066406 23.46378906 24.53710938 24.04882812 C25.8868674 25.44553425 27.224009 26.85441337 28.55859375 28.265625 C27.89859375 28.925625 27.23859375 29.585625 26.55859375 30.265625 C25.89859375 30.265625 25.23859375 30.265625 24.55859375 30.265625 C21.32278708 31.55605692 19.7700707 33.03422021 17.74609375 35.828125 C15.42616831 38.63768295 14.80048145 39.19965563 11.12109375 40.203125 C9.94546875 40.22375 8.76984375 40.244375 7.55859375 40.265625 C6.32109375 40.389375 5.08359375 40.513125 3.80859375 40.640625 C0.55859375 40.265625 0.55859375 40.265625 -1.44140625 37.890625 C-1.93640625 36.59125 -1.93640625 36.59125 -2.44140625 35.265625 C-1.94640625 34.275625 -1.94640625 34.275625 -1.44140625 33.265625 C6.06628606 32.89639423 6.06628606 32.89639423 8.55859375 34.765625 C9.05359375 35.508125 9.05359375 35.508125 9.55859375 36.265625 C10.11546875 35.523125 10.67234375 34.780625 11.24609375 34.015625 C13.55859375 31.265625 13.55859375 31.265625 16.24609375 29.203125 C18.66253811 27.17853648 19.23000057 26.33249472 19.55859375 23.265625 C15.83245222 24.38417086 15.83245222 24.38417086 13.55859375 27.265625 C9.92656946 27.9214931 6.24038382 28.05025566 2.55859375 28.265625 C1.38296875 28.348125 0.20734375 28.430625 -1.00390625 28.515625 C-2.21046875 28.391875 -2.21046875 28.391875 -3.44140625 28.265625 C-5.44140625 25.265625 -5.44140625 25.265625 -5.44140625 21.265625 C-6.10140625 21.265625 -6.76140625 21.265625 -7.44140625 21.265625 C-8.72712054 13.83705357 -8.72712054 13.83705357 -7.44140625 10.265625 C-8.76140625 11.255625 -10.08140625 12.245625 -11.44140625 13.265625 C-12.43140625 11.285625 -12.43140625 11.285625 -13.44140625 9.265625 C-13.11140625 8.935625 -12.78140625 8.605625 -12.44140625 8.265625 C-13.43140625 8.265625 -14.42140625 8.265625 -15.44140625 8.265625 C-16.83078702 10.22710374 -18.16744735 12.22729076 -19.44140625 14.265625 C-19.77140625 14.265625 -20.10140625 14.265625 -20.44140625 14.265625 C-19.84687322 3.70753844 -19.84687322 3.70753844 -16.44140625 -0.734375 C-19.41158319 -0.10627327 -19.41158319 -0.10627327 -22.44140625 1.265625 C-23.88063824 3.77557996 -23.88063824 3.77557996 -24.44140625 6.265625 C-25.20453125 6.183125 -25.96765625 6.100625 -26.75390625 6.015625 C-29.50408259 5.95507613 -29.50408259 5.95507613 -30.81640625 7.890625 C-31.35265625 8.674375 -31.88890625 9.458125 -32.44140625 10.265625 C-33.56374698 11.2919219 -34.71239882 12.28982049 -35.87890625 13.265625 C-41.20737738 17.48763828 -41.20737738 17.48763828 -44.44140625 23.265625 C-43.45140625 23.595625 -42.46140625 23.925625 -41.44140625 24.265625 C-39.43359375 26.6640625 -39.43359375 26.6640625 -37.31640625 29.640625 C-36.61257813 30.61773437 -35.90875 31.59484375 -35.18359375 32.6015625 C-33.44140625 35.265625 -33.44140625 35.265625 -32.44140625 38.265625 C-32.93769531 38.678125 -33.43398438 39.090625 -33.9453125 39.515625 C-38.92256285 43.74676002 -43.26759663 48.2440103 -47.44140625 53.265625 C-48.59382813 53.03166016 -48.59382813 53.03166016 -49.76953125 52.79296875 C-51.57047404 52.43751951 -53.37851998 52.11653872 -55.19140625 51.828125 C-56.30515625 51.5496875 -56.30515625 51.5496875 -57.44140625 51.265625 C-57.77140625 50.605625 -58.10140625 49.945625 -58.44140625 49.265625 C-59.92640625 48.770625 -59.92640625 48.770625 -61.44140625 48.265625 C-61.93640625 45.790625 -61.93640625 45.790625 -62.44140625 43.265625 C-64.42140625 43.760625 -64.42140625 43.760625 -66.44140625 44.265625 C-65.12140625 44.925625 -63.80140625 45.585625 -62.44140625 46.265625 C-62.44140625 47.915625 -62.44140625 49.565625 -62.44140625 51.265625 C-63.36953125 50.770625 -63.36953125 50.770625 -64.31640625 50.265625 C-66.35158969 49.12369265 -66.35158969 49.12369265 -68.44140625 49.265625 C-68.44140625 48.275625 -68.44140625 47.285625 -68.44140625 46.265625 C-69.10140625 47.255625 -69.76140625 48.245625 -70.44140625 49.265625 C-71.92640625 49.760625 -71.92640625 49.760625 -73.44140625 50.265625 C-75.1542963 51.99327664 -75.1542963 51.99327664 -76.81640625 54.078125 C-79.47521138 57.22493867 -82.18391542 59.73202102 -85.44140625 62.265625 C-87.2046413 64.39165685 -87.2046413 64.39165685 -88.44140625 66.265625 C-89.10140625 65.935625 -89.76140625 65.605625 -90.44140625 65.265625 C-84.34506828 57.98066175 -77.64557874 51.30604905 -70.9375 44.59375 C-69.72869366 43.38172383 -68.5199598 42.16962537 -67.31129456 40.9574585 C-64.79075807 38.43096788 -62.26819773 35.90651818 -59.74438477 33.38330078 C-56.5193336 30.15835162 -53.30124199 26.92655204 -50.08483791 23.69298172 C-47.59605861 21.19306494 -45.10272829 18.69772555 -42.60811043 16.20363617 C-41.41963912 15.01398955 -40.232778 13.82273195 -39.04760551 12.62979889 C-37.38990611 10.96225392 -35.72593221 9.30122064 -34.06030273 7.64160156 C-33.57858109 7.15426041 -33.09685944 6.66691925 -32.60054016 6.16481018 C-23.47771758 -2.87499067 -11.82465034 -6.19503511 0 0 Z " fill="#E7EA8C" transform="translate(552.44140625,242.734375)"/>
<path d="M0 0 C6.97044538 -0.46127947 13.33016946 -0.60407292 19 4 C20.21484375 6.140625 20.21484375 6.140625 21 8 C18.82575883 10.50037734 17.26954202 11.43628586 14 12 C13.15901344 16.01804691 12.94595055 19.01803543 14 23 C20.23261142 24.33044277 20.23261142 24.33044277 26 22.1875 C28.03054987 20.16679642 28.03054987 20.16679642 29 18 C34.38493928 18.30970894 36.82467404 21.35430107 40.3125 25.0625 C40.86228516 25.63033203 41.41207031 26.19816406 41.97851562 26.78320312 C43.32827365 28.17990925 44.66541525 29.58878837 46 31 C45.34 31.66 44.68 32.32 44 33 C43.34 33 42.68 33 42 33 C38.76419333 34.29043192 37.21147695 35.76859521 35.1875 38.5625 C32.86757456 41.37205795 32.2418877 41.93403063 28.5625 42.9375 C26.7990625 42.9684375 26.7990625 42.9684375 25 43 C23.7625 43.12375 22.525 43.2475 21.25 43.375 C18 43 18 43 16 40.625 C15.67 39.75875 15.34 38.8925 15 38 C15.33 37.34 15.66 36.68 16 36 C23.50769231 35.63076923 23.50769231 35.63076923 26 37.5 C26.495 38.2425 26.495 38.2425 27 39 C27.556875 38.2575 28.11375 37.515 28.6875 36.75 C31 34 31 34 33.6875 31.9375 C36.10394436 29.91291148 36.67140682 29.06686972 37 26 C33.27385847 27.11854586 33.27385847 27.11854586 31 30 C27.36797571 30.6558681 23.68179007 30.78463066 20 31 C18.824375 31.0825 17.64875 31.165 16.4375 31.25 C15.633125 31.1675 14.82875 31.085 14 31 C12 28 12 28 12 24 C11.34 24 10.68 24 10 24 C8.71428571 16.57142857 8.71428571 16.57142857 10 13 C8.68 13.99 7.36 14.98 6 16 C5.34 14.68 4.68 13.36 4 12 C4.33 11.67 4.66 11.34 5 11 C5 10.01 5 9.02 5 8 C6.17148276 5.55766765 7.59736658 3.32311159 9 1 C6.03 1 3.06 1 0 1 C0 0.67 0 0.34 0 0 Z " fill="#F2F2B2" transform="translate(535,240)"/>
<path d="M0 0 C-4.49967891 1.49989297 -8.16414763 2.13703872 -12.9375 2.125 C-13.95714844 2.12757813 -14.97679687 2.13015625 -16.02734375 2.1328125 C-18.79588725 2.00911936 -21.30539535 1.62526738 -24 1 C-24.226875 1.928125 -24.45375 2.85625 -24.6875 3.8125 C-26.23425568 7.56890664 -27.52552918 8.1291311 -31 10 C-31.33 10.99 -31.66 11.98 -32 13 C-34.26684268 15.01497127 -36.33344788 16.14671707 -39.125 17.375 C-42.56817089 19.32114007 -42.68657149 20.40996206 -44 24 C-45.62935241 25.37868281 -47.29749607 26.71274093 -49 28 C-49.495 28.70125 -49.99 29.4025 -50.5 30.125 C-52 32 -52 32 -54.4375 32.875 C-58.00278763 34.44024823 -59.07577791 36.68237571 -61 40 C-61.28875 40.763125 -61.5775 41.52625 -61.875 42.3125 C-63 44 -63 44 -66.125 44.75 C-67.07375 44.8325 -68.0225 44.915 -69 45 C-69.33 46.65 -69.66 48.3 -70 50 C-71.98 50.66 -73.96 51.32 -76 52 C-76.061875 52.721875 -76.12375 53.44375 -76.1875 54.1875 C-77.27224543 57.94238801 -79.03212965 59.50429084 -82 62 C-82.86625 62.28875 -83.7325 62.5775 -84.625 62.875 C-87.41503458 64.19659533 -87.64074063 64.87439115 -88.8125 67.625 C-89.204375 68.73875 -89.59625 69.8525 -90 71 C-90.33 71 -90.66 71 -91 71 C-91.43282761 67.12225671 -91.3245419 65.45581764 -89.02523804 62.22645569 C-88.11504913 61.29457932 -87.20486023 60.36270294 -86.26708984 59.40258789 C-85.77183493 58.88785195 -85.27658001 58.37311602 -84.76631737 57.84278202 C-83.19174691 56.21394313 -81.59724932 54.60657407 -80 53 C-79.00983155 51.98527032 -78.02065645 50.96957028 -77.03253174 49.95285034 C-73.95382838 46.7980479 -70.84245891 43.67660458 -67.7265625 40.55859375 C-66.58834082 39.41714706 -65.4501892 38.2756305 -64.31210327 37.13404846 C-61.95249467 34.76851891 -59.59089751 32.40499604 -57.22802734 30.04272461 C-54.2070136 27.02181347 -51.19300044 23.99401668 -48.18059731 20.96452236 C-45.84369369 18.61650086 -43.5022599 16.2730377 -41.15952682 13.93083382 C-40.04558823 12.81571988 -38.93325986 11.69899488 -37.82262039 10.58059502 C-36.27530041 9.02345556 -34.72174689 7.47280471 -33.16650391 5.92358398 C-31.84726425 4.6022068 -31.84726425 4.6022068 -30.50137329 3.25413513 C-22.46500263 -3.98791287 -9.33129378 -6.39860145 0 0 Z " fill="#B22F36" transform="translate(652,143)"/>
<path d="M0 0 C1.24523437 0.03609375 2.49046875 0.0721875 3.7734375 0.109375 C5.18496094 0.17898437 5.18496094 0.17898437 6.625 0.25 C5.35998758 3.91916536 4.02916467 6.17861296 1.1875 8.8125 C-1.3009279 11.13969067 -3.39017624 13.47610257 -5.375 16.25 C-4.78046697 5.69191344 -4.78046697 5.69191344 -1.375 1.25 C-4.34517694 1.87810173 -4.34517694 1.87810173 -7.375 3.25 C-8.81423199 5.75995496 -8.81423199 5.75995496 -9.375 8.25 C-10.138125 8.1675 -10.90125 8.085 -11.6875 8 C-14.43767634 7.93945113 -14.43767634 7.93945113 -15.75 9.875 C-16.28625 10.65875 -16.8225 11.4425 -17.375 12.25 C-18.49734073 13.2762969 -19.64599257 14.27419549 -20.8125 15.25 C-26.14097113 19.47201328 -26.14097113 19.47201328 -29.375 25.25 C-28.385 25.58 -27.395 25.91 -26.375 26.25 C-24.3671875 28.6484375 -24.3671875 28.6484375 -22.25 31.625 C-21.54617188 32.60210937 -20.84234375 33.57921875 -20.1171875 34.5859375 C-18.375 37.25 -18.375 37.25 -17.375 40.25 C-17.87128906 40.6625 -18.36757813 41.075 -18.87890625 41.5 C-23.8561566 45.73113502 -28.20119038 50.2283853 -32.375 55.25 C-33.52742188 55.01603516 -33.52742188 55.01603516 -34.703125 54.77734375 C-36.50406779 54.42189451 -38.31211373 54.10091372 -40.125 53.8125 C-41.23875 53.5340625 -41.23875 53.5340625 -42.375 53.25 C-42.705 52.59 -43.035 51.93 -43.375 51.25 C-44.365 50.92 -45.355 50.59 -46.375 50.25 C-46.705 48.6 -47.035 46.95 -47.375 45.25 C-48.365 45.25 -49.355 45.25 -50.375 45.25 C-49.715 43.93 -49.055 42.61 -48.375 41.25 C-46.725 41.91 -45.075 42.57 -43.375 43.25 C-43.375 44.57 -43.375 45.89 -43.375 47.25 C-39.415 47.58 -35.455 47.91 -31.375 48.25 C-30.715 46.93 -30.055 45.61 -29.375 44.25 C-28.818125 43.54875 -28.26125 42.8475 -27.6875 42.125 C-25.70750576 37.78786976 -26.63227537 33.8584721 -27.375 29.25 C-28.365 29.25 -29.355 29.25 -30.375 29.25 C-31.36366143 26.45563242 -31.79109816 25.12324655 -31.375 22.25 C-28.96587308 18.73496762 -25.92180205 15.95703828 -22.8125 13.0625 C-21.99974609 12.26908203 -21.18699219 11.47566406 -20.34960938 10.65820312 C-8.92976718 -0.33697235 -8.92976718 -0.33697235 0 0 Z " fill="#E2E667" transform="translate(537.375,240.75)"/>
<path d="M0 0 C1.1725131 0.95117134 2.33787015 1.91117009 3.5 2.875 C4.1496875 3.40867188 4.799375 3.94234375 5.46875 4.4921875 C6.22671875 5.23855469 6.22671875 5.23855469 7 6 C7 6.66 7 7.32 7 8 C7.99 8.33 8.98 8.66 10 9 C11.38576923 10.62332967 12.72641268 12.28724465 14 14 C11.525 13.505 11.525 13.505 9 13 C8.67 13.99 8.34 14.98 8 16 C5.38647464 18.29480275 3.4070659 19.97979079 -0.17578125 20.03125 C-2.13145764 19.78114574 -4.06928625 19.39945802 -6 19 C-7.47212909 15.56503213 -8.07401175 13.4810764 -7.5 9.75 C-6 7 -6 7 -2.875 5.625 C-1.92625 5.41875 -0.9775 5.2125 0 5 C0 3.35 0 1.7 0 0 Z " fill="#F5F5D3" transform="translate(555,245)"/>
<path d="M0 0 C3.59905908 0.55550695 4.99909799 1.74887248 7.25 4.5625 C7.77078125 5.20316406 8.2915625 5.84382813 8.828125 6.50390625 C9.21484375 6.99761719 9.6015625 7.49132812 10 8 C9.4225 8.12375 8.845 8.2475 8.25 8.375 C4.00450768 9.55430342 1.77023179 10.9972881 -0.8125 14.5625 C-3.13242544 17.37205795 -3.7581123 17.93403063 -7.4375 18.9375 C-9.2009375 18.9684375 -9.2009375 18.9684375 -11 19 C-12.2375 19.12375 -13.475 19.2475 -14.75 19.375 C-18 19 -18 19 -20 16.625 C-20.33 15.75875 -20.66 14.8925 -21 14 C-20.67 13.34 -20.34 12.68 -20 12 C-12.49230769 11.63076923 -12.49230769 11.63076923 -10 13.5 C-9.67 13.995 -9.34 14.49 -9 15 C-8.443125 14.2575 -7.88625 13.515 -7.3125 12.75 C-5 10 -5 10 -2.3125 7.9375 C0.10214369 6.21895982 0.10214369 6.21895982 0.875 3.875 C1.16485464 1.90827637 1.16485464 1.90827637 0 0 Z " fill="#E9E860" transform="translate(571,264)"/>
<path d="M0 0 C3.39417765 3.12621626 5.6062718 5.56541027 7 10 C4.36 12.31 1.72 14.62 -1 17 C-1 14 -1 14 1 11 C1.02477359 8.24612373 1.02477359 8.24612373 0.625 5.3125 C0.51414062 4.31863281 0.40328125 3.32476562 0.2890625 2.30078125 C0.19367187 1.54152344 0.09828125 0.78226562 0 0 Z M-24 11 C-21.525 11.99 -21.525 11.99 -19 13 C-19 14.32 -19 15.64 -19 17 C-13.01058548 17.98008601 -8.01316506 17.84560134 -2 17 C-3.98 19.64 -5.96 22.28 -8 25 C-9.66666667 24.66666667 -11.33333333 24.33333333 -13 24 C-14.36125 23.7834375 -14.36125 23.7834375 -15.75 23.5625 C-16.4925 23.376875 -17.235 23.19125 -18 23 C-18.33 22.34 -18.66 21.68 -19 21 C-19.99 20.67 -20.98 20.34 -22 20 C-22.33 18.35 -22.66 16.7 -23 15 C-23.99 15 -24.98 15 -26 15 C-25.34 13.68 -24.68 12.36 -24 11 Z " fill="#DEE45B" transform="translate(513,271)"/>
<path d="M0 0 C0.66 0.33 1.32 0.66 2 1 C0.66327263 4.59888139 -0.633934 7.95791514 -3 11 C-6.1875 11.8125 -6.1875 11.8125 -9 12 C-9.33 13.65 -9.66 15.3 -10 17 C-11.98 17.66 -13.96 18.32 -16 19 C-16.061875 19.721875 -16.12375 20.44375 -16.1875 21.1875 C-17.27224543 24.94238801 -19.03212965 26.50429084 -22 29 C-23.299375 29.433125 -23.299375 29.433125 -24.625 29.875 C-27.41503458 31.19659533 -27.64074063 31.87439115 -28.8125 34.625 C-29.204375 35.73875 -29.59625 36.8525 -30 38 C-30.33 38 -30.66 38 -31 38 C-31.35871421 34.38120668 -31.37124091 32.54664373 -29.296875 29.4921875 C-28.45640625 28.62851563 -27.6159375 27.76484375 -26.75 26.875 C-26.28489014 26.38999023 -25.81978027 25.90498047 -25.34057617 25.40527344 C-23.57918306 23.58418607 -21.7908475 21.79214177 -20 20 C-19.18031738 19.17338867 -18.36063477 18.34677734 -17.51611328 17.49511719 C-11.70439675 11.63609966 -5.86333854 5.8073331 0 0 Z " fill="#B4343C" transform="translate(592,176)"/>
<path d="M0 0 C2.7856426 1.3928213 3.52376361 3.30426398 5 6 C5.33 6.99 5.66 7.98 6 9 C6.66 9 7.32 9 8 9 C8 9.66 8 10.32 8 11 C8.66 11 9.32 11 10 11 C10 11.66 10 12.32 10 13 C10.66 13 11.32 13 12 13 C12 13.66 12 14.32 12 15 C12.66 15 13.32 15 14 15 C15.4453125 16.46875 15.4453125 16.46875 17.125 18.5 C19.74579747 21.57587318 22.42095222 24.55103612 25.25 27.4375 C26.21679688 28.42556641 26.21679688 28.42556641 27.203125 29.43359375 C29.02037599 31.22069205 29.02037599 31.22069205 32 32 C32.28875 32.66 32.5775 33.32 32.875 34 C33.8553382 36.29150599 33.8553382 36.29150599 36.625 36.75 C37.40875 36.8325 38.1925 36.915 39 37 C39 38.32 39 39.64 39 41 C41.97 41.495 41.97 41.495 45 42 C44.87625 42.721875 44.7525 43.44375 44.625 44.1875 C45.06001831 47.45013736 45.55561151 47.8041996 48 49.8125 C48.99 50.534375 49.98 51.25625 51 52 C50.34 52.66 49.68 53.32 49 54 C43.04823068 48.09463475 37.10192939 42.18383961 31.16247082 36.26609516 C28.40417453 33.51822217 25.64405466 30.77223503 22.87963867 28.03051758 C20.21034657 25.38300558 17.54601415 22.7305937 14.88500404 20.07475853 C13.87050649 19.06394745 12.85425438 18.05489407 11.83620262 17.04766273 C10.40720249 15.6332456 8.98507639 14.21189389 7.56323242 12.7902832 C6.7527092 11.9842012 5.94218597 11.1781192 5.10710144 10.34761047 C2.1344982 7.03570798 0 4.53684233 0 0 Z " fill="#7DB462" transform="translate(461,329)"/>
<path d="M0 0 C0.33 0.66 0.66 1.32 1 2 C0.67 2.66 0.34 3.32 0 4 C0.99 4.33 1.98 4.66 3 5 C4.10647808 7.21295616 4.19588368 8.54672699 4.25 11 C4.28867187 12.051875 4.28867187 12.051875 4.328125 13.125 C4.21984375 13.74375 4.1115625 14.3625 4 15 C1 17 1 17 -1.6875 16.625 C-2.8321875 16.315625 -2.8321875 16.315625 -4 16 C-4.33 14.35 -4.66 12.7 -5 11 C-5.61875 11.185625 -6.2375 11.37125 -6.875 11.5625 C-9 12 -9 12 -11 11 C-7.37 7.37 -3.74 3.74 0 0 Z " fill="#EAEEA8" transform="translate(503,266)"/>
<path d="M0 0 C0.721875 0.495 1.44375 0.99 2.1875 1.5 C-2.31217891 2.99989297 -5.97664763 3.63703872 -10.75 3.625 C-11.76964844 3.62757813 -12.78929687 3.63015625 -13.83984375 3.6328125 C-16.60838725 3.50911936 -19.11789535 3.12526738 -21.8125 2.5 C-22.01875 3.428125 -22.225 4.35625 -22.4375 5.3125 C-23.8125 8.5 -23.8125 8.5 -26.9375 10.375 C-28.360625 10.931875 -28.360625 10.931875 -29.8125 11.5 C-29.4825 10.18 -29.1525 8.86 -28.8125 7.5 C-27.8225 7.5 -26.8325 7.5 -25.8125 7.5 C-25.915625 6.736875 -26.01875 5.97375 -26.125 5.1875 C-26.021875 4.300625 -25.91875 3.41375 -25.8125 2.5 C-19.23658743 -2.61459867 -7.461933 -3.79359663 0 0 Z " fill="#98242E" transform="translate(649.8125,141.5)"/>
<path d="M0 0 C4.62 0 9.24 0 14 0 C12.2616731 4.34581726 11.71404536 5.64139022 8.5625 8.5625 C6.0740721 10.88969067 3.98482376 13.22610257 2 16 C2.59453303 5.44191344 2.59453303 5.44191344 6 1 C3.69 1.33 1.38 1.66 -1 2 C-0.67 1.34 -0.34 0.68 0 0 Z " fill="#ECEA7A" transform="translate(530,241)"/>
<path d="M0 0 C2.1953125 1.02734375 2.1953125 1.02734375 4.1953125 3.02734375 C4.3203125 5.65234375 4.3203125 5.65234375 4.1953125 8.02734375 C3.5765625 7.69734375 2.9578125 7.36734375 2.3203125 7.02734375 C0.28512906 5.8854114 0.28512906 5.8854114 -1.8046875 6.02734375 C-1.8046875 5.03734375 -1.8046875 4.04734375 -1.8046875 3.02734375 C-2.7946875 4.51234375 -2.7946875 4.51234375 -3.8046875 6.02734375 C-4.7946875 6.35734375 -5.7846875 6.68734375 -6.8046875 7.02734375 C-8.51757755 8.75499539 -8.51757755 8.75499539 -10.1796875 10.83984375 C-12.83849263 13.98665742 -15.54719667 16.49373977 -18.8046875 19.02734375 C-20.56792255 21.1533756 -20.56792255 21.1533756 -21.8046875 23.02734375 C-22.4646875 22.69734375 -23.1246875 22.36734375 -23.8046875 22.02734375 C-19.33993349 16.62264152 -14.53733449 11.51532499 -9.6796875 6.46484375 C-9.0820459 5.8207959 -8.4844043 5.17674805 -7.86865234 4.51318359 C-3.49634531 0.03408693 -3.49634531 0.03408693 0 0 Z " fill="#D6DC4E" transform="translate(485.8046875,285.97265625)"/>
<path d="M0 0 C4.56958375 1.97322935 7.13463296 3.92236229 10 8 C7.525 7.505 7.525 7.505 5 7 C4.67 7.99 4.34 8.98 4 10 C1.38647464 12.29480275 -0.5929341 13.97979079 -4.17578125 14.03125 C-6.13145764 13.78114574 -8.06928625 13.39945802 -10 13 C-10.33 12.01 -10.66 11.02 -11 10 C-7.04 10 -3.08 10 1 10 C0.51421457 6.87709365 0.0013988 4.00419641 -1 1 C-0.67 0.67 -0.34 0.34 0 0 Z " fill="#F3F3C5" transform="translate(559,251)"/>
<path d="M0 0 C1.77049689 -0.05410687 3.54146849 -0.09284119 5.3125 -0.125 C6.29863281 -0.14820313 7.28476562 -0.17140625 8.30078125 -0.1953125 C11 0 11 0 14 2 C13.44010697 5.99012371 12.24330232 8.5255052 9.9375 11.8125 C9.11572266 12.99779297 9.11572266 12.99779297 8.27734375 14.20703125 C7.85582031 14.79871094 7.43429687 15.39039063 7 16 C6.01 15.34 5.02 14.68 4 14 C4 12 4 12 5 11 C5 10.01 5 9.02 5 8 C6.17148276 5.55766765 7.59736658 3.32311159 9 1 C6.03 1 3.06 1 0 1 C0 0.67 0 0.34 0 0 Z " fill="#EDED9E" transform="translate(535,240)"/>
<path d="M0 0 C2.475 0.99 2.475 0.99 5 2 C5 3.32 5 4.64 5 6 C8.63 6.33 12.26 6.66 16 7 C13.97082548 10.04376178 13.27417715 10.74810874 10 12 C8.68 12 7.36 12 6 12 C5.67 11.34 5.34 10.68 5 10 C4.01 9.67 3.02 9.34 2 9 C1.67 7.35 1.34 5.7 1 4 C0.01 4 -0.98 4 -2 4 C-1.34 2.68 -0.68 1.36 0 0 Z " fill="#E3E666" transform="translate(489,282)"/>
<path d="M0 0 C2 3.75 2 3.75 2 6 C2.99 6 3.98 6 5 6 C6.96242915 10.73291737 7.38135494 14.02712223 6 19 C3.4375 21.4375 3.4375 21.4375 1 23 C1.309375 22.484375 1.61875 21.96875 1.9375 21.4375 C3.77390839 17.22456309 4.46033351 13.38100054 3 9 C2.34 9 1.68 9 1 9 C1 8.34 1 7.68 1 7 C-0.32 6.67 -1.64 6.34 -3 6 C-2.01 4.02 -1.02 2.04 0 0 Z M0 23 C0.33 23.66 0.66 24.32 1 25 C-2.69541586 25.95024979 -5.30458414 25.95024979 -9 25 C-9 24.67 -9 24.34 -9 24 C-4.545 23.505 -4.545 23.505 0 23 Z " fill="#E5E87C" transform="translate(505,264)"/>
<path d="M0 0 C2.88575819 0.39803561 3.82189513 0.79009069 5.75 3.0625 C6.36875 4.0215625 6.36875 4.0215625 7 5 C6.34 5 5.68 5 5 5 C4.67 5.99 4.34 6.98 4 8 C3.01 8.33 2.02 8.66 1 9 C0.67 9.66 0.34 10.32 0 11 C-2.06640625 11.4140625 -2.06640625 11.4140625 -4.5625 11.625 C-5.80193359 11.73714844 -5.80193359 11.73714844 -7.06640625 11.8515625 C-8.02353516 11.92503906 -8.02353516 11.92503906 -9 12 C-8.12890625 10.03515625 -8.12890625 10.03515625 -7 8 C-5.67405895 7.63837971 -4.34061543 7.30271961 -3 7 C-2.67 6.01 -2.34 5.02 -2 4 C-1.01 4 -0.02 4 1 4 C0.67 2.68 0.34 1.36 0 0 Z " fill="#EFEE97" transform="translate(566,259)"/>
<path d="M0 0 C3.33135891 0.59699131 5.21275667 1.72012281 7.75 3.9375 C8.36359375 4.46214844 8.9771875 4.98679688 9.609375 5.52734375 C11 7 11 7 11 9 C12.32 9.66 13.64 10.32 15 11 C15 11.66 15 12.32 15 13 C12.03 13 9.06 13 6 13 C6 11.02 6 9.04 6 7 C4.35 7 2.7 7 1 7 C0 4 0 4 0 0 Z " fill="#DA3637" transform="translate(682,175)"/>
<path d="M0 0 C0.33 0.66 0.66 1.32 1 2 C0.67 2.66 0.34 3.32 0 4 C0.99 4.33 1.98 4.66 3 5 C4.60725635 8.21451269 4.05748185 11.43612536 4 15 C3.01 15 2.02 15 1 15 C1.66 12.69 2.32 10.38 3 8 C0.167832 7.66551741 0.167832 7.66551741 -3 8 C-4.35308313 9.31328657 -5.68870078 10.64499081 -7 12 C-8.32 11.67 -9.64 11.34 -11 11 C-7.37 7.37 -3.74 3.74 0 0 Z " fill="#E6EA9D" transform="translate(503,266)"/>
<path d="M0 0 C0.99 0.33 1.98 0.66 3 1 C2.34 2.65 1.68 4.3 1 6 C0.236875 5.9175 -0.52625 5.835 -1.3125 5.75 C-4.06267634 5.68945113 -4.06267634 5.68945113 -5.375 7.625 C-5.91125 8.40875 -6.4475 9.1925 -7 10 C-8.10394633 10.98251223 -9.23164984 11.93863565 -10.375 12.875 C-13.70230467 15.64422172 -16.32828862 18.59964006 -19 22 C-19.33 21.01 -19.66 20.02 -20 19 C-17.23326554 16.20424541 -14.46092348 13.41411788 -11.6875 10.625 C-10.90181641 9.8309375 -10.11613281 9.036875 -9.30664062 8.21875 C-8.54931641 7.45820313 -7.79199219 6.69765625 -7.01171875 5.9140625 C-6.31522217 5.2123291 -5.61872559 4.5105957 -4.90112305 3.78759766 C-3 2 -3 2 0 0 Z " fill="#DADE57" transform="translate(527,243)"/>
<path d="M0 0 C1.98 0.495 1.98 0.495 4 1 C4 2.32 4 3.64 4 5 C6.97 5.495 6.97 5.495 10 6 C9.87625 6.721875 9.7525 7.44375 9.625 8.1875 C10.06001831 11.45013736 10.55561151 11.8041996 13 13.8125 C13.99 14.534375 14.98 15.25625 16 16 C15.34 16.66 14.68 17.32 14 18 C9.05 13.05 4.1 8.1 -1 3 C-0.67 2.01 -0.34 1.02 0 0 Z " fill="#359559" transform="translate(496,365)"/>
<path d="M0 0 C0.33 1.32 0.66 2.64 1 4 C0.01 4.33 -0.98 4.66 -2 5 C-2.0825 5.928125 -2.165 6.85625 -2.25 7.8125 C-3 11 -3 11 -4.875 12.8125 C-7 14 -7 14 -10 15 C-10 14.34 -10 13.68 -10 13 C-10.66 12.67 -11.32 12.34 -12 12 C-8.04 8.04 -4.08 4.08 0 0 Z " fill="#A43541" transform="translate(623,145)"/>
<path d="M0 0 C3.125 0.375 3.125 0.375 6 1 C6.33 1.99 6.66 2.98 7 4 C6.01 5.485 6.01 5.485 5 7 C1.875 7.1875 1.875 7.1875 -1 7 C-1.625 4.625 -1.625 4.625 -2 2 C-1.34 1.34 -0.68 0.68 0 0 Z " fill="#F9F9E7" transform="translate(553,252)"/>
<path d="M0 0 C0 3.26229641 -0.21770324 4.32655486 -2 7 C-3.98075027 8.36176581 -5.98079663 9.69593116 -8 11 C-9.99097846 13.98646769 -10.94124926 16.59687262 -12 20 C-12.33 20 -12.66 20 -13 20 C-13.54154453 15.79358435 -13.2426907 14.32629318 -10.6640625 10.859375 C-9.66599988 9.80850484 -8.6523718 8.77223494 -7.625 7.75 C-7.11710938 7.22148437 -6.60921875 6.69296875 -6.0859375 6.1484375 C-4.0837432 4.07247814 -2.03935879 2.03935879 0 0 Z " fill="#B74049" transform="translate(574,194)"/>
<path d="M0 0 C0.66 0 1.32 0 2 0 C3.55078125 1.609375 3.55078125 1.609375 5.3125 3.75 C7.99009899 6.90733548 10.66399182 9.52182249 14 12 C16.22189824 14.22189824 16.92598892 16.08482708 18 19 C13.47865782 15.28245198 9.22584239 11.35952636 5.0625 7.25 C4.31746216 6.5242981 4.31746216 6.5242981 3.55737305 5.78393555 C2.33152671 4.56151636 1.16065173 3.28448257 0 2 C0 1.34 0 0.68 0 0 Z " fill="#67A865" transform="translate(477,348)"/>
<path d="M0 0 C0.66 0.66 1.32 1.32 2 2 C2.66 1.67 3.32 1.34 4 1 C4 2.65 4 4.3 4 6 C4.804375 6.28875 5.60875 6.5775 6.4375 6.875 C9 8 9 8 10 10 C9.67 10.66 9.34 11.32 9 12 C5.55571735 10.55218207 3.63869038 8.72305391 1.25 5.875 C0.63640625 5.15054687 0.0228125 4.42609375 -0.609375 3.6796875 C-1.06828125 3.12539063 -1.5271875 2.57109375 -2 2 C-1.34 1.34 -0.68 0.68 0 0 Z " fill="#EDBC56" transform="translate(617,285)"/>
<path d="M0 0 C3.39417765 3.12621626 5.6062718 5.56541027 7 10 C4.525 11.485 4.525 11.485 2 13 C0.71553081 10.43106162 0.67022856 8.23423663 0.4375 5.375 C0.35371094 4.37210937 0.26992188 3.36921875 0.18359375 2.3359375 C0.12300781 1.56507813 0.06242188 0.79421875 0 0 Z " fill="#E3E54E" transform="translate(513,271)"/>
<path d="M0 0 C0.99 0.33 1.98 0.66 3 1 C3.33 2.65 3.66 4.3 4 6 C-1.2734375 9.22265625 -1.2734375 9.22265625 -3 10 C-3.66 9.67 -4.32 9.34 -5 9 C-4.0409375 7.88625 -4.0409375 7.88625 -3.0625 6.75 C-1.21666593 4.2888879 -0.43930826 2.96533074 0 0 Z " fill="#F0F0B1" transform="translate(549,242)"/>
<path d="M0 0 C3.25543229 0.34879632 4.01873107 1.02133261 6.25 3.5625 C6.8275 4.366875 7.405 5.17125 8 6 C4.71303767 6.79953138 3.28976808 7.09658936 0 6 C0 4.02 0 2.04 0 0 Z " fill="#D4363C" transform="translate(682,175)"/>
<path d="M0 0 C1.17539996 0.92652701 2.34010577 1.86663387 3.5 2.8125 C4.1496875 3.33457031 4.799375 3.85664063 5.46875 4.39453125 C7 6 7 6 7 9 C4.625 8.8125 4.625 8.8125 2 8 C0.8125 5.5625 0.8125 5.5625 0 3 C-0.66 2.34 -1.32 1.68 -2 1 C-1.34 0.67 -0.68 0.34 0 0 Z " fill="#CC343A" transform="translate(706,197)"/>
<path d="M0 0 C-1.98 0.66 -3.96 1.32 -6 2 C-6.33 3.65 -6.66 5.3 -7 7 C-7.66 6.67 -8.32 6.34 -9 6 C-7.54266958 1.38512035 -7.54266958 1.38512035 -5.0625 -0.375 C-3 -1 -3 -1 0 0 Z M-11 9 C-11.33 9.99 -11.66 10.98 -12 12 C-13.32 11.67 -14.64 11.34 -16 11 C-13 9 -13 9 -11 9 Z " fill="#B6252A" transform="translate(582,193)"/>
<path d="M0 0 C7.48291572 6.15034169 7.48291572 6.15034169 10 10 C8.68 10 7.36 10 6 10 C5.34 8.68 4.68 7.36 4 6 C3.01 6 2.02 6 1 6 C0.67 4.02 0.34 2.04 0 0 Z " fill="#A9232F" transform="translate(654,145)"/>
<path d="M0 0 C4.875 1.875 4.875 1.875 6 3 C6.04063832 4.66617115 6.042721 6.33388095 6 8 C5.38125 7.67 4.7625 7.34 4.125 7 C2.08981656 5.85806765 2.08981656 5.85806765 0 6 C0 4 0 2 0 0 Z " fill="#E5E545" transform="translate(484,286)"/>
<path d="M0 0 C0.99 0.33 1.98 0.66 3 1 C2.34 2.65 1.68 4.3 1 6 C-0.65 5.67 -2.3 5.34 -4 5 C-3 2 -3 2 0 0 Z " fill="#E5E454" transform="translate(527,243)"/>
<path d="M0 0 C-1.11666174 3.34998521 -1.74694925 3.79340222 -4.5625 5.6875 C-5.20316406 6.12449219 -5.84382812 6.56148437 -6.50390625 7.01171875 C-6.99761719 7.33785156 -7.49132812 7.66398438 -8 8 C-8.66 7.67 -9.32 7.34 -10 7 C-8.90536178 5.82438854 -7.79892814 4.6597511 -6.6875 3.5 C-6.07261719 2.8503125 -5.45773437 2.200625 -4.82421875 1.53125 C-3 0 -3 0 0 0 Z " fill="#AE3743" transform="translate(613,158)"/>
<path d="M0 0 C0.66 0.33 1.32 0.66 2 1 C-1.3 4.3 -4.6 7.6 -8 11 C-8 8 -8 8 -5.6875 5.5 C-4.800625 4.675 -3.91375 3.85 -3 3 C-2.401875 2.401875 -1.80375 1.80375 -1.1875 1.1875 C-0.795625 0.795625 -0.40375 0.40375 0 0 Z " fill="#383839" transform="translate(699,478)"/>
<path d="M0 0 C0.99 0.495 0.99 0.495 2 1 C2.33 1.99 2.66 2.98 3 4 C3.99 4 4.98 4 6 4 C5.67 5.32 5.34 6.64 5 8 C5.66 8.33 6.32 8.66 7 9 C6.01 9 5.02 9 4 9 C0.8217901 5.7309841 0 4.67834007 0 0 Z " fill="#D0484F" transform="translate(560,227)"/>
<path d="M0 0 C-1.36983503 3.16115776 -1.9890638 3.9927092 -5 6 C-5.33 4.68 -5.66 3.36 -6 2 C-3 0 -3 0 0 0 Z " fill="#DF5A3D" transform="translate(706,243)"/>
<path d="M0 0 C0 3.58912412 -0.66436554 4.10857029 -3 6.6875 C-3.556875 7.31011719 -4.11375 7.93273437 -4.6875 8.57421875 C-5.120625 9.04472656 -5.55375 9.51523437 -6 10 C-6.66 9.67 -7.32 9.34 -8 9 C-6.85459775 7.68712379 -5.70866567 6.37470979 -4.5625 5.0625 C-3.92441406 4.33160156 -3.28632813 3.60070312 -2.62890625 2.84765625 C-1.77458541 1.87860647 -0.91348825 0.91348825 0 0 Z " fill="#BED460" transform="translate(470,299)"/>
<path d="M0 0 C1.32 0.66 2.64 1.32 4 2 C0.535 4.97 0.535 4.97 -3 8 C-2.690625 7.236875 -2.38125 6.47375 -2.0625 5.6875 C-1.32106407 3.81210323 -0.63771783 1.91315348 0 0 Z " fill="#EFB139" transform="translate(660,285)"/>
<path d="M0 0 C-0.33 1.32 -0.66 2.64 -1 4 C-2.32 4 -3.64 4 -5 4 C-7.20067421 4.93283296 -7.20067421 4.93283296 -9 6 C-4.5 0 -4.5 0 0 0 Z " fill="#E5E67F" transform="translate(493,280)"/>
<path d="M0 0 C1.875 0.3125 1.875 0.3125 4 1 C4.66 1.99 5.32 2.98 6 4 C5.34 4 4.68 4 4 4 C4 4.66 4 5.32 4 6 C3.01 6 2.02 6 1 6 C0.67 4.02 0.34 2.04 0 0 Z " fill="#EAE975" transform="translate(571,264)"/>
<path d="M0 0 C3 1 3 1 4.1875 3.0625 C4.455625 3.701875 4.72375 4.34125 5 5 C4.01 5 3.02 5 2 5 C1.67 5.66 1.34 6.32 1 7 C0.34 5.02 -0.32 3.04 -1 1 C-0.67 0.67 -0.34 0.34 0 0 Z " fill="#CC3A3F" transform="translate(677,168)"/>
<path d="M0 0 C0.99 0.495 0.99 0.495 2 1 C2 1.66 2 2.32 2 3 C3.32 3.66 4.64 4.32 6 5 C6 5.66 6 6.32 6 7 C4.35 6.67 2.7 6.34 1 6 C0.67 4.02 0.34 2.04 0 0 Z " fill="#D55960" transform="translate(691,181)"/>
<path d="M0 0 C2.80411009 1.40205505 3.53830878 3.26727293 5 6 C5.6875 8.3125 5.6875 8.3125 6 10 C2.46413986 6.82679218 0.41421969 4.83256305 0 0 Z " fill="#85B85D" transform="translate(461,329)"/>
<path d="M0 0 C0.66 0.66 1.32 1.32 2 2 C2.66 1.67 3.32 1.34 4 1 C4 2.32 4 3.64 4 5 C2.35 4.67 0.7 4.34 -1 4 C-1.33 3.01 -1.66 2.02 -2 1 C-1.34 0.67 -0.68 0.34 0 0 Z " fill="#F0B43A" transform="translate(617,285)"/>
<path d="M0 0 C0.66 0 1.32 0 2 0 C1.875 1.875 1.875 1.875 1 4 C-2.0625 5.25 -2.0625 5.25 -5 6 C-3.38405168 3.95880212 -1.7143618 1.95927063 0 0 Z " fill="#B43B48" transform="translate(580,188)"/>
<path d="M0 0 C0.99 0 1.98 0 3 0 C3 0.99 3 1.98 3 3 C1 4.6875 1 4.6875 -1 6 C-1.33 5.01 -1.66 4.02 -2 3 C-1.34 2.01 -0.68 1.02 0 0 Z " fill="#A51E25" transform="translate(617,153)"/>
<path d="M0 0 C4.29 0 8.58 0 13 0 C13 0.33 13 0.66 13 1 C11.5899511 1.41879658 10.17145188 1.80921039 8.75 2.1875 C7.96109375 2.40792969 7.1721875 2.62835938 6.359375 2.85546875 C4 3 4 3 0 0 Z " fill="#8B161D" transform="translate(629,142)"/>
<path d="M0 0 C1.9375 0.375 1.9375 0.375 4 1 C4.33 1.66 4.66 2.32 5 3 C4.34 3 3.68 3 3 3 C2.67 3.99 2.34 4.98 2 6 C0 3 0 3 0 0 Z " fill="#ECEB8F" transform="translate(568,261)"/>
<path d="M0 0 C2.0625 1.75 2.0625 1.75 4 4 C3.75 6.25 3.75 6.25 3 8 C2.67 7.01 2.34 6.02 2 5 C1.34 5 0.68 5 0 5 C0 3.35 0 1.7 0 0 Z " fill="#C33F47" transform="translate(714,205)"/>
<path d="M0 0 C1.98 1.65 3.96 3.3 6 5 C5.34 5.66 4.68 6.32 4 7 C2 5.1875 2 5.1875 0 3 C0 2.01 0 1.02 0 0 Z " fill="#D43840" transform="translate(697,188)"/>
</svg>
