<?xml version="1.0" encoding="UTF-8"?>
<svg version="1.1" xmlns="http://www.w3.org/2000/svg" width="1280" height="720">
<path d="M0 0 C422.4 0 844.8 0 1280 0 C1280 237.6 1280 475.2 1280 720 C857.6 720 435.2 720 0 720 C0 482.4 0 244.8 0 0 Z " fill="#FEFEFE" transform="translate(0,0)"/>
<path d="M0 0 C0 0.66 0 1.32 0 2 C1.11375 1.95875 2.2275 1.9175 3.375 1.875 C8.39901336 1.85699278 13.1218197 2.88041764 18 4 C18 4.66 18 5.32 18 6 C19.98 6 21.96 6 24 6 C24.495 7.485 24.495 7.485 25 9 C68.23 9 111.46 9 156 9 C155.04277198 12.82891207 154.15134551 14.50505621 151.91015625 17.625 C151.29076172 18.49640625 150.67136719 19.3678125 150.03320312 20.265625 C149.05770508 21.61914062 149.05770508 21.61914062 148.0625 23 C146.78013676 24.78993872 145.50009571 26.58154397 144.22265625 28.375 C143.65297119 29.16648437 143.08328613 29.95796875 142.49633789 30.7734375 C141.1370372 32.79608757 140.02926353 34.79483986 139 37 C138.34 37 137.68 37 137 37 C136.75121094 37.70511719 136.50242187 38.41023438 136.24609375 39.13671875 C134.84395417 42.35856298 133.09672392 44.94692959 131.0625 47.8125 C130.24952606 48.9658119 129.43704851 50.11947382 128.625 51.2734375 C128.19703125 51.87897461 127.7690625 52.48451172 127.328125 53.10839844 C125.04243764 56.36382227 122.80697926 59.65360175 120.5625 62.9375 C117.12100797 67.96052492 113.62574751 72.93774591 110.0625 77.875 C106.08029368 83.4077284 102.23346373 89.02547462 98.4375 94.6875 C97.9122876 95.46657715 97.3870752 96.2456543 96.84594727 97.04833984 C96.11589478 98.1439624 96.11589478 98.1439624 95.37109375 99.26171875 C94.93724365 99.91100342 94.50339355 100.56028809 94.05639648 101.22924805 C92.83864876 103.12660078 92.83864876 103.12660078 92 106 C113.78 106 135.56 106 158 106 C158 119.86 158 133.72 158 148 C154.39328369 147.99476318 150.78656738 147.98952637 147.07055664 147.98413086 C135.1004845 147.96749699 123.13041314 147.95643856 111.16033268 147.94818783 C103.90904713 147.94305564 96.65777261 147.9360724 89.40649414 147.92456055 C83.07817099 147.91451882 76.74985584 147.90812426 70.42152494 147.90591151 C67.07810619 147.90462032 63.73472825 147.90109293 60.39131355 147.89426994 C35.3885804 147.15461189 35.3885804 147.15461189 10.94140625 151.234375 C-4.54111066 155.26435284 -21.19621882 154.15963415 -37 154 C-37 170.17 -37 186.34 -37 203 C-51.52 203 -66.04 203 -81 203 C-81.06797089 184.66598526 -81.12312864 166.33207404 -81.15543652 147.99796486 C-81.1708427 139.48329756 -81.1918112 130.96871466 -81.22631836 122.45410156 C-81.25641368 115.02450224 -81.27562028 107.59496409 -81.28226548 100.1653055 C-81.28614401 96.23884583 -81.29512511 92.31256106 -81.31719017 88.38615799 C-81.48708903 56.98575954 -81.48708903 56.98575954 -78 42 C-77.34 42 -76.68 42 -76 42 C-75.01 38.7 -74.02 35.4 -73 32 C-72.34 32 -71.68 32 -71 32 C-70.62875 30.66582031 -70.62875 30.66582031 -70.25 29.3046875 C-66.95805568 20.60160969 -57.77614143 12.84494793 -50 8 C-46.9175445 6.90238973 -44.26861288 6.4217565 -41 6 C-41 5.34 -41 4.68 -41 4 C-27.19996538 0.14081429 -14.28809888 -0.49677798 0 0 Z " fill="#6B3C8F" transform="translate(585,327)"/>
<path d="M0 0 C13.86 0 27.72 0 42 0 C42 14.85 42 29.7 42 45 C36.06 45 30.12 45 24 45 C24 71.4 24 97.8 24 125 C-47.28 125 -118.56 125 -192 125 C-192 91.67 -192 58.34 -192 24 C-128.64 24 -65.28 24 0 24 C0 16.08 0 8.16 0 0 Z " fill="#6C3D8F" transform="translate(382,190)"/>
<path d="M0 0 C1.39690063 -0.00833862 1.39690063 -0.00833862 2.82202148 -0.0168457 C14.95632623 0.11017529 24.6665492 3.99763176 34.5546875 10.87109375 C36.47293034 12.16748864 38.39797012 13.28460199 40.4375 14.375 C43.80959392 16.38528676 46.02087016 18.44587292 48.6875 21.3125 C49.23277344 21.80363281 49.77804687 22.29476563 50.33984375 22.80078125 C54.85235749 26.93807503 57.58004091 31.30414726 60.328125 36.76171875 C61.59518036 39.32962521 61.59518036 39.32962521 63.359375 41.39453125 C64.6875 43.3125 64.6875 43.3125 64.6875 47.3125 C65.3475 47.3125 66.0075 47.3125 66.6875 47.3125 C68.04601217 53.12701377 67.91047318 58.90357621 67.92773438 64.84790039 C67.93735396 66.84468593 67.96851161 68.8413302 68 70.83789062 C68.04687652 82.58631785 66.88420129 95.94668562 58.19140625 104.84375 C57.69511719 105.3284375 57.19882812 105.813125 56.6875 106.3125 C54.36506343 109.28273786 52.16771371 112.23908112 50.625 115.6875 C50.315625 116.22375 50.00625 116.76 49.6875 117.3125 C48.35416667 117.64583333 47.02083333 117.97916667 45.6875 118.3125 C45.26791016 119.20388672 45.26791016 119.20388672 44.83984375 120.11328125 C43.40388251 122.85377676 41.7078397 124.13946781 39.25 126 C38.46753906 126.60199219 37.68507813 127.20398438 36.87890625 127.82421875 C34.6875 129.3125 34.6875 129.3125 31.6875 130.3125 C31.3575 131.3025 31.0275 132.2925 30.6875 133.3125 C12.87707034 141.12409195 -9.09313173 142.35131366 -27.3125 135.3125 C-31.11477136 133.505845 -34.7095871 131.48292946 -38.3125 129.3125 C-39.0034375 128.99925781 -39.694375 128.68601562 -40.40625 128.36328125 C-42.70324431 127.09711021 -43.96119647 125.64618376 -45.625 123.625 C-47.88110679 120.93687276 -50.16045523 118.48988107 -52.75 116.125 C-64.10871444 104.94496197 -70.3440055 90.03297155 -70.60473633 74.40209961 C-70.6949611 59.25412206 -70.3531435 44.16798151 -61.3125 31.3125 C-60.82523438 30.59578125 -60.33796875 29.8790625 -59.8359375 29.140625 C-57.02685637 25.19350587 -54.22192372 22.21950738 -50.3125 19.3125 C-49.549375 18.52875 -48.78625 17.745 -48 16.9375 C-40.90228342 10.0048466 -33.75814992 6.38124802 -24.3125 3.3125 C-23.33796875 2.99023438 -22.3634375 2.66796875 -21.359375 2.3359375 C-14.25171002 0.34504705 -7.33415813 0.03703814 0 0 Z " fill="#6B3C8F" transform="translate(824.3125,329.6875)"/>
<path d="M0 0 C7.92832572 -0.06979429 15.8565211 -0.12295948 23.785079 -0.15543652 C27.46742616 -0.17103114 31.1495617 -0.19215433 34.83178711 -0.22631836 C38.39148575 -0.25913541 41.95098203 -0.27689956 45.51082039 -0.28463173 C47.51643174 -0.2927971 49.52196273 -0.31618017 51.52745056 -0.33988953 C58.59819709 -0.34118098 64.49511465 0.14751174 71 3 C72.08410156 3.45761719 73.16820312 3.91523438 74.28515625 4.38671875 C75.20167969 4.81597656 76.11820312 5.24523437 77.0625 5.6875 C78.00222656 6.12449219 78.94195312 6.56148438 79.91015625 7.01171875 C80.94462891 7.50091797 80.94462891 7.50091797 82 8 C82 8.66 82 9.32 82 10 C82.88558594 10.41572266 82.88558594 10.41572266 83.7890625 10.83984375 C91.15339768 14.70416804 96.79463807 21.3652475 99.81640625 29.0859375 C102.93894947 40.83368752 101.98993918 54.38147145 96 65 C95.34 65 94.68 65 94 65 C93.74605469 65.58007812 93.49210937 66.16015625 93.23046875 66.7578125 C91.87383094 69.22990807 90.29180619 70.87561972 88.3125 72.875 C85.41254432 76.00769756 85.41254432 76.00769756 84.9375 80.1875 C85.62521536 82.00792301 86.33237717 83.82116713 87.0625 85.625 C88 88 88 88 88 92 C88.66 92 89.32 92 90 92 C93.46746511 99.05836748 96.3594458 105.79370485 98.21484375 113.4375 C99.27039482 116.88248259 100.95887597 119.7245727 102.9140625 122.734375 C104 125 104 125 105 132 C91.47 132 77.94 132 64 132 C60 125 60 125 60 121 C59.34 121 58.68 121 58 121 C57.76216797 120.05640625 57.76216797 120.05640625 57.51953125 119.09375 C56.06532148 113.7589694 54.29153306 109.5870263 51.203125 105.01953125 C49.47797738 102.12374775 48.54176657 99.09868611 47.578125 95.8828125 C47.03741163 93.9373447 47.03741163 93.9373447 46 92 C45.91332745 89.37372867 45.88439865 86.77437517 45.90234375 84.1484375 C45.9037587 83.37440582 45.90517365 82.60037415 45.90663147 81.80288696 C45.91223597 79.32688558 45.92478917 76.85097412 45.9375 74.375 C45.94251442 72.69791797 45.94707743 71.02083453 45.95117188 69.34375 C45.96220685 65.22913194 45.97947446 61.11458122 46 57 C46.69867188 56.89042969 47.39734375 56.78085937 48.1171875 56.66796875 C49.02726562 56.50941406 49.93734375 56.35085938 50.875 56.1875 C51.77992188 56.03667969 52.68484375 55.88585937 53.6171875 55.73046875 C56.34412478 55.16948699 56.34412478 55.16948699 58 52 C58.66 52 59.32 52 60 52 C60.29033956 48.61915708 60.43930648 45.37154491 60 42 C53.97429403 35.4985804 49.72213627 36.74785664 40 36 C40 68.01 40 100.02 40 133 C27.13 133 14.26 133 1 133 C0 132 0 132 -0.12304783 129.81545925 C-0.12212604 128.84296765 -0.12120424 127.87047606 -0.12025452 126.86851501 C-0.12162918 125.75647202 -0.12300385 124.64442902 -0.12442017 123.49868774 C-0.12082489 122.26798553 -0.11722961 121.03728333 -0.11352539 119.76928711 C-0.11367142 118.48166977 -0.11381744 117.19405243 -0.1139679 115.86741638 C-0.11425586 112.3262524 -0.10835936 108.78512201 -0.10139394 105.24396586 C-0.09516017 101.54705012 -0.09455658 97.85013369 -0.09336853 94.1532135 C-0.09025528 87.14796101 -0.08204199 80.14272405 -0.07201904 73.13747841 C-0.0608577 65.16421124 -0.0553474 57.19094335 -0.05032361 49.21767032 C-0.03985937 32.81177111 -0.02226005 16.40588753 0 0 Z " fill="#6D3E90" transform="translate(296,333)"/>
<path d="M0 0 C1.09398165 0.00128403 1.09398165 0.00128403 2.21006393 0.00259399 C11.14006634 0.01386493 20.07003565 0.03375968 29 0.0625 C28.22142229 3.55725904 27.01040739 5.76375518 24.91015625 8.6875 C24.29076172 9.55890625 23.67136719 10.4303125 23.03320312 11.328125 C22.05770508 12.68164062 22.05770508 12.68164062 21.0625 14.0625 C19.78013676 15.85243872 18.50009571 17.64404397 17.22265625 19.4375 C16.65297119 20.22898437 16.08328613 21.02046875 15.49633789 21.8359375 C14.1370372 23.85858757 13.02926353 25.85733986 12 28.0625 C11.34 28.0625 10.68 28.0625 10 28.0625 C9.75121094 28.76761719 9.50242187 29.47273438 9.24609375 30.19921875 C7.84395417 33.42106298 6.09672392 36.00942959 4.0625 38.875 C3.24952606 40.0283119 2.43704851 41.18197382 1.625 42.3359375 C1.19703125 42.94147461 0.7690625 43.54701172 0.328125 44.17089844 C-1.95756236 47.42632227 -4.19302074 50.71610175 -6.4375 54 C-9.87899203 59.02302492 -13.37425249 64.00024591 -16.9375 68.9375 C-20.91970632 74.4702284 -24.76653627 80.08797462 -28.5625 85.75 C-29.0877124 86.52907715 -29.6129248 87.3081543 -30.15405273 88.11083984 C-30.64075439 88.84125488 -31.12745605 89.57166992 -31.62890625 90.32421875 C-32.06275635 90.97350342 -32.49660645 91.62278809 -32.94360352 92.29174805 C-34.16135124 94.18910078 -34.16135124 94.18910078 -35 97.0625 C-13.22 97.0625 8.56 97.0625 31 97.0625 C31 110.9225 31 124.7825 31 139.0625 C14.73656259 139.10760874 -1.52682163 139.1444669 -17.79030418 139.16612434 C-25.34134533 139.17644656 -32.89234491 139.19052488 -40.44335938 139.21337891 C-47.02314106 139.23328393 -53.60289266 139.24620956 -60.18270361 139.25067699 C-63.66819014 139.25328929 -67.15359055 139.25944878 -70.63904953 139.27396011 C-74.52549632 139.29001037 -78.41185809 139.29048155 -82.29833984 139.28955078 C-83.45999161 139.29674133 -84.62164337 139.30393188 -85.8184967 139.31134033 C-87.40027458 139.30721634 -87.40027458 139.30721634 -89.01400757 139.30300903 C-90.39393167 139.30577441 -90.39393167 139.30577441 -91.80173302 139.30859566 C-94 139.0625 -94 139.0625 -96 137.0625 C-95.33613281 136.54300781 -94.67226563 136.02351562 -93.98828125 135.48828125 C-76.37107956 121.5745497 -67.11505072 106.36132844 -64 84.0625 C-63.82210937 83.14082031 -63.64421875 82.21914063 -63.4609375 81.26953125 C-62.87343856 77.18193272 -62.80876429 73.18713448 -62.8125 69.0625 C-62.81258057 68.23032959 -62.81266113 67.39815918 -62.81274414 66.54077148 C-62.88467297 58.64904303 -63.29552453 50.45677747 -65.6875 42.88671875 C-66 41.0625 -66 41.0625 -64.0625 37.8125 C-63.381875 36.905 -62.70125 35.9975 -62 35.0625 C-63.03125 34.98 -64.0625 34.8975 -65.125 34.8125 C-68.06113505 33.98450992 -68.8628325 33.28593864 -70.484375 30.64453125 C-71.4464282 28.55557865 -72.40033163 26.46286052 -73.34765625 24.3671875 C-77.82587737 15.41074527 -84.85369731 8.70521085 -93 3.0625 C-92.67 2.4025 -92.34 1.7425 -92 1.0625 C-61.33001113 0.37295668 -30.67708096 -0.03626668 0 0 Z " fill="#3A3738" transform="translate(712,335.9375)"/>
<path d="M0 0 C0.83660156 0.00515625 1.67320312 0.0103125 2.53515625 0.015625 C6.28814842 0.06351007 9.62018269 0.22956122 13.25 1.25 C13.25 1.91 13.25 2.57 13.25 3.25 C14.03375 3.29125 14.8175 3.3325 15.625 3.375 C24.24528521 5.4557585 32.42727307 11.65372239 38.25 18.25 C38.25 19.24 38.25 20.23 38.25 21.25 C38.91 21.25 39.57 21.25 40.25 21.25 C40.518125 22.03375 40.78625 22.8175 41.0625 23.625 C42.09814432 26.53114923 42.09814432 26.53114923 45.25 28.25 C49.76158929 39.1279504 48.63339603 51.79203492 48.54296875 63.30078125 C48.53736277 65.41212155 48.53309742 67.52346578 48.53010559 69.6348114 C48.51873567 75.15033027 48.48933732 80.66560632 48.45599365 86.18103027 C48.42512212 91.82573158 48.41156398 97.4704727 48.39648438 103.11523438 C48.36445904 114.16027926 48.31175653 125.2050813 48.25 136.25 C35.05 136.25 21.85 136.25 8.25 136.25 C8.22421875 129.79953125 8.1984375 123.3490625 8.171875 116.703125 C8.14671229 112.61975172 8.12038389 108.53645294 8.08984375 104.453125 C8.04146678 97.97004905 7.99743815 91.48714549 7.97900391 85.00390625 C7.96387405 79.77768377 7.92949384 74.5519118 7.88169098 69.32588959 C7.86683925 67.33081729 7.85895682 65.33568068 7.85811615 63.34055328 C7.85575614 60.54848544 7.82875487 57.75767246 7.79589844 54.96582031 C7.8009288 54.13863495 7.80595917 53.31144958 7.81114197 52.459198 C7.74460062 48.81105615 7.5816053 46.68763144 5.34527588 43.73626709 C1.81822632 41.23438286 -0.51391044 41.77173182 -4.75 42.25 C-7.33012758 46.12019138 -7.04978855 49.34658638 -7.05297852 53.83642578 C-7.06563751 55.15140549 -7.06563751 55.15140549 -7.07855225 56.49295044 C-7.10436616 59.39374319 -7.11647714 62.29443421 -7.12890625 65.1953125 C-7.14507437 67.20645969 -7.16225363 69.21759898 -7.18040466 71.22872925 C-7.22613137 76.52521121 -7.26091988 81.82170355 -7.29260254 87.11828613 C-7.34444828 95.60412988 -7.40944074 104.08985803 -7.48081779 112.57555771 C-7.50373118 115.54760457 -7.51994913 118.51963655 -7.53553772 121.49172974 C-7.54893825 123.3019426 -7.56255252 125.1121539 -7.57641602 126.92236328 C-7.58033607 128.17225037 -7.58033607 128.17225037 -7.58433533 129.4473877 C-7.63636331 135.13636331 -7.63636331 135.13636331 -8.75 136.25 C-11.6343382 136.33865208 -14.49462158 136.36521296 -17.37890625 136.34765625 C-18.67525246 136.34553383 -18.67525246 136.34553383 -19.99778748 136.34336853 C-22.76939292 136.33775239 -25.5409188 136.32519719 -28.3125 136.3125 C-30.1868478 136.30748708 -32.06119685 136.30292381 -33.93554688 136.29882812 C-38.54039544 136.28777772 -43.14518421 136.2705023 -47.75 136.25 C-47.86626275 123.82739115 -47.95490201 111.40491346 -48.00906086 98.9818697 C-48.03506504 93.2122445 -48.07029468 87.44299375 -48.12719727 81.67358398 C-48.18184517 76.09737191 -48.21148944 70.52151819 -48.22438622 64.94505882 C-48.2335675 62.82614699 -48.25149536 60.70725297 -48.27865028 58.58849525 C-48.47510789 42.61289194 -46.8817516 29.41236352 -36.75 16.25 C-36.09 16.25 -35.43 16.25 -34.75 16.25 C-34.48445312 15.65574219 -34.21890625 15.06148438 -33.9453125 14.44921875 C-31.98212403 10.83720859 -29.22024412 8.41806354 -25.75 6.25 C-22.9769116 5.49986265 -20.64912016 5.35172351 -17.75 5.25 C-17.75 4.59 -17.75 3.93 -17.75 3.25 C-11.58877409 0.55268912 -6.6880871 -0.16798963 0 0 Z " fill="#6C3C8F" transform="translate(957.75,329.75)"/>
<path d="M0 0 C0.90878906 0.40089844 1.81757813 0.80179687 2.75390625 1.21484375 C10.60028795 5.06548626 17.05481638 10.65017038 23 17 C23 17.66 23 18.32 23 19 C23.66 19 24.32 19 25 19 C25.46246708 20.33190519 25.91969155 21.6656307 26.375 23 C26.63023437 23.7425 26.88546875 24.485 27.1484375 25.25 C31.03704546 37.80770644 32.70120588 52.19336241 26.6796875 64.35546875 C20.51496919 74.06131594 11.97940209 82.76982918 0.5625 85.54296875 C-7.57962304 86.58751743 -15.81261206 86.1564469 -24 86 C-24 74.45 -24 62.9 -24 51 C-20.7 50.01 -17.4 49.02 -14 48 C-13.67 47.67 -13.34 47.34 -13 47 C-12.98717749 44.69750294 -12.98717749 44.69750294 -13.25 42.0625 C-13.31703125 41.16660156 -13.3840625 40.27070313 -13.453125 39.34765625 C-13.80205481 36.63759582 -13.80205481 36.63759582 -17 35 C-18.94667205 34.57478937 -18.94667205 34.57478937 -21 34.5625 C-21.680625 34.52253906 -22.36125 34.48257813 -23.0625 34.44140625 C-25.19473477 34.8557239 -25.19473477 34.8557239 -26.59407043 36.97160339 C-28.495645 41.06762791 -28.43997933 44.54861172 -28.43237305 49.01293945 C-28.4425647 49.91099808 -28.45275635 50.8090567 -28.46325684 51.73432922 C-28.49338031 54.69404342 -28.50265186 57.65343391 -28.51171875 60.61328125 C-28.5285659 62.66880875 -28.54671619 64.72432594 -28.56611633 66.77983093 C-28.61361843 72.18353049 -28.64342655 77.58718829 -28.66955566 82.99102783 C-28.70460243 89.4781367 -28.76161584 95.96508517 -28.81494904 102.45206451 C-28.89346539 112.30135607 -28.94406945 122.15043762 -29 132 C-42.2 132 -55.4 132 -69 132 C-69.04521262 119.4736685 -69.08189426 106.94739135 -69.10362434 94.42099667 C-69.1140545 88.60428265 -69.1281998 82.78762744 -69.15087891 76.97094727 C-69.17263449 71.35589076 -69.18457441 65.74089077 -69.18975449 60.12579536 C-69.19344535 57.98522617 -69.20065266 55.84466001 -69.21146011 53.70411491 C-69.22601097 50.70233387 -69.22797642 47.70078533 -69.22705078 44.69897461 C-69.23424133 43.8171199 -69.24143188 42.9352652 -69.24884033 42.02668762 C-69.23198191 36.96304846 -68.63510613 32.79980563 -67 28 C-66.34 28 -65.68 28 -65 28 C-65 27.01 -65 26.02 -65 25 C-64.34 25 -63.68 25 -63 25 C-62.87625 24.443125 -62.7525 23.88625 -62.625 23.3125 C-59.53624711 11.88411432 -50.59361463 5.93864721 -41 0 C-28.7253573 -6.89349561 -12.47979117 -5.71169782 0 0 Z " fill="#6C3D90" transform="translate(249,334)"/>
<path d="M0 0 C1.41100983 0.0001133 1.41100983 0.0001133 2.8505249 0.00022888 C3.85794739 0.00539017 4.86536987 0.01055145 5.90332031 0.01586914 C6.94087463 0.01728409 7.97842896 0.01869904 9.04742432 0.02015686 C12.35879407 0.02575092 15.67009602 0.03830236 18.98144531 0.05102539 C21.22753809 0.05604116 23.47363192 0.06060393 25.71972656 0.06469727 C31.2236799 0.07486717 36.72748678 0.09444387 42.23144531 0.11352539 C42.23144531 12.98352539 42.23144531 25.85352539 42.23144531 39.11352539 C27.41894531 39.55102539 27.41894531 39.55102539 22.75561523 39.68164062 C21.54494385 39.71974854 20.33427246 39.75785645 19.08691406 39.79711914 C17.22522583 39.85210571 17.22522583 39.85210571 15.32592773 39.90820312 C12.19591184 39.9849666 12.19591184 39.9849666 9.23144531 41.11352539 C8.90144531 43.42352539 8.57144531 45.73352539 8.23144531 48.11352539 C11.81566827 50.50300736 13.60377128 50.41585708 17.86816406 50.52758789 C19.16689453 50.56625977 20.465625 50.60493164 21.80371094 50.64477539 C23.17545104 50.67623056 24.54719592 50.7074779 25.91894531 50.73852539 C27.30243316 50.77671736 28.68589754 50.81576981 30.06933594 50.85571289 C33.45656981 50.95013056 36.843796 51.03570657 40.23144531 51.11352539 C40.25610153 55.36767162 40.2742843 59.62178037 40.28637695 63.87597656 C40.29141632 65.32422612 40.29824784 66.77247056 40.30688477 68.22070312 C40.31896778 70.29827127 40.32467743 72.37577236 40.32910156 74.45336914 C40.33433838 75.70496826 40.3395752 76.95656738 40.3449707 78.24609375 C40.23144531 81.11352539 40.23144531 81.11352539 39.23144531 82.11352539 C37.14528623 82.23555172 35.05531293 82.2933063 32.96582031 82.32446289 C31.68320312 82.35282227 30.40058594 82.38118164 29.07910156 82.41040039 C27.03402276 82.45154689 24.98917196 82.48842541 22.94384766 82.51489258 C20.97178054 82.54263449 19.00001364 82.58959488 17.02832031 82.63696289 C15.25473145 82.66669189 15.25473145 82.66669189 13.4453125 82.69702148 C9.9492177 83.15010092 8.0062883 83.96298979 5.23144531 86.11352539 C4.75765412 89.27213332 5.2172101 91.07081974 6.23144531 94.11352539 C18.11144531 94.44352539 29.99144531 94.77352539 42.23144531 95.11352539 C42.23144531 107.65352539 42.23144531 120.19352539 42.23144531 133.11352539 C36.82729352 133.18313994 31.42475414 133.24264087 26.02050781 133.27832031 C24.18972445 133.29322427 22.35897559 133.31355454 20.52832031 133.33984375 C-10.1674745 133.76897904 -10.1674745 133.76897904 -20.14355469 125.23852539 C-23.36612188 122.05490161 -25.36012264 119.43168518 -26.76855469 115.11352539 C-27.42855469 115.11352539 -28.08855469 115.11352539 -28.76855469 115.11352539 C-35.02679911 107.14697392 -34.46730426 98.56072823 -34.36230469 88.96118164 C-34.36059033 87.29406318 -34.36066257 85.62694202 -34.36242676 83.95982361 C-34.36077964 80.4773454 -34.34219687 76.99551566 -34.31054688 73.51318359 C-34.27090225 69.0739001 -34.26650205 64.63546518 -34.2740097 60.19603825 C-34.27709584 56.75650919 -34.2649003 53.31716694 -34.24787903 49.87768364 C-34.24090196 48.24201061 -34.23771799 46.60631643 -34.23857117 44.97062874 C-34.22194623 23.99859088 -34.22194623 23.99859088 -28.26855469 17.30102539 C-27.44355469 16.57915039 -26.61855469 15.85727539 -25.76855469 15.11352539 C-25.11886719 13.90696289 -25.11886719 13.90696289 -24.45605469 12.67602539 C-20.6196249 6.85033572 -13.50369779 2.54663069 -6.89471436 0.54640198 C-4.54119606 0.06723619 -2.40171929 -0.00645623 0 0 Z " fill="#6C3D8F" transform="translate(448.7685546875,332.886474609375)"/>
<path d="M0 0 C1.51030289 0.00848969 1.51030289 0.00848969 3.05111694 0.01715088 C6.22989852 0.03933108 9.40750344 0.0894922 12.5859375 0.140625 C14.756494 0.16071375 16.92706838 0.17896032 19.09765625 0.1953125 C24.38622166 0.23571407 29.67228105 0.31403947 34.9609375 0.390625 C34.9609375 13.260625 34.9609375 26.130625 34.9609375 39.390625 C19.7109375 39.828125 19.7109375 39.828125 14.91699219 39.95874023 C13.04382324 40.0159021 13.04382324 40.0159021 11.1328125 40.07421875 C9.8550293 40.11087646 8.57724609 40.14753418 7.26074219 40.18530273 C3.8096583 40.29965616 3.8096583 40.29965616 -0.0390625 41.390625 C-0.0390625 44.360625 -0.0390625 47.330625 -0.0390625 50.390625 C3.32644873 51.51246208 6.05153982 51.59863468 9.59765625 51.70703125 C11.35275513 51.76419312 11.35275513 51.76419312 13.14331055 51.82250977 C14.63000244 51.86561279 16.11669434 51.90871582 17.6484375 51.953125 C22.3715625 52.0975 27.0946875 52.241875 31.9609375 52.390625 C31.9609375 61.960625 31.9609375 71.530625 31.9609375 81.390625 C28.76470703 81.46410156 28.76470703 81.46410156 25.50390625 81.5390625 C23.4386497 81.59308353 21.37350848 81.65038646 19.30834961 81.70800781 C17.87386682 81.74627366 16.43928885 81.78113081 15.00463867 81.8125 C12.94154872 81.85820362 10.87911255 81.91618693 8.81640625 81.9765625 C7.57528076 82.0079834 6.33415527 82.0394043 5.05541992 82.07177734 C1.79457649 82.16461709 1.79457649 82.16461709 -1.0390625 84.390625 C-1.51020988 87.1333758 -1.21712034 89.58621397 -1.0390625 92.390625 C0.96810093 94.39778843 4.95866603 93.64653231 7.71484375 93.70703125 C8.40187378 93.72568237 9.08890381 93.7443335 9.79675293 93.7635498 C12.37217908 93.83203688 14.94782457 93.89206447 17.5234375 93.953125 C26.155 94.1696875 26.155 94.1696875 34.9609375 94.390625 C34.9609375 107.260625 34.9609375 120.130625 34.9609375 133.390625 C28.89563902 133.45986942 22.83173768 133.51949041 16.76635742 133.55541992 C14.70739061 133.57041357 12.64845523 133.59081533 10.58959961 133.61694336 C-11.37774735 133.88853965 -11.37774735 133.88853965 -20.0390625 130.390625 C-20.0390625 129.730625 -20.0390625 129.070625 -20.0390625 128.390625 C-20.5753125 128.32875 -21.1115625 128.266875 -21.6640625 128.203125 C-27.42304551 126.2329466 -32.77627918 120.45061356 -36.0390625 115.390625 C-36.76813963 112.94607228 -36.93397119 110.96536212 -37.0390625 108.390625 C-37.6990625 108.390625 -38.3590625 108.390625 -39.0390625 108.390625 C-40.02680258 104.25269894 -40.18961465 100.34547058 -40.23193359 96.09692383 C-40.24011108 95.38073883 -40.24828857 94.66455383 -40.25671387 93.92666626 C-40.28143361 91.56700447 -40.29805074 89.20740236 -40.3125 86.84765625 C-40.31782368 86.03728094 -40.32314735 85.22690563 -40.32863235 84.3919735 C-40.35530784 80.10108768 -40.37469908 75.81023038 -40.38916016 71.51928711 C-40.40248297 67.98386673 -40.4303125 64.44902576 -40.47119141 60.91381836 C-40.52072877 56.62858068 -40.54530652 52.34386706 -40.55238724 48.05835533 C-40.55906379 46.43377641 -40.57419116 44.80920754 -40.59827805 43.18479347 C-40.7280013 33.90583774 -40.41468945 26.34494154 -35.0390625 18.390625 C-34.30869278 17.26905754 -34.30869278 17.26905754 -33.56356812 16.12483215 C-25.65549098 4.38870851 -13.77607 -0.2979411 0 0 Z " fill="#6A3B8E" transform="translate(1071.0390625,332.609375)"/>
<path d="M0 0 C5.69003751 5.2729107 8.80354926 11.57136608 9.66796875 19.26171875 C10.03815811 31.01893295 5.79188234 38.29982992 -1.671875 47.23828125 C-2.661875 47.89828125 -3.651875 48.55828125 -4.671875 49.23828125 C-5.001875 50.22828125 -5.331875 51.21828125 -5.671875 52.23828125 C-13.26345737 55.89850846 -21.45440238 56.41479336 -29.421875 53.92578125 C-35.89277723 51.48519875 -39.61239807 48.43575366 -44.03125 43.15234375 C-45.69440494 41.12583667 -45.69440494 41.12583667 -47.984375 39.17578125 C-52.80930126 33.6360511 -52.24130966 25.10286467 -52.046875 18.125 C-51.26751687 10.04727775 -46.9996162 5.11953805 -41.41796875 -0.44921875 C-39.50340014 -1.88835757 -38.01285789 -2.35191868 -35.671875 -2.76171875 C-35.671875 -3.42171875 -35.671875 -4.08171875 -35.671875 -4.76171875 C-34.34149051 -5.10663325 -33.00730439 -5.43688457 -31.671875 -5.76171875 C-30.558125 -6.04015625 -30.558125 -6.04015625 -29.421875 -6.32421875 C-19.37271266 -7.92294912 -8.52923442 -5.62380808 0 0 Z " fill="#FBFAFC" transform="translate(843.671875,375.76171875)"/>
<path d="M0 0 C4 4.44444444 4 4.44444444 4 7 C4.66 7 5.32 7 6 7 C9.25049655 13.15611283 9.48646529 18.48424883 9.4375 25.375 C9.4674707 26.86 9.4674707 26.86 9.49804688 28.375 C9.49293163 36.12971748 8.29217312 42.68569463 2.67578125 48.33984375 C1.89589844 48.86707031 1.11601563 49.39429688 0.3125 49.9375 C-2.88612763 51.99513901 -2.88612763 51.99513901 -5 55 C-13.18863773 58.71230228 -21.27692993 58.34694591 -30.0625 58.1875 C-31.51496005 58.17242256 -32.96743527 58.15873958 -34.41992188 58.14648438 C-37.94693457 58.11372861 -41.47336785 58.06211664 -45 58 C-45.07462464 52.46820973 -45.12882498 46.93671795 -45.16479492 41.40454102 C-45.17980333 39.5259083 -45.20021652 37.64731016 -45.22631836 35.76879883 C-45.26305386 33.05541407 -45.27980607 30.3424959 -45.29296875 27.62890625 C-45.30845261 26.80040665 -45.32393646 25.97190704 -45.33988953 25.11830139 C-45.34237725 16.33358442 -42.56557799 9.39938501 -38 2 C-37.34 2 -36.68 2 -36 2 C-36 1.34 -36 0.68 -36 0 C-34.68 -0.33 -33.36 -0.66 -32 -1 C-32 -1.66 -32 -2.32 -32 -3 C-21.09504535 -6.96543806 -10.04543724 -5.60385962 0 0 Z " fill="#FDFCFD" transform="translate(593,378)"/>
<path d="M0 0 C13.86 0 27.72 0 42 0 C42 14.85 42 29.7 42 45 C27.81 45 13.62 45 -1 45 C-1 20.85648148 -1 20.85648148 -0.5 10.6875 C-0.335 7.160625 -0.17 3.63375 0 0 Z " fill="#252022" transform="translate(382,190)"/>
<path d="M0 0 C1.3303125 0.00773438 1.3303125 0.00773438 2.6875 0.015625 C3.574375 0.01046875 4.46125 0.0053125 5.375 0 C7.6875 0.265625 7.6875 0.265625 9.6875 2.265625 C10.32259387 4.83804651 10.85236661 7.34961514 11.3125 9.953125 C11.4465625 10.64857422 11.580625 11.34402344 11.71875 12.06054688 C12.53721437 16.53287005 12.818542 20.72085015 12.6875 25.265625 C13.3475 25.265625 14.0075 25.265625 14.6875 25.265625 C15.6775 31.535625 16.6675 37.805625 17.6875 44.265625 C20.76662588 41.18649912 22.49229562 39.23368921 24.5703125 35.625 C25.09326904 34.72620117 25.61622559 33.82740234 26.1550293 32.90136719 C26.70199463 31.94907227 27.24895996 30.99677734 27.8125 30.015625 C28.96590373 28.03555803 30.12086688 26.05639865 31.27734375 24.078125 C31.84952637 23.0984375 32.42170898 22.11875 33.01123047 21.109375 C35.40873715 17.04206393 37.87429253 13.02012996 40.375 9.015625 C40.78443848 8.35530273 41.19387695 7.69498047 41.61572266 7.01464844 C43.16786048 4.53995745 44.61468009 2.33844491 46.6875 0.265625 C49.2890625 0.0703125 49.2890625 0.0703125 52.3125 0.140625 C53.31539063 0.15867188 54.31828125 0.17671875 55.3515625 0.1953125 C56.12242187 0.21851563 56.89328125 0.24171875 57.6875 0.265625 C58.87877531 4.622527 58.45429687 8.14519763 57.75 12.578125 C57.55535156 13.83238281 57.36070312 15.08664063 57.16015625 16.37890625 C56.92619141 17.80783203 56.92619141 17.80783203 56.6875 19.265625 C56.0275 19.265625 55.3675 19.265625 54.6875 19.265625 C54.71070313 19.84570312 54.73390625 20.42578125 54.7578125 21.0234375 C54.77585937 21.80460937 54.79390625 22.58578125 54.8125 23.390625 C54.83570313 24.15632813 54.85890625 24.92203125 54.8828125 25.7109375 C54.6464152 28.80301418 53.68507788 31.33051318 52.6875 34.265625 C52.17209733 36.86962279 51.69248783 39.46243337 51.25 42.078125 C50.19586118 48.03219659 48.81699688 53.58696666 46.6875 59.265625 C44.3775 59.265625 42.0675 59.265625 39.6875 59.265625 C39.47698914 55.05540782 40.10666086 51.59411664 41.16162109 47.53564453 C42.08432334 43.55268936 42.53107111 39.50328659 43.0625 35.453125 C43.99274606 28.73611964 45.20244138 22.62441194 47.91796875 16.359375 C48.91748327 14.011665 48.91748327 14.011665 48.6875 10.265625 C48.0275 10.265625 47.3675 10.265625 46.6875 10.265625 C46.30851562 11.29042969 46.30851562 11.29042969 45.921875 12.3359375 C44.48628967 15.74318116 42.75704219 18.92896911 40.9375 22.140625 C40.55916016 22.81391846 40.18082031 23.48721191 39.79101562 24.1809082 C37.28474489 28.59294799 34.6788162 32.93479158 32.015625 37.25390625 C31.38366211 38.2795166 30.75169922 39.30512695 30.10058594 40.36181641 C28.84016945 42.39849247 27.57274716 44.43085206 26.29785156 46.45849609 C25.71487305 47.39902832 25.13189453 48.33956055 24.53125 49.30859375 C23.74524414 50.56192505 23.74524414 50.56192505 22.94335938 51.84057617 C21.64845297 54.34102433 21.23156479 56.52540348 20.6875 59.265625 C17.97870665 60.62002168 15.67816732 60.33063951 12.6875 60.265625 C9.45516885 50.14702313 7.16840834 40.19626968 5.875 29.640625 C5.7514917 28.63451172 5.6279834 27.62839844 5.50073242 26.59179688 C4.87799798 21.11283031 4.56309705 15.77863992 4.6875 10.265625 C3.6975 10.265625 2.7075 10.265625 1.6875 10.265625 C1.73519531 11.22726563 1.78289062 12.18890625 1.83203125 13.1796875 C1.82849434 17.87905745 0.60796069 22.13437939 -0.625 26.640625 C-2.55996443 33.98557809 -4.16335293 41.2892292 -5.32348633 48.79638672 C-5.91820557 52.52786752 -6.75199514 55.81923342 -8.3125 59.265625 C-10.2925 59.265625 -12.2725 59.265625 -14.3125 59.265625 C-14.355221 57.59950595 -14.35313832 55.93179615 -14.3125 54.265625 C-13.8175 53.770625 -13.8175 53.770625 -13.3125 53.265625 C-13.01401 51.41716057 -12.77357178 49.55924603 -12.55859375 47.69921875 C-12.36040039 46.0121582 -12.36040039 46.0121582 -12.15820312 44.29101562 C-12.02349609 43.10701172 -11.88878906 41.92300781 -11.75 40.703125 C-11.54213867 38.92131836 -11.54213867 38.92131836 -11.33007812 37.10351562 C-10.98702352 34.15797778 -10.64801453 31.21202967 -10.3125 28.265625 C-9.6525 28.265625 -8.9925 28.265625 -8.3125 28.265625 C-8.27511719 27.39421875 -8.23773438 26.5228125 -8.19921875 25.625 C-6.8281419 0.7843136 -6.8281419 0.7843136 0 0 Z " fill="#EFEAF2" transform="translate(249.3125,238.734375)"/>
<path d="M0 0 C5.28 0 10.56 0 16 0 C16 0.66 16 1.32 16 2 C16.78375 2.103125 17.5675 2.20625 18.375 2.3125 C21 3 21 3 23 6 C23.78776171 13.38654488 23.75317322 21.39055157 20 28 C18.12392737 29.98844156 16.24041043 31.39274904 14 33 C13.67 33.66 13.34 34.32 13 35 C6.50496041 37.48746197 -0.05686831 37.77148229 -6.875 36.4375 C-10.10957524 34.24940498 -11.75961255 31.62113111 -13 28 C-13.97749992 21.3204172 -12.72629435 16.08173356 -10 10 C-9.731875 9.2575 -9.46375 8.515 -9.1875 7.75 C-7.3271863 5.00848507 -4.82447575 3.64761085 -2 2 C-1.34 2 -0.68 2 0 2 C0 1.34 0 0.68 0 0 Z " fill="#794E99" transform="translate(993,486)"/>
<path d="M0 0 C5.94 0 11.88 0 18 0 C18 0.66 18 1.32 18 2 C19.175625 2.185625 19.175625 2.185625 20.375 2.375 C23 3 23 3 25 5 C25.34474066 8.00416862 25.57141506 10.09810786 25 13 C22.5625 15.6875 22.5625 15.6875 20 18 C18.69776628 21.72066779 19.20888488 24.22022774 20 28 C20.08977729 30.67336811 20.04535696 33.32393913 20 36 C17.66705225 36.04241723 15.33297433 36.04092937 13 36 C11.26394487 34.26394487 11.34388018 31.79450504 10.9375 29.4375 C10.76089844 28.42558594 10.58429687 27.41367187 10.40234375 26.37109375 C10.26957031 25.58863281 10.13679687 24.80617188 10 24 C7.69 23.34 5.38 22.68 3 22 C3.061875 23.794375 3.061875 23.794375 3.125 25.625 C3.13851708 29.42329953 2.42009753 32.44975618 1 36 C-1.64 36 -4.28 36 -7 36 C-6.63347375 28.37625394 -4.90284805 21.22469233 -2.98828125 13.875 C-1.8146185 9.27312866 -0.87498616 4.66659287 0 0 Z " fill="#774B97" transform="translate(746,486)"/>
<path d="M0 0 C2.64 0 5.28 0 8 0 C8 0.99 8 1.98 8 3 C7.34 3 6.68 3 6 3 C5.731875 3.928125 5.46375 4.85625 5.1875 5.8125 C4.01393662 8.96259117 3.30691739 9.77856341 1 12 C0.1069938 13.19675549 -0.75649807 14.41594051 -1.59375 15.65234375 C-2.06683594 16.34650391 -2.53992188 17.04066406 -3.02734375 17.75585938 C-3.51332031 18.47580078 -3.99929688 19.19574219 -4.5 19.9375 C-5.46798464 21.36380098 -6.43671282 22.78959767 -7.40625 24.21484375 C-7.83228516 24.84511475 -8.25832031 25.47538574 -8.69726562 26.12475586 C-10 28 -10 28 -11.57763672 29.92236328 C-13.20819355 32.30410696 -13.74461817 34.21311562 -14.3515625 37.02734375 C-14.56296875 37.98447266 -14.774375 38.94160156 -14.9921875 39.92773438 C-15.20101563 40.92095703 -15.40984375 41.91417969 -15.625 42.9375 C-15.8415625 43.92685547 -16.058125 44.91621094 -16.28125 45.93554688 C-17.46235211 51.3285442 -17.46235211 51.3285442 -18.44287109 56.76000977 C-18.62672363 57.49920654 -18.81057617 58.23840332 -19 59 C-21.70879335 60.35439668 -24.00933268 60.06501451 -27 60 C-28.37729031 55.45494198 -27.45472571 52.44499522 -26 48 C-22.7430746 36.92645363 -25.90697905 26.4835017 -29.36669922 15.94848633 C-31.03719601 10.80884297 -32.26492263 6.43091395 -32 1 C-29.69 1 -27.38 1 -25 1 C-21.69642306 8.93110647 -19.14554614 16.4682459 -18 25 C-17.34 25 -16.68 25 -16 25 C-15.62875 24.195625 -15.2575 23.39125 -14.875 22.5625 C-9.125 11.0625 -9.125 11.0625 -5 9 C-3.94647157 6.69034152 -2.94280904 4.3570226 -2 2 C-1.34 2 -0.68 2 0 2 C0 1.34 0 0.68 0 0 Z " fill="#F0ECF4" transform="translate(350,239)"/>
<path d="M0 0 C2.93756119 -0.0269501 5.87487555 -0.04681474 8.8125 -0.0625 C9.64587891 -0.07087891 10.47925781 -0.07925781 11.33789062 -0.08789062 C12.14033203 -0.09111328 12.94277344 -0.09433594 13.76953125 -0.09765625 C14.87711792 -0.10551147 14.87711792 -0.10551147 16.00708008 -0.11352539 C18.65258232 0.03717393 20.53540906 0.64465966 22.64453125 2.2578125 C24.91753737 5.17931316 24.70477013 7.96366842 24.63671875 11.5546875 C23.8183705 14.69754641 22.7566293 15.37041737 20 17 C19.2575 17.350625 18.515 17.70125 17.75 18.0625 C16.88375 18.5265625 16.88375 18.5265625 16 19 C16 19.66 16 20.32 16 21 C16.66 21.33 17.32 21.66 18 22 C19.50715738 26.50286525 20.30618964 31.25406051 20 36 C17.36 36 14.72 36 12 36 C11.87882813 35.22914063 11.75765625 34.45828125 11.6328125 33.6640625 C11.46523438 32.66117188 11.29765625 31.65828125 11.125 30.625 C10.88136719 29.12839844 10.88136719 29.12839844 10.6328125 27.6015625 C10.2041198 24.8574885 10.2041198 24.8574885 8 23 C6.01178687 22.60235737 4.01055661 22.26224651 2 22 C1.95101562 22.67546875 1.90203125 23.3509375 1.8515625 24.046875 C1.77679687 24.93890625 1.70203125 25.8309375 1.625 26.75 C1.55539062 27.63171875 1.48578125 28.5134375 1.4140625 29.421875 C1.00149945 31.99066382 0.28839043 33.75841015 -1 36 C-2.98 36 -4.96 36 -7 36 C-6.60740693 31.87234521 -6.18150392 27.748754 -5.75 23.625 C-5.58564453 21.89056641 -5.58564453 21.89056641 -5.41796875 20.12109375 C-4.63497267 12.82686707 -3.15883353 6.63430884 0 0 Z " fill="#764B97" transform="translate(875,486)"/>
<path d="M0 0 C1.134375 0.020625 2.26875 0.04125 3.4375 0.0625 C2.93535514 3.77837198 2.10802556 7.28408498 1.0625 10.875 C-0.57241082 16.6490265 -1.56789593 22.4748322 -2.47216797 28.3996582 C-3.35089753 33.85089753 -3.35089753 33.85089753 -5.5625 36.0625 C-9.0625 36.3125 -9.0625 36.3125 -12.5625 36.0625 C-14.98029574 33.64470426 -15.42292884 31.81583563 -16.4375 28.5625 C-18.24009115 22.95142679 -20.29986256 17.5024581 -22.5625 12.0625 C-24.70514967 18.51901767 -26.14389671 24.86218288 -27.1328125 31.59375 C-27.5625 34.0625 -27.5625 34.0625 -28.5625 36.0625 C-30.8725 36.0625 -33.1825 36.0625 -35.5625 36.0625 C-34.73365887 29.60674852 -33.48064318 23.25219715 -32.1875 16.875 C-31.87425781 15.25561523 -31.87425781 15.25561523 -31.5546875 13.60351562 C-31.34328125 12.56517578 -31.131875 11.52683594 -30.9140625 10.45703125 C-30.72666504 9.51706299 -30.53926758 8.57709473 -30.34619141 7.60864258 C-29.48706223 4.81740952 -28.60187631 3.15131756 -26.5625 1.0625 C-21.6015649 0.27504998 -21.6015649 0.27504998 -18.5625 1.0625 C-14.79960009 4.92709991 -13.62359029 9.5965002 -12.2734375 14.6953125 C-11.58492159 16.98784351 -10.69617636 18.95986949 -9.5625 21.0625 C-7.65501543 15.08571502 -6.09120977 9.17568386 -4.9921875 2.99609375 C-4.2302688 -0.43254039 -3.76374712 0.06603065 0 0 Z " fill="#774B98" transform="translate(1054.5625,485.9375)"/>
<path d="M0 0 C2.36856271 -0.05322613 4.48458019 -0.02128482 6.80859375 0.4453125 C9.40487147 3.04159022 9.35168542 4.68945376 9.87890625 8.30078125 C10.05292969 9.48091797 10.22695313 10.66105469 10.40625 11.87695312 C10.58027344 13.11638672 10.75429688 14.35582031 10.93359375 15.6328125 C11.11535156 16.85291016 11.29710937 18.07300781 11.484375 19.33007812 C12.31479784 25.07747834 13.06679296 30.63583022 12.80859375 36.4453125 C10.16859375 36.4453125 7.52859375 36.4453125 4.80859375 36.4453125 C4.47859375 33.8053125 4.14859375 31.1653125 3.80859375 28.4453125 C-0.81140625 28.4453125 -5.43140625 28.4453125 -10.19140625 28.4453125 C-10.19140625 29.4353125 -10.19140625 30.4253125 -10.19140625 31.4453125 C-10.85140625 31.4453125 -11.51140625 31.4453125 -12.19140625 31.4453125 C-13.18140625 33.9203125 -13.18140625 33.9203125 -14.19140625 36.4453125 C-16.83140625 36.4453125 -19.47140625 36.4453125 -22.19140625 36.4453125 C-21.61753018 31.85430393 -19.64635378 28.35361159 -17.31640625 24.4453125 C-16.96449219 23.84203125 -16.61257813 23.23875 -16.25 22.6171875 C-15.23894438 20.88824481 -14.21542008 19.16661201 -13.19140625 17.4453125 C-12.38316406 15.99125 -12.38316406 15.99125 -11.55859375 14.5078125 C-11.10742188 13.8271875 -10.65625 13.1465625 -10.19140625 12.4453125 C-9.53140625 12.4453125 -8.87140625 12.4453125 -8.19140625 12.4453125 C-7.82015625 11.1459375 -7.82015625 11.1459375 -7.44140625 9.8203125 C-4.11387359 0.83597431 -4.11387359 0.83597431 0 0 Z " fill="#784C98" transform="translate(920.19140625,485.5546875)"/>
<path d="M0 0 C4.31860269 0.44360269 4.31860269 0.44360269 5.625 1.75 C5.86178716 4.44235776 6.04698025 7.11498156 6.1875 9.8125 C6.23068359 10.57111328 6.27386719 11.32972656 6.31835938 12.11132812 C6.42473633 13.99065438 6.52539934 15.87030244 6.625 17.75 C7.285 17.75 7.945 17.75 8.625 17.75 C9.77816726 24.09241995 9.72007063 30.31688704 9.625 36.75 C6.985 36.75 4.345 36.75 1.625 36.75 C1.295 34.11 0.965 31.47 0.625 28.75 C-4.655 29.08 -9.935 29.41 -15.375 29.75 C-15.87 32.225 -15.87 32.225 -16.375 34.75 C-18.375 36.75 -18.375 36.75 -21.5 36.875 C-22.44875 36.83375 -23.3975 36.7925 -24.375 36.75 C-24.63997168 32.79326364 -24.07196154 30.63381007 -21.99609375 27.2734375 C-21.2378833 26.02675293 -21.2378833 26.02675293 -20.46435547 24.75488281 C-19.91924316 23.88702148 -19.37413086 23.01916016 -18.8125 22.125 C-18.25965332 21.23651367 -17.70680664 20.34802734 -17.13720703 19.43261719 C-16.04101764 17.67112541 -14.94212559 15.91131219 -13.84033203 14.15332031 C-12.60534875 12.12779959 -11.46315611 10.09659109 -10.37109375 7.9921875 C-6.11600409 0.13821478 -6.11600409 0.13821478 0 0 Z " fill="#7A4F9A" transform="translate(852.375,485.25)"/>
<path d="M0 0 C3.17395896 0.24290502 3.93847303 0.37597303 6.25 2.6875 C6.87197002 5.40750288 7.38057215 8.06148691 7.8125 10.8125 C7.94180908 11.60769043 8.07111816 12.40288086 8.2043457 13.22216797 C9.41118212 21.01911878 9.93876812 28.81011373 10.25 36.6875 C7.61 36.6875 4.97 36.6875 2.25 36.6875 C1.92 34.0475 1.59 31.4075 1.25 28.6875 C-3.37 28.6875 -7.99 28.6875 -12.75 28.6875 C-14.07 31.3275 -15.39 33.9675 -16.75 36.6875 C-19.06 36.6875 -21.37 36.6875 -23.75 36.6875 C-23.61039417 30.40523778 -21.03581679 26.60214948 -17.58203125 21.453125 C-15.980433 19.03536047 -14.55768401 16.61541614 -13.1875 14.0625 C-12.78917969 13.34964844 -12.39085937 12.63679688 -11.98046875 11.90234375 C-11.10403411 10.3247614 -10.25529629 8.73165656 -9.42578125 7.12890625 C-6.8769516 2.6527424 -5.42139566 0.12163388 0 0 Z " fill="#784D99" transform="translate(652.75,485.3125)"/>
<path d="M0 0 C1.13308594 -0.0299707 1.13308594 -0.0299707 2.2890625 -0.06054688 C6.15273974 -0.05716953 8.22811893 0.20688688 11.63671875 2.1875 C14.44720963 5.36793762 14.16175064 7.19601 13.921875 11.25390625 C13.45766877 14.66826522 12.49051959 17.16933942 10.55859375 20 C7.54212887 22.24254359 4.13633075 22.23657229 0.5 22.5625 C-4.3283845 22.62327 -4.3283845 22.62327 -8.375 24.4375 C-8.58268229 25.91146739 -8.74216017 27.3924126 -8.875 28.875 C-9.26541096 33.21832192 -9.26541096 33.21832192 -10.375 35.4375 C-12.685 35.4375 -14.995 35.4375 -17.375 35.4375 C-16.82199155 28.13758881 -15.6229493 21.13421464 -14 14 C-13.79117188 13.02095703 -13.58234375 12.04191406 -13.3671875 11.03320312 C-13.15578125 10.09541016 -12.944375 9.15761719 -12.7265625 8.19140625 C-12.53916504 7.34908447 -12.35176758 6.5067627 -12.15869141 5.63891602 C-10.00725234 -0.40455004 -5.72858458 -0.05322165 0 0 Z " fill="#764A97" transform="translate(819.375,486.5625)"/>
<path d="M0 0 C1.13308594 -0.0299707 1.13308594 -0.0299707 2.2890625 -0.06054688 C6.1501227 -0.05717182 8.22888322 0.20784475 11.63671875 2.18359375 C13.87136707 4.71678054 14.23839146 5.62393186 14.0625 8.9375 C14.04058594 9.6903125 14.01867187 10.443125 13.99609375 11.21875 C13.24056498 15.73601672 11.01789218 18.45586748 7.625 21.4375 C4.46254459 22.4916518 1.75551782 22.75025672 -1.5625 23 C-4.4396875 23.2165625 -4.4396875 23.2165625 -7.375 23.4375 C-8.365 27.3975 -9.355 31.3575 -10.375 35.4375 C-12.685 35.4375 -14.995 35.4375 -17.375 35.4375 C-17.05670356 29.98255762 -16.59588187 25.57477525 -14.12890625 20.62890625 C-12.612983 16.22251795 -12.44171443 11.38522175 -12 6.765625 C-11.375 3.4375 -11.375 3.4375 -10.3359375 1.51171875 C-7.06959586 -0.27761183 -3.62716066 -0.03369828 0 0 Z " fill="#774B97" transform="translate(724.375,486.5625)"/>
<path d="M0 0 C7.26 0 14.52 0 22 0 C22 1.65 22 3.3 22 5 C21 6 21 6 17.62109375 6.09765625 C16.22652923 6.09098369 14.83198257 6.07902532 13.4375 6.0625 C12.72658203 6.05798828 12.01566406 6.05347656 11.28320312 6.04882812 C9.52209987 6.03700864 7.76103964 6.01907263 6 6 C5.67 8.97 5.34 11.94 5 15 C8.63 15 12.26 15 16 15 C16 16.65 16 18.3 16 20 C11.71 20 7.42 20 3 20 C2.67 23.3 2.34 26.6 2 30 C6.62 30 11.24 30 16 30 C16 31.98 16 33.96 16 36 C8.41 36 0.82 36 -7 36 C-7 32.7 -7 29.4 -7 26 C-6.34 26 -5.68 26 -5 26 C-4.97421875 25.29617188 -4.9484375 24.59234375 -4.921875 23.8671875 C-4.43279068 15.35267415 -2.52535771 8.1463152 0 0 Z " fill="#6D3E90" transform="translate(780,486)"/>
<path d="M0 0 C1.82917969 0.00580078 1.82917969 0.00580078 3.6953125 0.01171875 C6.875 0.3125 6.875 0.3125 9.875 2.3125 C10.0625 5.9375 10.0625 5.9375 9.875 9.3125 C7.4 8.8175 7.4 8.8175 4.875 8.3125 C4.875 7.6525 4.875 6.9925 4.875 6.3125 C1.245 6.6425 -2.385 6.9725 -6.125 7.3125 C-6.125 7.9725 -6.125 8.6325 -6.125 9.3125 C-7.5 10.9375 -7.5 10.9375 -9.125 12.3125 C-9.785 12.3125 -10.445 12.3125 -11.125 12.3125 C-11.455 17.2625 -11.785 22.2125 -12.125 27.3125 C-10.805 27.6425 -9.485 27.9725 -8.125 28.3125 C-8.125 28.9725 -8.125 29.6325 -8.125 30.3125 C-6.70797487 30.17019192 -5.2913904 30.02349254 -3.875 29.875 C-3.08609375 29.79378906 -2.2971875 29.71257813 -1.484375 29.62890625 C0.69864639 29.33615007 2.7523182 28.89185581 4.875 28.3125 C4.5625 31.1875 4.5625 31.1875 3.875 34.3125 C-1.21366352 37.70494234 -7.1918355 36.99368995 -13.125 36.3125 C-16.93986111 34.538146 -18.80781991 31.78827014 -21.125 28.3125 C-22.26969656 20.07334688 -20.59670248 14.27207497 -15.921875 7.59375 C-11.34821391 1.68851669 -7.40035211 -0.102128 0 0 Z " fill="#744895" transform="translate(622.125,485.6875)"/>
<path d="M0 0 C9.57 0 19.14 0 29 0 C29 1.65 29 3.3 29 5 C28 6 28 6 25.49609375 6.09765625 C23.98208984 6.08025391 23.98208984 6.08025391 22.4375 6.0625 C21.42558594 6.05347656 20.41367187 6.04445313 19.37109375 6.03515625 C18.19740234 6.01775391 18.19740234 6.01775391 17 6 C15.22458462 13.63600985 14.46569122 21.1812896 14 29 C13.34 29 12.68 29 12 29 C12 31.31 12 33.62 12 36 C9.03 36 6.06 36 3 36 C3.43155726 29.71970622 4.16517963 24.04411417 6 18 C6.7311569 14.34421549 7.37525974 10.67533363 8 7 C5.03 7 2.06 7 -1 7 C-0.67 4.69 -0.34 2.38 0 0 Z " fill="#764B97" transform="translate(667,486)"/>
<path d="M0 0 C1.71484375 1.16015625 1.71484375 1.16015625 3 3 C3.3984375 5.7421875 3.3984375 5.7421875 3.375 8.875 C3.38273438 9.90367187 3.39046875 10.93234375 3.3984375 11.9921875 C2.80436544 16.47684916 0.87265555 19.07747841 -2.1875 22.3125 C-6.17205286 24.70323172 -8.38323875 24.51297347 -13 24 C-15.21875 22.76953125 -15.21875 22.76953125 -17 21 C-18.33116252 15.00452784 -17.10592537 9.17654228 -14 4 C-9.36437525 -0.20440384 -5.99477525 -0.68792503 0 0 Z " fill="#F8F6FA" transform="translate(1005,492)"/>
<path d="M0 0 C9.24 0 18.48 0 28 0 C27.67 1.65 27.34 3.3 27 5 C23.7 5 20.4 5 17 5 C15.45117711 11.79099268 14.08835053 18.60825237 12.78125 25.44921875 C12.05775467 28.73750504 11.12927699 31.83120982 10 35 C7.69 35 5.38 35 3 35 C4.36613819 24.89057736 6.38390003 14.8606845 9 5 C5.7 5 2.4 5 -1 5 C-0.67 3.35 -0.34 1.7 0 0 Z " fill="#724594" transform="translate(937,487)"/>
<path d="M0 0 C0.77770009 2.74909514 1.11699448 5.1582318 1.08229065 8.01165771 C1.07525116 8.7996727 1.06821167 9.58768768 1.06095886 10.39958191 C1.04801285 11.25481949 1.03506683 12.11005707 1.02172852 12.99121094 C1.01212097 13.89887711 1.00251343 14.80654327 0.99261475 15.74171448 C0.95965599 18.73934767 0.91931164 21.7368337 0.87890625 24.734375 C0.85460209 26.81373578 0.83075868 28.893102 0.80735779 30.97247314 C0.74454636 36.44368684 0.6754713 41.91480428 0.60510254 47.38592529 C0.53439259 52.96947855 0.46959154 58.55310001 0.40429688 64.13671875 C0.2753224 75.09122284 0.13918639 86.04562089 0 97 C12.21 97 24.42 97 37 97 C37 68.62 37 40.24 37 11 C37.66 10.67 38.32 10.34 39 10 C39.02312241 21.45650016 39.04091457 32.91299481 39.05181217 44.36951351 C39.05704122 49.68865213 39.06413927 55.00777484 39.07543945 60.3269043 C39.08626755 65.45563985 39.09227667 70.58436006 39.09487724 75.71310616 C39.09673163 77.67441614 39.10035251 79.63572524 39.10573006 81.59702873 C39.11293946 84.33415447 39.11399099 87.07121597 39.11352539 89.80834961 C39.11712067 90.62761932 39.12071594 91.44688904 39.12442017 92.29098511 C39.11405216 97.88594784 39.11405216 97.88594784 38 99 C35.1156618 99.08865208 32.25537842 99.11521296 29.37109375 99.09765625 C28.07474754 99.09553383 28.07474754 99.09553383 26.75221252 99.09336853 C23.98060708 99.08775239 21.2090812 99.07519719 18.4375 99.0625 C16.5631522 99.05748708 14.68880315 99.05292381 12.81445312 99.04882812 C8.20960456 99.03777772 3.60481579 99.0205023 -1 99 C-1.02313205 86.38731588 -1.04091951 73.77463678 -1.05181217 61.16193581 C-1.0570391 55.30586627 -1.06413333 49.44981121 -1.07543945 43.59375 C-1.08627504 37.9463016 -1.09227827 32.29886714 -1.09487724 26.65140915 C-1.09673027 24.49275874 -1.10034857 22.33410913 -1.10573006 20.17546463 C-1.11294936 17.16074195 -1.11399056 14.14607753 -1.11352539 11.13134766 C-1.11712067 10.23151657 -1.12071594 9.33168549 -1.12442017 8.40458679 C-1.11405216 2.22810432 -1.11405216 2.22810432 0 0 Z " fill="#9573AF" transform="translate(911,367)"/>
<path d="M0 0 C2.64 0 5.28 0 8 0 C7.12654177 7.35543774 6.03205205 14.6746234 4.9375 22 C4.75123047 23.25167969 4.56496094 24.50335938 4.37304688 25.79296875 C3.91619097 28.86210328 3.45848575 31.9311086 3 35 C0.03 35 -2.94 35 -6 35 C-5.67883671 31.66536841 -5.34325444 28.33242856 -5 25 C-4.89171875 23.91138672 -4.89171875 23.91138672 -4.78125 22.80078125 C-4.29127315 18.34724165 -3.25755667 14.29048745 -2 10 C-1.28251824 6.67615592 -0.63191414 3.34107797 0 0 Z " fill="#7F569E" transform="translate(969,487)"/>
<path d="M0 0 C10.89 0 21.78 0 33 0 C33 12.87 33 25.74 33 39 C26.93470152 39.06924442 20.87080018 39.12886541 14.80541992 39.16479492 C12.74645311 39.17978857 10.68751773 39.20019033 8.62866211 39.22631836 C-13.33868485 39.49791465 -13.33868485 39.49791465 -22 36 C-19.0650697 35.11340352 -16.89050336 34.97887026 -13.86547852 35.41772461 C-8.95404322 36.04275258 -4.09910449 36.21918695 0.84765625 36.31640625 C2.19361122 36.3475779 2.19361122 36.3475779 3.5667572 36.37937927 C6.39860288 36.44412226 9.23053141 36.50340518 12.0625 36.5625 C13.99675294 36.60575702 15.93099788 36.64937344 17.86523438 36.69335938 C22.57673976 36.80039314 27.2883186 36.90002301 32 37 C32 25.45 32 13.9 32 2 C21.44 2 10.88 2 0 2 C0 1.34 0 0.68 0 0 Z " fill="#8D69A9" transform="translate(1073,427)"/>
<path d="M0 0 C10.23 0.33 20.46 0.66 31 1 C31.020625 5.929375 31.04125 10.85875 31.0625 15.9375 C31.071604 17.49460693 31.08070801 19.05171387 31.09008789 20.65600586 C31.09258545 21.87167236 31.09508301 23.08733887 31.09765625 24.33984375 C31.10289307 25.59144287 31.10812988 26.84304199 31.11352539 28.13256836 C31 31 31 31 30 32 C27.91384092 32.12202633 25.82386762 32.17978091 23.734375 32.2109375 C22.45175781 32.23929687 21.16914063 32.26765625 19.84765625 32.296875 C17.80257745 32.3380215 15.75772665 32.37490001 13.71240234 32.40136719 C11.74033523 32.4291091 9.76856833 32.47606949 7.796875 32.5234375 C6.02328613 32.5531665 6.02328613 32.5531665 4.21386719 32.58349609 C0.71489401 33.03694856 -1.18845454 33.90565955 -4 36 C-5.32793606 38.06700655 -5.32793606 38.06700655 -6 40 C-6.36458333 35.50347222 -6.36458333 35.50347222 -4.6875 33.1875 C-3 32 -3 32 0 32 C0 31.34 0 30.68 0 30 C9.57 30 19.14 30 29 30 C29 21.09 29 12.18 29 3 C21.32663773 3.07887541 21.32663773 3.07887541 13.65356445 3.18017578 C12.691521 3.1851709 11.72947754 3.19016602 10.73828125 3.1953125 C9.26935425 3.21102295 9.26935425 3.21102295 7.77075195 3.22705078 C4.82887228 2.98597685 2.66762274 2.23055542 0 1 C0 0.67 0 0.34 0 0 Z " fill="#9C7CB4" transform="translate(458,383)"/>
<path d="M0 0 C0.920728 0.00007553 1.84145599 0.00015106 2.79008484 0.00022888 C4.27614983 0.00797081 4.27614983 0.00797081 5.79223633 0.01586914 C6.80900955 0.01728409 7.82578278 0.01869904 8.87336731 0.02015686 C12.12369721 0.02575832 15.37395846 0.03831107 18.62426758 0.05102539 C20.82674054 0.0560402 23.02921459 0.06060314 25.23168945 0.06469727 C30.63342995 0.0748777 36.03502183 0.09445293 41.43676758 0.11352539 C41.43676758 12.98352539 41.43676758 25.85352539 41.43676758 39.11352539 C31.53676758 39.11352539 21.63676758 39.11352539 11.43676758 39.11352539 C11.43676758 38.78352539 11.43676758 38.45352539 11.43676758 38.11352539 C21.00676758 38.11352539 30.57676758 38.11352539 40.43676758 38.11352539 C40.43676758 25.90352539 40.43676758 13.69352539 40.43676758 1.11352539 C34.35198026 1.14171943 28.27104766 1.18506639 22.18725586 1.26611328 C20.12157986 1.28918715 18.05578799 1.30366387 15.98999023 1.30908203 C13.00537789 1.31844948 10.02256161 1.35960938 7.03833008 1.40649414 C5.67207993 1.40059517 5.67207993 1.40059517 4.27822876 1.39457703 C-1.89576856 1.53236644 -6.04953522 2.97318461 -11.3578186 6.14228821 C-13.93066465 7.27533804 -14.98144363 7.09239405 -17.56323242 6.11352539 C-15.96032713 5.29853977 -14.35585964 4.48662612 -12.75073242 3.67602539 C-11.85741211 3.22356445 -10.9640918 2.77110352 -10.04370117 2.30493164 C-6.52561063 0.61514012 -3.85859822 -0.0105715 0 0 Z " fill="#9675AF" transform="translate(1064.563232421875,332.886474609375)"/>
<path d="M0 0 C0.66 0.33 1.32 0.66 2 1 C-1.73315326 3.52557134 -4.73612296 4.5167373 -9.1875 5.125 C-13.23214695 5.61838482 -13.23214695 5.61838482 -17 7 C-19.844062 7.08690293 -22.66399702 7.11561213 -25.5078125 7.09765625 C-26.25281006 7.09664917 -26.99780762 7.09564209 -27.76538086 7.09460449 C-30.5519362 7.08936714 -33.33846962 7.07540589 -36.125 7.0625 C-42.35375 7.041875 -48.5825 7.02125 -55 7 C-55 22.51 -55 38.02 -55 54 C-55.33 54 -55.66 54 -56 54 C-56 38.16 -56 22.32 -56 6 C-50.0290625 5.8453125 -50.0290625 5.8453125 -43.9375 5.6875 C-34.62623582 5.38364916 -25.4261157 4.7770121 -16.1875 3.5625 C-15.24704834 3.44028076 -14.30659668 3.31806152 -13.33764648 3.19213867 C-8.66104084 2.53394973 -4.4850441 1.5137904 0 0 Z " fill="#EBE5F0" transform="translate(604,475)"/>
<path d="M0 0 C0.96630001 3.13160268 0.9843016 5.52741747 0.59765625 8.76953125 C-0.15801069 16.06299086 -0.34773771 23.3619143 -0.5625 30.6875 C-0.60582087 32.08269161 -0.64943878 33.47787402 -0.69335938 34.87304688 C-0.79848102 38.2486196 -0.90062877 41.62425393 -1 45 C3.43768016 44.85935814 7.8750941 44.71152566 12.3125 44.5625 C13.55580078 44.52318359 14.79910156 44.48386719 16.08007812 44.44335938 C23.41793056 44.19298646 30.6975866 43.76882404 38 43 C32.64129134 46.57247244 28.00757362 47.24799648 21.6328125 47.1953125 C20.95322479 47.1924826 20.27363708 47.18965271 19.57345581 47.18673706 C17.42378392 47.17562964 15.27454386 47.15054391 13.125 47.125 C11.65886023 47.11495795 10.19271386 47.10583425 8.7265625 47.09765625 C5.15090369 47.07572159 1.57549406 47.04125814 -2 47 C-2.04963288 41.43157229 -2.08582963 35.86327489 -2.10986328 30.29467773 C-2.11988815 28.40240229 -2.13351155 26.51014222 -2.15087891 24.61791992 C-2.17528222 21.8897725 -2.18651845 19.16183085 -2.1953125 16.43359375 C-2.20563507 15.59477158 -2.21595764 14.7559494 -2.22659302 13.89170837 C-2.22754087 8.8701288 -1.61591021 4.76106417 0 0 Z " fill="#E4DBEA" transform="translate(550,389)"/>
<path d="M0 0 C6.75 -0.125 6.75 -0.125 9 1 C9.125 7.75 9.125 7.75 8 10 C7.34 10 6.68 10 6 10 C6 10.66 6 11.32 6 12 C1.545 12.495 1.545 12.495 -3 13 C-2.45144652 8.428721 -1.58255197 4.32564205 0 0 Z " fill="#E6DEEB" transform="translate(816,492)"/>
<path d="M0 0 C5.39247141 5.39247141 4.21499636 18.05098704 4.25 25.4375 C4.18479454 36.87476577 3.70754342 49.4080273 -1 60 C-1.99 60.495 -1.99 60.495 -3 61 C-2.31694791 52.91122524 -2.31694791 52.91122524 -1 49.125 C3.76734043 34.22706117 1.30606823 15.39294695 0 0 Z " fill="#64506F" transform="translate(646,379)"/>
<path d="M0 0 C-3.06117568 2.62386487 -3.73173127 3 -8 3 C-8 13.56 -8 24.12 -8 35 C-1.73 35 4.54 35 11 35 C11 35.33 11 35.66 11 36 C4.07 36 -2.86 36 -10 36 C-10 24.45 -10 12.9 -10 1 C-2 -1 -2 -1 0 0 Z " fill="#A081B6" transform="translate(235,384)"/>
<path d="M0 0 C3.5625 0.1875 3.5625 0.1875 5.5625 2.1875 C5.94336916 5.08210562 5.72314945 6.81599816 4.5625 9.5 C1.39924507 12.16899635 -1.39070994 11.45286328 -5.4375 11.1875 C-5.29707123 9.54119672 -5.15000671 7.89545821 -5 6.25 C-4.91878906 5.33347656 -4.83757813 4.41695313 -4.75390625 3.47265625 C-4.24555176 -0.19879282 -3.88527495 0.21192409 0 0 Z " fill="#F2EEF5" transform="translate(724.4375,491.8125)"/>
<path d="M0 0 C21.12 0 42.24 0 64 0 C64 0.33 64 0.66 64 1 C45.52 1.33 27.04 1.66 8 2 C10.93044547 4.93044547 13.67776117 7.66948491 16.8125 10.3125 C17.41707031 10.82425781 18.02164063 11.33601563 18.64453125 11.86328125 C19.09183594 12.23839844 19.53914062 12.61351562 20 13 C19.67 13.66 19.34 14.32 19 15 C18.14728516 14.22076172 18.14728516 14.22076172 17.27734375 13.42578125 C11.76431652 8.44656968 6.18001508 4.12001005 0 0 Z " fill="#87808A" transform="translate(612,336)"/>
<path d="M0 0 C9.57 0 19.14 0 29 0 C29 1.65 29 3.3 29 5 C28.01 5.495 28.01 5.495 27 6 C27 4.68 27 3.36 27 2 C18.42 2 9.84 2 1 2 C1 3.32 1 4.64 1 6 C3.64 6 6.28 6 9 6 C8.67 9.96 8.34 13.92 8 18 C7.67 18 7.34 18 7 18 C6.875 10.375 6.875 10.375 8 7 C5.03 7 2.06 7 -1 7 C-0.67 4.69 -0.34 2.38 0 0 Z " fill="#9E80B4" transform="translate(667,486)"/>
<path d="M0 0 C0.66 0 1.32 0 2 0 C2.33820166 1.5823006 2.67035939 3.16589375 3 4.75 C3.185625 5.63171875 3.37125 6.5134375 3.5625 7.421875 C4 10 4 10 4 14 C0.37 14 -3.26 14 -7 14 C-6.12495039 9.62475197 -5.45180005 7.53059208 -3 4 C-2.34 3.67 -1.68 3.34 -1 3 C-0.67 2.01 -0.34 1.02 0 0 Z " fill="#F6F4F8" transform="translate(650,495)"/>
<path d="M0 0 C0.721875 0.00257813 1.44375 0.00515625 2.1875 0.0078125 C2.909375 0.00523437 3.63125 0.00265625 4.375 0 C6.1875 0.1328125 6.1875 0.1328125 7.1875 1.1328125 C7.63982816 6.33458634 7.63982816 6.33458634 6.125 9.0078125 C3.18522876 10.71477645 0.50879197 10.32081016 -2.8125 10.1328125 C-2.83939216 8.65374358 -2.85884621 7.17453767 -2.875 5.6953125 C-2.88660156 4.87160156 -2.89820313 4.04789062 -2.91015625 3.19921875 C-2.78580037 0.56784823 -2.63135505 0.19281481 0 0 Z " fill="#EEE8F1" transform="translate(882.8125,491.8671875)"/>
<path d="M0 0 C0 0.66 0 1.32 0 2 C-10.69781322 6.20271234 -20.81237489 8.1793612 -32.3125 8.1875 C-33.21162109 8.19974609 -34.11074219 8.21199219 -35.03710938 8.22460938 C-40.99374702 8.2375305 -46.23017691 7.48803796 -52 6 C-52 5.67 -52 5.34 -52 5 C-39.13 5 -26.26 5 -13 5 C-13 4.34 -13 3.68 -13 3 C-11.2092015 2.49689942 -9.41733089 1.99761372 -7.625 1.5 C-6.62726562 1.2215625 -5.62953125 0.943125 -4.6015625 0.65625 C-2 0 -2 0 0 0 Z " fill="#9777B1" transform="translate(855,461)"/>
<path d="M0 0 C6.0546875 -0.1953125 6.0546875 -0.1953125 8 0 C10 2 10 2 10.4375 4.4375 C10 7 10 7 7.875 8.8125 C4.6892698 10.12834508 2.41335136 10.23814079 -1 10 C-0.67 6.7 -0.34 3.4 0 0 Z " fill="#EFEBF3" transform="translate(752,492)"/>
<path d="M0 0 C0.66 0.33 1.32 0.66 2 1 C2 2.32 2 3.64 2 5 C2.66 5 3.32 5 4 5 C5.35851217 10.81451377 5.22297318 16.59107621 5.24023438 22.53540039 C5.24985396 24.53218593 5.28101161 26.5288302 5.3125 28.52539062 C5.36086845 40.64773288 3.57547234 50.70795634 -3 61 C-4 59 -4 59 -3.0625 55.875 C-2.711875 54.92625 -2.36125 53.9775 -2 53 C-1.34 53 -0.68 53 0 53 C0.04898438 52.43152344 0.09796875 51.86304688 0.1484375 51.27734375 C0.26058594 50.11912109 0.26058594 50.11912109 0.375 48.9375 C0.44460938 48.18339844 0.51421875 47.42929687 0.5859375 46.65234375 C1 44 1 44 2.01367188 40.78710938 C3.01957554 36.92483766 3.2294769 33.7340583 3.1953125 29.75390625 C3.1924826 29.09792953 3.18965271 28.44195282 3.18673706 27.76609802 C3.17565984 25.69803591 3.15058063 23.63042827 3.125 21.5625 C3.11495402 20.14909485 3.10583102 18.73568283 3.09765625 17.32226562 C3.07576184 13.88136606 3.04132051 10.44072748 3 7 C2.34 7 1.68 7 1 7 C0.67 4.69 0.34 2.38 0 0 Z " fill="#B299C4" transform="translate(887,372)"/>
<path d="M0 0 C0.66 0 1.32 0 2 0 C2.33820166 1.5823006 2.67035939 3.16589375 3 4.75 C3.185625 5.63171875 3.37125 6.5134375 3.5625 7.421875 C4 10 4 10 4 14 C0.7 14 -2.6 14 -6 14 C-5.41892368 10.2397015 -4.34800504 7.46964968 -2.4375 4.1875 C-1.98246094 3.39730469 -1.52742187 2.60710937 -1.05859375 1.79296875 C-0.53458984 0.90544922 -0.53458984 0.90544922 0 0 Z " fill="#E5DDEB" transform="translate(849,495)"/>
<path d="M0 0 C5.94 0 11.88 0 18 0 C18 0.66 18 1.32 18 2 C19.175625 2.185625 19.175625 2.185625 20.375 2.375 C23 3 23 3 25 5 C25.44370229 10.59064885 25.44370229 10.59064885 25 13 C24.01 13.99 23.02 14.98 22 16 C22 12.37 22 8.74 22 5 C17.2462177 3.09848708 14.84583969 2.7544541 9.875 2.8125 C8.65554688 2.81894531 7.43609375 2.82539063 6.1796875 2.83203125 C2.97714128 2.85998484 2.97714128 2.85998484 0 4 C0 5.98 0 7.96 0 10 C-0.33 10 -0.66 10 -1 10 C-1.125 2.25 -1.125 2.25 0 0 Z " fill="#A183B7" transform="translate(746,486)"/>
<path d="M0 0 C1.25954459 3.66250553 0.80049008 6.59121951 0.1875 10.375 C0.01605469 11.47585938 -0.15539062 12.57671875 -0.33203125 13.7109375 C-1 17 -1 17 -3 23 C3.93 23 10.86 23 18 23 C18 21.68 18 20.36 18 19 C13.71 19 9.42 19 5 19 C5 18.67 5 18.34 5 18 C9.62 18 14.24 18 19 18 C19 19.98 19 21.96 19 24 C11.41 24 3.82 24 -4 24 C-4 20.7 -4 17.4 -4 14 C-3.34 14 -2.68 14 -2 14 C-1.93941406 13.15695312 -1.87882813 12.31390625 -1.81640625 11.4453125 C-1.73261719 10.34960938 -1.64882813 9.25390625 -1.5625 8.125 C-1.48128906 7.03445313 -1.40007813 5.94390625 -1.31640625 4.8203125 C-1 2 -1 2 0 0 Z " fill="#9676AF" transform="translate(777,498)"/>
<path d="M0 0 C0.66 0.33 1.32 0.66 2 1 C1.443125 1.226875 0.88625 1.45375 0.3125 1.6875 C-2.65924215 3.37416447 -4.61161793 5.55020239 -7 8 C-9.01675993 10.06653156 -11.03860212 12.12796115 -13.0625 14.1875 C-13.8369043 14.98704102 -13.8369043 14.98704102 -14.62695312 15.80273438 C-17.22767855 18.43659006 -19.520732 20.63999836 -23 22 C-18.62551839 12.39747939 -9.34124282 4.5790406 0 0 Z " fill="#9573AE" transform="translate(538,334)"/>
<path d="M0 0 C1.25425781 0.02707031 2.50851562 0.05414063 3.80078125 0.08203125 C4.75339844 0.11683594 5.70601562 0.15164063 6.6875 0.1875 C7.0175 0.8475 7.3475 1.5075 7.6875 2.1875 C2.4075 2.1875 -2.8725 2.1875 -8.3125 2.1875 C-8.9725 3.5075 -9.6325 4.8275 -10.3125 6.1875 C-11.281875 6.93 -12.25125 7.6725 -13.25 8.4375 C-18.30383886 12.48057109 -19.2800881 18.0001491 -20 24.1875 C-20.1147897 25.51996081 -20.2229227 26.85310711 -20.3125 28.1875 C-20.6425 28.1875 -20.9725 28.1875 -21.3125 28.1875 C-21.92551525 18.92415844 -20.53825621 13.18705232 -14.875 5.875 C-10.13914354 0.90812615 -6.86289192 -0.19241753 0 0 Z " fill="#A487B9" transform="translate(622.3125,485.8125)"/>
<path d="M0 0 C0.99 0.33 1.98 0.66 3 1 C4.47666292 4.49029418 4.07164685 8.27436386 4 12 C1.36 12 -1.28 12 -4 12 C-3.52494322 10.18641846 -3.04483958 8.37415821 -2.5625 6.5625 C-2.29566406 5.55316406 -2.02882813 4.54382813 -1.75390625 3.50390625 C-1 1 -1 1 0 0 Z " fill="#EDE7F1" transform="translate(919,496)"/>
<path d="M0 0 C2.12534659 0.14069196 4.25027529 0.28770921 6.375 0.4375 C8.15003906 0.55931641 8.15003906 0.55931641 9.9609375 0.68359375 C13 1 13 1 15 2 C17.98763355 2.15733249 20.95541151 2.25861415 23.9453125 2.31640625 C25.27283035 2.3475779 25.27283035 2.3475779 26.62716675 2.37937927 C29.45969741 2.44486598 32.29232225 2.50375562 35.125 2.5625 C37.04297857 2.60568606 38.96094754 2.64930037 40.87890625 2.69335938 C45.58584051 2.80054647 50.29286967 2.9018164 55 3 C55 3.33 55 3.66 55 4 C48.9351667 4.07471366 42.87060724 4.12886656 36.80541992 4.16479492 C34.74645311 4.17978857 32.68751773 4.20019033 30.62866211 4.22631836 C8.66131515 4.49791465 8.66131515 4.49791465 0 1 C0 0.67 0 0.34 0 0 Z " fill="#B199C4" transform="translate(1051,462)"/>
<path d="M0 0 C1.99776092 3.99552183 -0.38263305 9.35667903 -1.3125 13.5625 C-1.53873047 14.64208984 -1.76496094 15.72167969 -1.99804688 16.83398438 C-2.22169922 17.85943359 -2.44535156 18.88488281 -2.67578125 19.94140625 C-2.88114502 20.88701416 -3.08650879 21.83262207 -3.2980957 22.80688477 C-3.52972412 23.53061279 -3.76135254 24.25434082 -4 25 C-6.70879335 26.35439668 -9.00933268 26.06501451 -12 26 C-13.05404945 22.01803543 -12.84098656 19.01804691 -12 15 C-11.67 15 -11.34 15 -11 15 C-11 17.97 -11 20.94 -11 24 C-9.02 24 -7.04 24 -5 24 C-4.96261719 23.09378906 -4.92523438 22.18757813 -4.88671875 21.25390625 C-3.95302013 3.95302013 -3.95302013 3.95302013 0 0 Z " fill="#BAA4CA" transform="translate(335,273)"/>
<path d="M0 0 C7.26 0 14.52 0 22 0 C22 1.65 22 3.3 22 5 C21.67 4.01 21.34 3.02 21 2 C18.06217531 2.14075205 15.12484829 2.2873838 12.1875 2.4375 C11.35412109 2.47681641 10.52074219 2.51613281 9.66210938 2.55664062 C8.85966797 2.59853516 8.05722656 2.64042969 7.23046875 2.68359375 C6.12288208 2.73858032 6.12288208 2.73858032 4.99291992 2.79467773 C2.792505 2.94842141 2.792505 2.94842141 0 4 C0 5.98 0 7.96 0 10 C-0.99 10.495 -0.99 10.495 -2 11 C-1.85892253 9.54119891 -1.71197585 8.08296449 -1.5625 6.625 C-1.48128906 5.81289063 -1.40007813 5.00078125 -1.31640625 4.1640625 C-1 2 -1 2 0 0 Z " fill="#9777B0" transform="translate(780,486)"/>
<path d="M0 0 C0.94359375 -0.00257813 1.8871875 -0.00515625 2.859375 -0.0078125 C3.8390625 -0.00007813 4.81875 0.00765625 5.828125 0.015625 C7.27445313 0.00402344 7.27445313 0.00402344 8.75 -0.0078125 C17.32847769 0.01549858 24.28702172 1.69470266 32.078125 5.265625 C29.42907178 6.59015161 28.14029753 6.05219469 25.265625 5.453125 C24.41355469 5.28167969 23.56148437 5.11023438 22.68359375 4.93359375 C20.078125 4.265625 20.078125 4.265625 17.77392578 3.23608398 C14.77558998 2.15671568 12.51767054 2.03632505 9.33984375 2.0703125 C8.27314453 2.07675781 7.20644531 2.08320313 6.10742188 2.08984375 C5.00462891 2.10660156 3.90183594 2.12335938 2.765625 2.140625 C1.64349609 2.14964844 0.52136719 2.15867187 -0.63476562 2.16796875 C-3.39735409 2.19148014 -6.15950432 2.22434345 -8.921875 2.265625 C-5.82570422 0.46652288 -3.56602675 0.00946613 0 0 Z " fill="#AE95C1" transform="translate(817.921875,329.734375)"/>
<path d="M0 0 C0.66 0.33 1.32 0.66 2 1 C-2.34791253 6.99712073 -7.94293949 10.82052217 -14 15 C-13.67 15.66 -13.34 16.32 -13 17 C-15.97 17 -18.94 17 -22 17 C-21.01 16.01 -20.02 15.02 -19 14 C-18.34 14 -17.68 14 -17 14 C-17 13.34 -17 12.68 -17 12 C-16.33613281 11.68546875 -15.67226563 11.3709375 -14.98828125 11.046875 C-6.3899815 6.90868417 -6.3899815 6.90868417 0 0 Z " fill="#7F6A8E" transform="translate(631,458)"/>
<path d="M0 0 C1.32 0.33 2.64 0.66 4 1 C4 5.95 4 10.9 4 16 C0.37 16 -3.26 16 -7 16 C-6.38461538 10.46153846 -6.38461538 10.46153846 -4.4375 8.125 C-3.963125 7.75375 -3.48875 7.3825 -3 7 C-3.66 9.31 -4.32 11.62 -5 14 C-2.36 14 0.28 14 3 14 C2.69024532 12.22868439 2.37709575 10.45796222 2.0625 8.6875 C1.88847656 7.70136719 1.71445312 6.71523438 1.53515625 5.69921875 C1.04253153 2.91810787 1.04253153 2.91810787 0 0 Z " fill="#9D7EB4" transform="translate(920,494)"/>
<path d="M0 0 C0.66 0.33 1.32 0.66 2 1 C0.60919892 2.58775549 -0.78788404 4.17000939 -2.1875 5.75 C-2.96480469 6.63171875 -3.74210938 7.5134375 -4.54296875 8.421875 C-7 11 -7 11 -9.71875 13.15625 C-12.30616276 15.24744661 -13.04008022 16.85844437 -14 20 C-14.66 20 -15.32 20 -16 20 C-14.85569823 16.12697862 -13.76679902 12.99736561 -11 10 C-10.34 10 -9.68 10 -9 10 C-8.74476563 9.40703125 -8.48953125 8.8140625 -8.2265625 8.203125 C-6.88183502 5.78775462 -5.50785633 4.48788294 -3.375 2.75 C-2.74335937 2.22921875 -2.11171875 1.7084375 -1.4609375 1.171875 C-0.73777344 0.59179688 -0.73777344 0.59179688 0 0 Z " fill="#9371AD" transform="translate(932,336)"/>
<path d="M0 0 C1.22589844 0.01353516 1.22589844 0.01353516 2.4765625 0.02734375 C3.41628906 0.04474609 3.41628906 0.04474609 4.375 0.0625 C4.375 0.3925 4.375 0.7225 4.375 1.0625 C3.364375 1.083125 2.35375 1.10375 1.3125 1.125 C-3.72520174 1.80216561 -6.53311285 5.28061544 -9.625 9.0625 C-10.84193876 11.49637753 -10.94459896 13.48088846 -11.1875 16.1875 C-11.31318359 17.55261719 -11.31318359 17.55261719 -11.44140625 18.9453125 C-11.50199219 19.64398438 -11.56257812 20.34265625 -11.625 21.0625 C-11.955 21.0625 -12.285 21.0625 -12.625 21.0625 C-12.65203381 19.12507659 -12.67141125 17.18754521 -12.6875 15.25 C-12.69910156 14.17105469 -12.71070313 13.09210938 -12.72265625 11.98046875 C-12.625 9.0625 -12.625 9.0625 -11.625 6.0625 C-10.965 6.0625 -10.305 6.0625 -9.625 6.0625 C-9.295 5.0725 -8.965 4.0825 -8.625 3.0625 C-7.965 3.0625 -7.305 3.0625 -6.625 3.0625 C-6.625 2.4025 -6.625 1.7425 -6.625 1.0625 C-4.21954362 -0.14022819 -2.67503047 -0.03821472 0 0 Z " fill="#CABAD6" transform="translate(622.625,491.9375)"/>
<path d="M0 0 C2.09375 -0.36328125 2.09375 -0.36328125 4.5 -0.3125 C5.69109375 -0.30669922 5.69109375 -0.30669922 6.90625 -0.30078125 C9 0 9 0 11 2 C11.41064453 3.97119141 11.41064453 3.97119141 11.6328125 6.3515625 C11.71660156 7.20234375 11.80039062 8.053125 11.88671875 8.9296875 C11.96535156 9.81914062 12.04398438 10.70859375 12.125 11.625 C12.21136719 12.5221875 12.29773438 13.419375 12.38671875 14.34375 C12.5990924 16.5618748 12.80317085 18.78045069 13 21 C12.34 20.67 11.68 20.34 11 20 C10.54889238 17.50269179 10.20482751 15.08002774 9.9375 12.5625 C9.5354342 7.63260078 9.5354342 7.63260078 8 3 C6.10466658 2.53476937 6.10466658 2.53476937 3.9375 2.375 C2.638125 2.25125 1.33875 2.1275 0 2 C0 2.66 0 3.32 0 4 C-0.66 3.67 -1.32 3.34 -2 3 C-1.34 2.01 -0.68 1.02 0 0 Z " fill="#9E80B5" transform="translate(918,486)"/>
<path d="M0 0 C0.99 0.33 1.98 0.66 3 1 C2.34 1 1.68 1 1 1 C1 1.66 1 2.32 1 3 C0.154375 3.33 -0.69125 3.66 -1.5625 4 C-5.41798057 6.2431887 -7.51224706 8.73036089 -10.3203125 12.125 C-12.29185432 14.32579087 -14.34636767 15.71339038 -17 17 C-16.505 15.515 -16.505 15.515 -16 14 C-15.34 13.67 -14.68 13.34 -14 13 C-13.62875 12.278125 -13.2575 11.55625 -12.875 10.8125 C-9.66676033 6.0001405 -4.75734197 3.17156131 0 0 Z " fill="#9877B1" transform="translate(437,335)"/>
<path d="M0 0 C-8.32022708 3.54190672 -16.20714587 3.3482124 -25.0625 3.1875 C-26.51496005 3.17242256 -27.96743527 3.15873958 -29.41992188 3.14648438 C-32.94693457 3.11372861 -36.47336785 3.06211664 -40 3 C-40 2.67 -40 2.34 -40 2 C-30.43 2 -20.86 2 -11 2 C-11 1.34 -11 0.68 -11 0 C-6.97959015 -0.69584017 -3.91736581 -1.1700097 0 0 Z " fill="#A88DBD" transform="translate(588,433)"/>
<path d="M0 0 C2.93756119 -0.0269501 5.87487555 -0.04681474 8.8125 -0.0625 C9.64587891 -0.07087891 10.47925781 -0.07925781 11.33789062 -0.08789062 C12.14033203 -0.09111328 12.94277344 -0.09433594 13.76953125 -0.09765625 C14.87711792 -0.10551147 14.87711792 -0.10551147 16.00708008 -0.11352539 C18 0 18 0 21 1 C21.33 1.99 21.66 2.98 22 4 C21.18273437 3.84660156 20.36546875 3.69320313 19.5234375 3.53515625 C15.55375228 2.9322218 11.63053967 2.65842036 7.625 2.4375 C6.88894531 2.39431641 6.15289063 2.35113281 5.39453125 2.30664062 C3.59651932 2.20156201 1.79828042 2.10037907 0 2 C0 1.34 0 0.68 0 0 Z " fill="#9A7BB2" transform="translate(875,486)"/>
<path d="M0 0 C0.66 0.33 1.32 0.66 2 1 C-2.00716689 3.78063862 -5.30655018 4.59902544 -10.125 5.1875 C-10.77863525 5.26790527 -11.43227051 5.34831055 -12.10571289 5.43115234 C-17.74934987 6.07743869 -23.32882377 6.21222697 -29 6 C-29 5.67 -29 5.34 -29 5 C-28.00202393 4.87939209 -28.00202393 4.87939209 -26.98388672 4.75634766 C-23.94677052 4.38563227 -20.91091725 4.00540409 -17.875 3.625 C-16.82828125 3.49867188 -15.7815625 3.37234375 -14.703125 3.2421875 C-9.54132769 2.58879543 -4.92658568 1.72834317 0 0 Z " fill="#B9A3CA" transform="translate(604,475)"/>
<path d="M0 0 C0.33 0 0.66 0 1 0 C1.1947739 5.55105619 0.66585721 9.65172159 -1 15 C-2.04043616 19.3241542 -3.02138534 23.661475 -4 28 C-6.87672887 19.47255371 -2.49089275 8.28636988 0 0 Z " fill="#CABAD7" transform="translate(1056,492)"/>
<path d="M0 0 C0.99 0 1.98 0 3 0 C3.33 3.96 3.66 7.92 4 12 C3.34 12 2.68 12 2 12 C1.67 11.01 1.34 10.02 1 9 C0.01 12.465 0.01 12.465 -1 16 C-2.26823485 12.34606463 -1.75715321 9.50929974 -1.0625 5.75 C-0.86785156 4.67234375 -0.67320312 3.5946875 -0.47265625 2.484375 C-0.31667969 1.66453125 -0.16070312 0.8446875 0 0 Z " fill="#8963A4" transform="translate(251,249)"/>
<path d="M0 0 C-4.1205746 1.99785435 -7.45194365 2.17835515 -12 2 C-12.12117187 2.71027344 -12.24234375 3.42054688 -12.3671875 4.15234375 C-12.53476562 5.07144531 -12.70234375 5.99054687 -12.875 6.9375 C-13.03742187 7.85402344 -13.19984375 8.77054688 -13.3671875 9.71484375 C-13.57601562 10.46894531 -13.78484375 11.22304688 -14 12 C-14.99 12.495 -14.99 12.495 -16 13 C-15.88610125 11.20759337 -15.75852313 9.41605165 -15.625 7.625 C-15.55539062 6.62726562 -15.48578125 5.62953125 -15.4140625 4.6015625 C-15 2 -15 2 -13 0 C-10.46875 -0.44921875 -10.46875 -0.44921875 -7.5 -0.6875 C-6.5203125 -0.77386719 -5.540625 -0.86023438 -4.53125 -0.94921875 C-2 -1 -2 -1 0 0 Z " fill="#C1AECF" transform="translate(825,509)"/>
<path d="M0 0 C2.34765625 -0.328125 2.34765625 -0.328125 5.0625 -0.25 C5.96097656 -0.23453125 6.85945312 -0.2190625 7.78515625 -0.203125 C10 0 10 0 11 1 C11.14115161 3.67058851 11.04247107 6.32432238 11 9 C10.67 9 10.34 9 10 9 C9.67 7.02 9.34 5.04 9 3 C3.67829506 2.70437633 3.67829506 2.70437633 -1 5 C-1.33 5.99 -1.66 6.98 -2 8 C-2.66 8 -3.32 8 -4 8 C-2.87548273 5.0280615 -1.77706209 2.66559313 0 0 Z " fill="#9E7FB5" transform="translate(847,486)"/>
<path d="M0 0 C0.33 0 0.66 0 1 0 C1 2.64 1 5.28 1 8 C0.34 8 -0.32 8 -1 8 C-1.04898437 8.83402344 -1.09796875 9.66804688 -1.1484375 10.52734375 C-1.59317268 17.22137501 -2.3468204 23.49749359 -4 30 C-4.95458978 26.91350769 -4.9949296 24.62916802 -4.51171875 21.4453125 C-4.38216797 20.58292969 -4.25261719 19.72054688 -4.11914062 18.83203125 C-3.90547852 17.49205078 -3.90547852 17.49205078 -3.6875 16.125 C-3.55666016 15.23941406 -3.42582031 14.35382813 -3.29101562 13.44140625 C-2.57166027 8.77775947 -1.67618996 4.43568173 0 0 Z " fill="#B199C3" transform="translate(296,258)"/>
<path d="M0 0 C1.20462891 -0.02126953 1.20462891 -0.02126953 2.43359375 -0.04296875 C4.5625 0.1875 4.5625 0.1875 6.5625 2.1875 C6.6875 5.8125 6.6875 5.8125 6.5625 9.1875 C5.1018715 6.54011084 4.5625 5.29301666 4.5625 2.1875 C-0.21326339 2.6557121 -3.48226345 3.43081998 -7.4375 6.1875 C-5.07330247 0.04058642 -5.07330247 0.04058642 0 0 Z " fill="#9878AF" transform="translate(652.4375,485.8125)"/>
<path d="M0 0 C1.28132812 0.00902344 2.56265625 0.01804687 3.8828125 0.02734375 C4.87023437 0.03894531 5.85765625 0.05054688 6.875 0.0625 C3.83947899 3.09802101 0.55715358 2.45178058 -3.59375 2.62109375 C-4.4290625 2.76675781 -5.264375 2.91242187 -6.125 3.0625 C-7.115 4.5475 -7.115 4.5475 -8.125 6.0625 C-8.785 6.0625 -9.445 6.0625 -10.125 6.0625 C-9.75 3.625 -9.75 3.625 -9.125 1.0625 C-6.12186252 -0.43906874 -3.33432478 -0.03031204 0 0 Z " fill="#E2DAE9" transform="translate(846.125,513.9375)"/>
<path d="M0 0 C0.33 0 0.66 0 1 0 C2.75623315 5.37578685 3.39316874 10.30110255 3.625 15.9375 C3.66367187 16.71673828 3.70234375 17.49597656 3.7421875 18.29882812 C3.83544127 20.19887379 3.91875962 22.09940278 4 24 C3.67 24 3.34 24 3 24 C2.49061655 21.50159546 1.99236886 19.00176612 1.5 16.5 C1.35691406 15.80390625 1.21382813 15.1078125 1.06640625 14.390625 C0.11722627 9.50912797 -0.13440046 4.97281701 0 0 Z " fill="#B8A2C8" transform="translate(256,265)"/>
<path d="M0 0 C1.27230469 0.01804687 2.54460938 0.03609375 3.85546875 0.0546875 C5.31919922 0.08949219 5.31919922 0.08949219 6.8125 0.125 C6.8125 0.785 6.8125 1.445 6.8125 2.125 C7.946875 2.24875 9.08125 2.3725 10.25 2.5 C11.425625 2.70625 12.60125 2.9125 13.8125 3.125 C14.1425 3.785 14.4725 4.445 14.8125 5.125 C14.01328125 4.9084375 13.2140625 4.691875 12.390625 4.46875 C4.70386291 2.51999341 -2.26965188 1.73980739 -10.1875 2.125 C-6.4507157 -0.36618953 -4.44298181 -0.0815226 0 0 Z " fill="#B198C4" transform="translate(823.1875,367.875)"/>
<path d="M0 0 C2.51424018 7.32874266 -0.66952537 16.84211364 -3 24 C-3.33 24 -3.66 24 -4 24 C-4 20.7 -4 17.4 -4 14 C-3.34 14 -2.68 14 -2 14 C-1.93941406 13.15695312 -1.87882813 12.31390625 -1.81640625 11.4453125 C-1.73261719 10.34960938 -1.64882813 9.25390625 -1.5625 8.125 C-1.48128906 7.03445313 -1.40007813 5.94390625 -1.31640625 4.8203125 C-1 2 -1 2 0 0 Z " fill="#AF97C2" transform="translate(777,498)"/>
<path d="M0 0 C0 0.66 0 1.32 0 2 C-14.51012146 7.70040486 -14.51012146 7.70040486 -20 6 C-16.535 5.505 -16.535 5.505 -13 5 C-13 4.34 -13 3.68 -13 3 C-11.2092015 2.49689942 -9.41733089 1.99761372 -7.625 1.5 C-6.62726562 1.2215625 -5.62953125 0.943125 -4.6015625 0.65625 C-2 0 -2 0 0 0 Z " fill="#AC92C0" transform="translate(855,461)"/>
<path d="M0 0 C2.44574056 4.89148113 -0.18310066 14.41447394 -1.8046875 19.546875 C-2.625 21.4375 -2.625 21.4375 -4 24 C-5.24026564 20.46110871 -4.72633193 18.28638693 -3.625 14.75 C-2.60041716 11.27573274 -1.76516516 7.97752497 -1.375 4.375 C-1 1 -1 1 0 0 Z " fill="#B8A3C9" transform="translate(713,488)"/>
<path d="M0 0 C2.0078125 0.23046875 2.0078125 0.23046875 5.0078125 2.23046875 C5.0078125 2.89046875 5.0078125 3.55046875 5.0078125 4.23046875 C4.3478125 4.23046875 3.6878125 4.23046875 3.0078125 4.23046875 C3.0078125 3.57046875 3.0078125 2.91046875 3.0078125 2.23046875 C-1.76795089 2.69868085 -5.03695095 3.47378873 -8.9921875 6.23046875 C-6.75287022 0.40824381 -6.4160108 0.13021424 0 0 Z " fill="#D0C1DB" transform="translate(958.9921875,370.76953125)"/>
<path d="M0 0 C0 0.33 0 0.66 0 1 C-1.010625 1.020625 -2.02125 1.04125 -3.0625 1.0625 C-8.12637044 1.72390349 -10.81696186 5.29451791 -14 9 C-14.57421875 7.1015625 -14.57421875 7.1015625 -15 5 C-11.0699888 -0.37791006 -6.11398212 -0.2037994 0 0 Z " fill="#D4C7DE" transform="translate(1005,492)"/>
<path d="M0 0 C-1.44077046 3.36179774 -3.24750021 5.59156268 -6 8 C-6.66 8 -7.32 8 -8 8 C-8.33 9.32 -8.66 10.64 -9 12 C-9.33 11.34 -9.66 10.68 -10 10 C-9.22265625 8.2734375 -9.22265625 8.2734375 -8.0625 6.375 C-7.381875 5.26125 -6.70125 4.1475 -6 3 C-5.34 3 -4.68 3 -4 3 C-4 2.34 -4 1.68 -4 1 C-2 0 -2 0 0 0 Z " fill="#D6C9E0" transform="translate(561,377)"/>
<path d="M0 0 C0.66 0.33 1.32 0.66 2 1 C-0.64 3.97 -3.28 6.94 -6 10 C-6.99 9.67 -7.98 9.34 -9 9 C-6.31941902 5.42589203 -3.57410797 2.68058098 0 0 Z " fill="#8C67A8" transform="translate(199,340)"/>
<path d="M0 0 C2.64 0 5.28 0 8 0 C8.08086147 1.79093191 8.13912702 3.58289628 8.1875 5.375 C8.22230469 6.37273437 8.25710938 7.37046875 8.29296875 8.3984375 C8.19628906 9.25695312 8.09960938 10.11546875 8 11 C7.01 11.66 6.02 12.32 5 13 C5.55312735 8.97007218 6.1558062 4.97977076 7 1 C4.69 1 2.38 1 0 1 C0 0.67 0 0.34 0 0 Z " fill="#C9B8D5" transform="translate(970,486)"/>
<path d="M0 0 C0.33 0.66 0.66 1.32 1 2 C0.67 2.66 0.34 3.32 0 4 C2.64 4.33 5.28 4.66 8 5 C8.33 4.01 8.66 3.02 9 2 C9 3.32 9 4.64 9 6 C5.37 6 1.74 6 -2 6 C-1 1 -1 1 0 0 Z " fill="#B49EC5" transform="translate(645,503)"/>
<path d="M0 0 C0.66 0 1.32 0 2 0 C2 2.31 2 4.62 2 7 C1.01 7 0.02 7 -1 7 C-1.99 7.33 -2.98 7.66 -4 8 C-3.625 6.0625 -3.625 6.0625 -3 4 C-2.34 3.67 -1.68 3.34 -1 3 C-0.67 2.01 -0.34 1.02 0 0 Z " fill="#DBD1E3" transform="translate(650,495)"/>
<path d="M0 0 C0.66 0.33 1.32 0.66 2 1 C-1.06093224 4.93548431 -3.49115974 7.68116787 -8 10 C-6.34908222 5.70761377 -3.26245434 3.1206085 0 0 Z " fill="#D7CBE1" transform="translate(804,374)"/>
<path d="M0 0 C0.99 0 1.98 0 3 0 C3 0.99 3 1.98 3 3 C2.34 3 1.68 3 1 3 C1.020625 4.051875 1.04125 5.10375 1.0625 6.1875 C1.01103198 9.32704904 0.73482813 11.96883396 0 15 C-0.33 15 -0.66 15 -1 15 C-1.09038099 9.84828377 -0.84681133 5.08086796 0 0 Z " fill="#CFC0DA" transform="translate(250,246)"/>
<path d="M0 0 C1.2380014 3.57644848 0.74926071 6.33694766 0 10 C-0.99 9.67 -1.98 9.34 -3 9 C-3.33 7.02 -3.66 5.04 -4 3 C-3.34 3.66 -2.68 4.32 -2 5 C-1.34 3.35 -0.68 1.7 0 0 Z " fill="#AB91BF" transform="translate(1047,502)"/>
<path d="M0 0 C0 0.99 0 1.98 0 3 C-2.97 3 -5.94 3 -9 3 C-4.5 -1.5 -4.5 -1.5 0 0 Z " fill="#9F92A7" transform="translate(618,472)"/>
<path d="M0 0 C1.76462683 3.08809695 2 4.23312136 2 8 C4.31 8 6.62 8 9 8 C9 8.33 9 8.66 9 9 C6.36 9 3.72 9 1 9 C-1.09230769 4.56923077 -1.09230769 4.56923077 -0.625 1.6875 C-0.41875 1.130625 -0.2125 0.57375 0 0 Z " fill="#DED4E6" transform="translate(627,514)"/>
<path d="M0 0 C0.66 0 1.32 0 2 0 C2 1.65 2 3.3 2 5 C0.68 5.33 -0.64 5.66 -2 6 C-2 6.99 -2 7.98 -2 9 C-2.66 9 -3.32 9 -4 9 C-2.80100302 5.9168649 -1.52299523 2.93720508 0 0 Z " fill="#DDD3E5" transform="translate(849,495)"/>
<path d="M0 0 C2.8045156 1.4022578 3.0442118 3.06070622 4.1875 5.9375 C4.55230469 6.83339844 4.91710937 7.72929687 5.29296875 8.65234375 C6 11 6 11 5 13 C1.68441485 8.61487125 0.45003347 5.62541841 0 0 Z " fill="#AC93C1" transform="translate(387,430)"/>
<path d="M0 0 C0.66 0.66 1.32 1.32 2 2 C1.828125 4.12890625 1.828125 4.12890625 1.25 6.5625 C1.06953125 7.36816406 0.8890625 8.17382812 0.703125 9.00390625 C0 11 0 11 -2 12 C-1.34 8.04 -0.68 4.08 0 0 Z " fill="#CABBD7" transform="translate(716,510)"/>
<path d="M0 0 C1.46067199 0.45082469 2.91848032 0.91093537 4.375 1.375 C5.18710937 1.63023437 5.99921875 1.88546875 6.8359375 2.1484375 C9 3 9 3 11 5 C3.49230769 4.50769231 3.49230769 4.50769231 1 1.9375 C0.67 1.298125 0.34 0.65875 0 0 Z " fill="#A184B8" transform="translate(432,459)"/>
<path d="M0 0 C2.64 0 5.28 0 8 0 C8.33 0.99 8.66 1.98 9 3 C5.7 2.67 2.4 2.34 -1 2 C-0.67 1.34 -0.34 0.68 0 0 Z " fill="#9572AE" transform="translate(225,366)"/>
<path d="M0 0 C-1.24176695 0.70226141 -2.49385599 1.38629109 -3.75 2.0625 C-4.79414062 2.63677734 -4.79414062 2.63677734 -5.859375 3.22265625 C-8.36140628 4.1312406 -9.5332355 3.88336837 -12 3 C-10.75823305 2.29773859 -9.50614401 1.61370891 -8.25 0.9375 C-7.20585938 0.36322266 -7.20585938 0.36322266 -6.140625 -0.22265625 C-3.63859372 -1.1312406 -2.4667645 -0.88336837 0 0 Z " fill="#9371AD" transform="translate(1059,336)"/>
<path d="M0 0 C1.65 0 3.3 0 5 0 C4.67 1.32 4.34 2.64 4 4 C2.68 3.67 1.36 3.34 0 3 C0 2.01 0 1.02 0 0 Z " fill="#C3BAC8" transform="translate(643,371)"/>
<path d="M0 0 C-0.33 2.97 -0.66 5.94 -1 9 C-2.5625 7.25 -2.5625 7.25 -4 5 C-3.8125 2.8125 -3.8125 2.8125 -3 1 C-1 0 -1 0 0 0 Z " fill="#AC93BF" transform="translate(299,248)"/>
<path d="M0 0 C0.66 0.33 1.32 0.66 2 1 C0.37660195 2.70884005 -1.29319053 4.37446717 -3 6 C-3.66 6 -4.32 6 -5 6 C-4.1875 3.5625 -4.1875 3.5625 -3 1 C-2.01 0.67 -1.02 0.34 0 0 Z " fill="#DFD5E6" transform="translate(297,240)"/>
<path d="M0 0 C-1.65 0.66 -3.3 1.32 -5 2 C-5 3.98 -5 5.96 -5 8 C-5.33 8 -5.66 8 -6 8 C-6 5.36 -6 2.72 -6 0 C-3.50907189 -1.24546405 -2.58919267 -0.7767578 0 0 Z " fill="#8862A4" transform="translate(751,488)"/>
<path d="M0 0 C1.65 0 3.3 0 5 0 C5 0.66 5 1.32 5 2 C6.45833358 3.62514468 6.45833358 3.62514468 8 5 C4.20411134 4.45773019 2.52788007 2.79872437 0 0 Z " fill="#8A7796" transform="translate(615,337)"/>
</svg>
