<?xml version="1.0" encoding="UTF-8"?>
<svg version="1.1" xmlns="http://www.w3.org/2000/svg" width="1280" height="720">
<path d="M0 0 C422.4 0 844.8 0 1280 0 C1280 237.6 1280 475.2 1280 720 C857.6 720 435.2 720 0 720 C0 482.4 0 244.8 0 0 Z " fill="#FEFEFE" transform="translate(0,0)"/>
<path d="M0 0 C0 0.66 0 1.32 0 2 C0.90878906 2.03867188 0.90878906 2.03867188 1.8359375 2.078125 C8.51604747 2.53031706 13.92814517 4.22244939 20 7 C20 7.66 20 8.32 20 9 C21.0828125 9.185625 21.0828125 9.185625 22.1875 9.375 C24.95721894 9.9904931 27.3970354 10.88444374 30 12 C30 12.66 30 13.32 30 14 C30.556875 14.061875 31.11375 14.12375 31.6875 14.1875 C34.99038567 15.34797334 36.58120525 17.47126004 39 20 C41.09149964 21.80629514 43.20252277 23.58555463 45.328125 25.3515625 C47 27 47 27 48 30 C48.99296296 31.00698786 49.99394323 32.00609368 51 33 C62 49.37978142 62 49.37978142 62 57 C62.66 57 63.32 57 64 57 C64.33 60.63 64.66 64.26 65 68 C65.66 68 66.32 68 67 68 C70.55403087 99.66895369 70.55403087 99.66895369 65 108 C64.6765617 109.53149419 64.41127295 111.07580264 64.1875 112.625 C63.15079768 118.17818841 60.8874789 122.21120303 58 127 C56.46465441 129.86623561 54.94577073 132.74072689 53.4296875 135.6171875 C52.11581208 137.80697986 50.85690716 139.27933331 49 141 C48.071875 142.2065625 48.071875 142.2065625 47.125 143.4375 C45 146 45 146 42.375 148 C39.56336315 150.36769419 38.63914648 151.36826071 38 155 C39.43446933 157.92556245 41.49005991 160.31434487 43.5625 162.8125 C44.15297119 163.55298584 44.74344238 164.29347168 45.35180664 165.05639648 C47.21665963 167.38604266 49.10617058 169.69387524 51 172 C52.18594731 173.46268975 53.3708735 174.92620813 54.5546875 176.390625 C56.19928039 178.42262022 57.84642157 180.45188353 59.50805664 182.4699707 C62.17174456 185.70723115 64.80298184 188.9697512 67.37890625 192.27734375 C67.88107666 192.91792725 68.38324707 193.55851074 68.90063477 194.21850586 C70 196 70 196 70 199 C62.40147833 199.17750412 54.80349107 199.30008105 47.20336914 199.38452148 C44.61820497 199.41972137 42.03318011 199.46748848 39.44848633 199.52807617 C35.73223524 199.61300682 32.01782575 199.65269522 28.30078125 199.68359375 C27.14540359 199.71972275 25.99002594 199.75585175 24.79963684 199.79307556 C16.97182577 199.79690505 16.97182577 199.79690505 14.12850952 197.46536255 C12.36780225 195.09253965 11 193.02451053 11 190 C10.34 190 9.68 190 9 190 C7.66796875 188.05859375 7.66796875 188.05859375 6.1875 185.4375 C4.29840747 182.16523898 2.37677274 179.03444019 0.125 176 C-2 173 -2 173 -2 171 C-2.7115625 171.16153564 -3.423125 171.32307129 -4.15625 171.48950195 C-9.07260951 172.37206615 -14.01726081 172.19042436 -19 172.1875 C-20.11818115 172.18814453 -21.2363623 172.18878906 -22.38842773 172.18945312 C-30.10597038 172.14007163 -37.44555993 171.68210196 -45 170 C-45 169.34 -45 168.68 -45 168 C-45.99257812 167.90976562 -46.98515625 167.81953125 -48.0078125 167.7265625 C-52.3948997 167.09353383 -55.96540302 165.39738398 -59.875 163.375 C-60.57536377 163.01744629 -61.27572754 162.65989258 -61.99731445 162.29150391 C-70.11308725 158.0414142 -76.26031742 153.09908108 -82 146 C-83.13416311 145.08943675 -84.28092421 144.19442054 -85.4375 143.3125 C-90.10868953 139.41984205 -92.34137053 134.36662341 -95 129 C-95.77537109 127.60587891 -95.77537109 127.60587891 -96.56640625 126.18359375 C-106.89325093 107.16045882 -108.70624617 81.19232952 -103.0625 60.25 C-102.41813421 58.15292424 -101.74277942 56.06427052 -101 54 C-100.67 53.01 -100.34 52.02 -100 51 C-99.34 51 -98.68 51 -98 51 C-98.0928125 49.948125 -98.0928125 49.948125 -98.1875 48.875 C-97.95743899 45.34739788 -96.70799432 43.06015649 -95 40 C-94.34 40 -93.68 40 -93 40 C-92.91492188 39.44570313 -92.82984375 38.89140625 -92.7421875 38.3203125 C-89.90675809 29.45586477 -79.31008189 20.45321437 -72 15 C-68.66796875 13.72265625 -68.66796875 13.72265625 -66 13 C-66 12.34 -66 11.68 -66 11 C-60.33492989 7.91099799 -55.49142565 5.42335385 -49 5 C-49 4.34 -49 3.68 -49 3 C-33.19113491 -2.27747508 -16.4165862 -2.42697128 0 0 Z " fill="#185183" transform="translate(298,238)"/>
<path d="M0 0 C30.69 0 61.38 0 93 0 C93 0.66 93 1.32 93 2 C93.89460937 2.01417969 94.78921875 2.02835938 95.7109375 2.04296875 C108.41266217 2.54399627 115.95261463 6.29593059 125 15 C125.928125 15.804375 126.85625 16.60875 127.8125 17.4375 C131.20244036 21.40857299 133 25.76163466 133 31 C133.66 31 134.32 31 135 31 C137.27321201 45.49172658 136.13387581 57.54500266 128 70 C125.9375 72.25 125.9375 72.25 124 74 C123.525625 74.556875 123.05125 75.11375 122.5625 75.6875 C120.49373756 77.42526045 118.63840503 77.64345878 116 78 C116 78.66 116 79.32 116 80 C114.02 80.33 112.04 80.66 110 81 C110 81.99 110 82.98 110 84 C111.98 84.33 113.96 84.66 116 85 C116 85.66 116 86.32 116 87 C116.680625 87.061875 117.36125 87.12375 118.0625 87.1875 C122.03918411 88.2874339 124.98421371 90.19407512 128 93 C129.4375 95.8125 129.4375 95.8125 130 98 C130.66 98 131.32 98 132 98 C132.84324672 99.578076 133.67423918 101.1627042 134.5 102.75 C134.9640625 103.63171875 135.428125 104.5134375 135.90625 105.421875 C137 108 137 108 137 112 C137.66 112 138.32 112 139 112 C139.02912348 115.72915017 139.04684037 119.4582709 139.0625 123.1875 C139.07087891 124.24259766 139.07925781 125.29769531 139.08789062 126.38476562 C139.09111328 127.40634766 139.09433594 128.42792969 139.09765625 129.48046875 C139.10289307 130.41785889 139.10812988 131.35524902 139.11352539 132.32104492 C139.00082657 134.98049477 138.59376649 137.40920573 138 140 C137.34 140 136.68 140 136 140 C135.94457031 140.86238281 135.88914062 141.72476563 135.83203125 142.61328125 C134.79550047 146.83239949 132.64292853 149.17089831 129.6875 152.1875 C129.20087891 152.70763672 128.71425781 153.22777344 128.21289062 153.76367188 C125.66545441 156.44825136 123.15437828 159.0428058 120 161 C119.01 161 118.02 161 117 161 C117 161.66 117 162.32 117 163 C113.5980513 165.09350689 110.94727588 165.17942163 107 165 C107 165.66 107 166.32 107 167 C94.45353095 168.96810913 82.20921398 169.26603634 69.53125 169.1953125 C67.74056117 169.1923626 65.9498706 169.19032801 64.15917969 169.18920898 C57.60609306 169.1788313 51.05304363 169.15090951 44.5 169.125 C29.815 169.08375 15.13 169.0425 0 169 C0 113.23 0 57.46 0 0 Z " fill="#175083" transform="translate(629,238)"/>
<path d="M0 0 C15.18 0 30.36 0 46 0 C46.01458252 3.26003906 46.02916504 6.52007812 46.04418945 9.87890625 C46.09456519 20.65970206 46.16116576 31.4403539 46.23571491 42.2210083 C46.28040939 48.756213 46.31966784 55.29135549 46.34643555 61.82666016 C46.37247729 68.13561718 46.4128866 74.44433469 46.46318626 80.75314331 C46.47984894 83.15799985 46.49136693 85.56289781 46.49761391 87.96780396 C46.50726115 91.34076952 46.53532938 94.71312313 46.56762695 98.0859375 C46.56619186 99.07640579 46.56475677 100.06687408 46.5632782 101.08735657 C46.6577886 108.08351748 47.35556083 114.17897057 52.33984375 119.49609375 C53.19707031 120.13675781 54.05429687 120.77742188 54.9375 121.4375 C55.79214844 122.09621094 56.64679687 122.75492187 57.52734375 123.43359375 C63.88955884 127.46400173 72.69973362 126.79576363 80 126 C84.95697076 124.71856367 88.53929261 122.90911059 91.6796875 118.8046875 C93.72663948 115.30058327 95.12791169 111.96485508 96 108 C96.66 108 97.32 108 98 108 C98 72.36 98 36.72 98 0 C113.18 0 128.36 0 144 0 C145.57477774 1.57477774 145.12597352 3.14041927 145.12698364 5.32751465 C145.12980347 6.26141525 145.13262329 7.19531586 145.13552856 8.15751648 C145.13249222 9.70666496 145.13249222 9.70666496 145.12939453 11.28710938 C145.13202301 12.90888847 145.13202301 12.90888847 145.13470459 14.56343079 C145.13912558 18.15688659 145.13618424 21.75029365 145.1328125 25.34375 C145.13348547 27.82857269 145.13445543 30.31339531 145.13571167 32.79821777 C145.13737858 38.68313375 145.13386577 44.56803187 145.1285609 50.45294523 C145.12480608 55.15369598 145.12613367 59.85442581 145.13037109 64.55517578 C145.13615037 71.0207429 145.13708453 77.48628971 145.13381577 83.95185852 C145.13314625 86.42393498 145.13397577 88.8960123 145.13629532 91.36808777 C145.13882039 94.81637898 145.1349833 98.26460435 145.12939453 101.71289062 C145.13141876 102.74565628 145.13344299 103.77842194 145.13552856 104.84248352 C145.13270874 105.77638412 145.12988892 106.71028473 145.12698364 107.67248535 C145.1264181 108.89698269 145.1264181 108.89698269 145.12584114 110.14621735 C145 112 145 112 144 113 C143.43725235 115.68544346 142.91938977 118.36253387 142.4375 121.0625 C142.29892578 121.82111328 142.16035156 122.57972656 142.01757812 123.36132812 C141.67488173 125.24024975 141.3369927 127.12004701 141 129 C140.34 129 139.68 129 139 129 C139 129.99 139 130.98 139 132 C138.34 132 137.68 132 137 132 C136.9175 132.680625 136.835 133.36125 136.75 134.0625 C134.43146798 143.14341708 127.94338411 148.23846851 121 154 C120.319375 154.70125 119.63875 155.4025 118.9375 156.125 C116.37454863 158.60527552 113.68666926 161 110 161 C110 161.66 110 162.32 110 163 C105.05 163.99 105.05 163.99 100 165 C100 165.66 100 166.32 100 167 C98.35 167 96.7 167 95 167 C95 167.66 95 168.32 95 169 C77.52502535 172.82265071 59.00632043 172.60208202 42 167 C42 166.34 42 165.68 42 165 C40.989375 164.9175 39.97875 164.835 38.9375 164.75 C34.59282288 164.13944456 31.64548275 162.40601861 28 160 C27.505 159.01 27.505 159.01 27 158 C26.29875 157.608125 25.5975 157.21625 24.875 156.8125 C21.06914243 154.41315501 17.88811423 151.45408474 15 148 C15 147.34 15 146.68 15 146 C14.34 146 13.68 146 13 146 C11 143 11 143 11 140 C10.34 140 9.68 140 9 140 C8.49384702 138.73160474 7.99530901 137.46016898 7.5 136.1875 C7.2215625 135.47980469 6.943125 134.77210938 6.65625 134.04296875 C6 132 6 132 6 129 C5.34 129 4.68 129 4 129 C3.514136 127.48129302 3.03668799 125.95989301 2.5625 124.4375 C2.29566406 123.59058594 2.02882813 122.74367188 1.75390625 121.87109375 C-0.08131296 114.88204649 -0.13879848 108.10906327 -0.11352539 100.92407227 C-0.11367142 99.83065018 -0.11381744 98.73722809 -0.1139679 97.610672 C-0.11327371 94.01256292 -0.10550443 90.41450623 -0.09765625 86.81640625 C-0.09579032 84.31534351 -0.09436724 81.8142804 -0.09336853 79.31321716 C-0.08994629 73.41314111 -0.08207245 67.51308427 -0.07201904 61.61301607 C-0.05971727 54.23224842 -0.0543681 46.85147842 -0.04882812 39.47070312 C-0.03811515 26.31379076 -0.02052953 13.15690071 0 0 Z " fill="#165082" transform="translate(790,238)"/>
<path d="M0 0 C15.51 0 31.02 0 47 0 C47.06058594 7.5590625 47.12117188 15.118125 47.18359375 22.90625 C47.2240978 27.7005264 47.26487603 32.49479733 47.30664062 37.2890625 C47.3728769 44.89548862 47.4381086 52.50191392 47.49731445 60.10839844 C47.54512111 66.2422016 47.5974693 72.37595086 47.65294075 78.50968933 C47.67329061 80.84757644 47.69201553 83.18547828 47.70907402 85.52339172 C47.73328177 88.80275789 47.76331317 92.08202366 47.79467773 95.36132812 C47.80331093 96.80495224 47.80331093 96.80495224 47.81211853 98.27774048 C47.86984341 103.60214799 48.23018038 108.72991714 49 114 C49.66 114 50.32 114 51 114 C51.5259375 115.3303125 51.5259375 115.3303125 52.0625 116.6875 C55.03399319 121.76779481 59.63240398 124.69270281 65 127 C67.41492452 127.27307821 67.41492452 127.27307821 69.984375 127.1953125 C70.91894531 127.18886719 71.85351562 127.18242187 72.81640625 127.17578125 C73.78449219 127.15902344 74.75257813 127.14226562 75.75 127.125 C76.73355469 127.11597656 77.71710938 127.10695313 78.73046875 127.09765625 C81.15389407 127.07412785 83.57682222 127.04125368 86 127 C86.41958984 126.09314453 86.41958984 126.09314453 86.84765625 125.16796875 C88.96760561 121.17958945 91.72035822 118.42654726 96 117 C96.13277344 116.21753906 96.26554687 115.43507813 96.40234375 114.62890625 C96.57894531 113.61699219 96.75554687 112.60507812 96.9375 111.5625 C97.11152344 110.55316406 97.28554688 109.54382813 97.46484375 108.50390625 C98 106 98 106 99 105 C99.10737146 103.64706324 99.14678638 102.28864581 99.15821838 100.9315033 C99.1680072 100.05505661 99.17779602 99.17860992 99.18788147 98.27560425 C99.19363693 97.30672272 99.1993924 96.33784119 99.20532227 95.33959961 C99.21522186 94.32508224 99.22512146 93.31056488 99.23532104 92.26530457 C99.26704128 88.89434179 99.2917349 85.5233649 99.31640625 82.15234375 C99.3369667 79.82206342 99.35796292 77.4917869 99.37937927 75.16151428 C99.43469386 69.01466953 99.4840616 62.86779061 99.53222656 56.72088623 C99.59118294 49.35288486 99.65746232 41.98494624 99.72252655 34.61699677 C99.82065407 23.41136935 99.9094294 12.20570253 100 1 C115.18 1 130.36 1 146 1 C146.0226175 14.79563043 146.04095362 28.59124848 146.05181217 42.38689327 C146.05702446 48.7931735 146.06409205 55.19944036 146.07543945 61.60571289 C146.08632713 67.79135329 146.0922893 73.97698084 146.09487724 80.16263008 C146.0967209 82.51924402 146.10032106 84.87585729 146.10573006 87.23246574 C146.11301853 90.54032775 146.11398765 93.84813708 146.11352539 97.15600586 C146.11712067 98.1241774 146.12071594 99.09234894 146.12442017 100.08985901 C146.10321878 114.16618013 143.45472539 126.1130446 136.5625 138.5 C136.19125 139.17039307 135.82 139.84078613 135.4375 140.53149414 C130.59867966 148.89300097 123.18243166 154.97896239 115 160 C114.34 160 113.68 160 113 160 C113 160.66 113 161.32 113 162 C111.35 162.33 109.7 162.66 108 163 C108 163.66 108 164.32 108 165 C104.12315913 166.19287411 101.08378077 167 97 167 C97 167.66 97 168.32 97 169 C79.19818151 172.51021773 60.61472653 172.35187361 43 168 C43 167.34 43 166.68 43 166 C42.01 166 41.02 166 40 166 C40 165.34 40 164.68 40 164 C39.195625 163.95875 38.39125 163.9175 37.5625 163.875 C30.31949873 162.09601723 25.09054573 157.25425394 20 152 C19.12859375 151.12601563 18.2571875 150.25203125 17.359375 149.3515625 C16.49828125 148.45179688 15.6371875 147.55203125 14.75 146.625 C13.87859375 145.73039063 13.0071875 144.83578125 12.109375 143.9140625 C9.65830945 140.52796084 9.26615047 138.12533221 9 134 C8.34 134 7.68 134 7 134 C4.46277118 128.81021378 3.31591913 123.96390034 2.4296875 118.2578125 C2.22679557 116.03931507 2.22679557 116.03931507 1 115 C0.0562457 108.38920841 -0.13853257 101.91694468 -0.11352539 95.24780273 C-0.11367142 94.21261002 -0.11381744 93.1774173 -0.1139679 92.1108551 C-0.113276 88.71841269 -0.10551771 85.32602647 -0.09765625 81.93359375 C-0.0957895 79.56991099 -0.09436681 77.20622784 -0.09336853 74.84254456 C-0.08956361 68.6431673 -0.07975072 62.44381374 -0.06866455 56.2444458 C-0.05660097 48.79452758 -0.05203854 41.34460141 -0.04621124 33.89467621 C-0.0365378 22.59643436 -0.01736707 11.29824444 0 0 Z " fill="#175082" transform="translate(386,239)"/>
<path d="M0 0 C0 0.66 0 1.32 0 2 C0.99 2 1.98 2 3 2 C3 2.66 3 3.32 3 4 C3.99 4.20625 4.98 4.4125 6 4.625 C14.30730561 7.053547 20.63728916 13.72881527 25 21 C25.69140625 23.77734375 25.69140625 23.77734375 26 26 C26.66 26 27.32 26 28 26 C31.45699791 33.66551711 32 38.16895556 32 47 C15.17 47 -1.66 47 -19 47 C-19.66 43.7 -20.32 40.4 -21 37 C-22.485 36.505 -22.485 36.505 -24 36 C-24.33 35.34 -24.66 34.68 -25 34 C-28.28654123 32.79797798 -31.53132769 32.86632832 -35 32.875 C-36.03125 32.87242187 -37.0625 32.86984375 -38.125 32.8671875 C-40.59657009 32.98136329 -42.6442958 33.28649344 -45 34 C-46.31761552 38.63843513 -46.59734105 43.21351393 -46 48 C-44.16343011 50.96731398 -44.16343011 50.96731398 -42 53 C-42 53.66 -42 54.32 -42 55 C-41.41734375 55.11730469 -40.8346875 55.23460937 -40.234375 55.35546875 C-37.87556428 56.03589492 -36.30547796 56.98466124 -34.25 58.3125 C-29.33718348 61.1443062 -24.33843038 62.36846997 -18.84863281 63.56762695 C-14.24597447 64.59012486 -10.26116241 66.04097209 -6 68 C-6 68.66 -6 69.32 -6 70 C-4.73736328 70.14115234 -4.73736328 70.14115234 -3.44921875 70.28515625 C0.46358815 71.09607773 3.69914234 72.56134391 7.1875 74.4375 C7.84024902 74.78804443 8.49299805 75.13858887 9.16552734 75.49975586 C17.89237195 80.38871152 26.08252286 87.18245478 31 96 C31.3125 99.4375 31.3125 99.4375 31 102 C31.66 102 32.32 102 33 102 C33.40049795 105.00373462 33.7331497 107.98286995 34 111 C34.11988281 112.33998047 34.11988281 112.33998047 34.2421875 113.70703125 C34.66563808 122.8112188 32.00717812 130.53694158 29 139 C28.34 139 27.68 139 27 139 C26.731875 139.721875 26.46375 140.44375 26.1875 141.1875 C22.79635329 149.21916327 17.30212361 153.51915142 10 158 C9.34 158 8.68 158 8 158 C8 158.66 8 159.32 8 160 C4.62902617 161.49821059 2.79557881 162 -1 162 C-1 162.66 -1 163.32 -1 164 C-2.32 164 -3.64 164 -5 164 C-5 164.66 -5 165.32 -5 166 C-13.29405059 167.85656301 -21.20628114 168.27707374 -29.6875 168.1875 C-30.85861328 168.18685547 -32.02972656 168.18621094 -33.23632812 168.18554688 C-39.2465129 168.15503832 -45.05836853 167.91578783 -51 167 C-51 166.34 -51 165.68 -51 165 C-52.19625 164.979375 -53.3925 164.95875 -54.625 164.9375 C-61.7393955 164.2089859 -67.82241609 160.36559692 -74 157 C-74 156.34 -74 155.68 -74 155 C-74.845625 154.835 -75.69125 154.67 -76.5625 154.5 C-85.27487996 150.6982342 -90.66705823 140.46459161 -94.1875 132 C-96.48701666 125.93933059 -98 120.5537942 -98 114 C-81.5 114 -65 114 -48 114 C-47.34 116.64 -46.68 119.28 -46 122 C-44.56932246 126.29203261 -41.90220531 127.8409567 -38 130 C-35.18250771 130.45760056 -32.46959742 130.38374237 -29.625 130.25 C-28.88894531 130.23195313 -28.15289063 130.21390625 -27.39453125 130.1953125 C-25.59578264 130.14859176 -23.79771289 130.07686183 -22 130 C-22 129.34 -22 128.68 -22 128 C-20.125 125.875 -20.125 125.875 -18 124 C-17.34 124 -16.68 124 -16 124 C-16.03707507 116.51530544 -16.03707507 116.51530544 -19.25 110 C-23.89649202 106.62073308 -28.31197576 104.38518174 -33.75 102.5 C-34.97847656 102.07203125 -36.20695313 101.6440625 -37.47265625 101.203125 C-41.64181581 99.78108608 -45.81279659 98.36800465 -50 97 C-50.99 96.67 -51.98 96.34 -53 96 C-53 95.34 -53 94.68 -53 94 C-54.2684375 93.82210937 -54.2684375 93.82210937 -55.5625 93.640625 C-64.00347681 92.06753387 -73.06206838 89.46186677 -79 83 C-79 82.34 -79 81.68 -79 81 C-79.73605469 80.77183594 -80.47210937 80.54367187 -81.23046875 80.30859375 C-84.56593057 78.7325998 -86.05401899 76.95896999 -88.3125 74.0625 C-89.00988281 73.18722656 -89.70726562 72.31195313 -90.42578125 71.41015625 C-92 69 -92 69 -92 66 C-92.66 66 -93.32 66 -94 66 C-94.33 63.36 -94.66 60.72 -95 58 C-95.66 58 -96.32 58 -97 58 C-97.08783475 54.0001407 -97.14067102 50.00053296 -97.1875 46 C-97.21263672 44.87464844 -97.23777344 43.74929688 -97.26367188 42.58984375 C-97.32174801 35.96916466 -96.8105193 31.01937992 -94 25 C-93.34 25 -92.68 25 -92 25 C-91.7834375 23.576875 -91.7834375 23.576875 -91.5625 22.125 C-89.92241811 16.35521552 -85.45519047 11.831744 -81 8 C-77.703125 6.70703125 -77.703125 6.70703125 -75 6 C-75 5.34 -75 4.68 -75 4 C-73.06879927 3.01745928 -71.13547808 2.03885269 -69.19140625 1.08203125 C-67.40828517 0.20159535 -65.63935463 -0.70753559 -63.875 -1.625 C-45.35515816 -9.17317607 -18.39404302 -6.35738814 0 0 Z " fill="#185183" transform="translate(1054,241)"/>
<path d="M0 0 C3.3 0.33 6.6 0.66 10 1 C10 1.66 10 2.32 10 3 C18.58 3 27.16 3 36 3 C36 2.34 36 1.68 36 1 C39.3 0.67 42.6 0.34 46 0 C46.05868218 3.9791034 46.0938239 7.95809353 46.125 11.9375 C46.14175781 13.05447266 46.15851562 14.17144531 46.17578125 15.32226562 C46.21430039 21.88977896 45.70947839 27.65339322 44 34 C43.34 34 42.68 34 42 34 C41.90912109 35.19882812 41.90912109 35.19882812 41.81640625 36.421875 C41.24202655 43.95066739 40.63714523 51.47626372 40 59 C39.34 59 38.68 59 38 59 C38.09504999 63.17717644 38.20143114 67.35388136 38.31738281 71.53051758 C38.35517053 72.94515523 38.39010066 74.35987272 38.421875 75.7746582 C38.6310919 84.98347074 39.34211231 93.91964975 41 103 C41.14115234 103.80139404 41.28230469 104.60278809 41.42773438 105.4284668 C41.79149442 107.45496668 42.17623479 109.47766908 42.5625 111.5 C42.68818359 112.16257812 42.81386719 112.82515625 42.94335938 113.5078125 C43.60945215 117.0091588 44.29455727 120.50637886 45 124 C45.66 124 46.32 124 47 124 C47 138.85 47 153.7 47 169 C31.49 169 15.98 169 0 169 C-0.0928125 158.8834375 -0.0928125 158.8834375 -0.1875 148.5625 C-0.22846802 145.39636108 -0.22846802 145.39636108 -0.27026367 142.16625977 C-0.27903728 140.46631439 -0.28667914 138.76636263 -0.29296875 137.06640625 C-0.30831665 136.20559448 -0.32366455 135.34478271 -0.33947754 134.45788574 C-0.3417207 129.18870667 0.40292649 124.90986364 2.28271484 119.97839355 C3.35362393 117.0246455 3.76278912 114.04115642 4.1875 110.9375 C4.34605469 109.81214844 4.50460937 108.68679688 4.66796875 107.52734375 C4.83232422 106.27630859 4.83232422 106.27630859 5 105 C5.66 105 6.32 105 7 105 C7.02507122 99.04500623 7.04303204 93.09004445 7.05493164 87.13500977 C7.05990226 85.11710066 7.06668108 83.09919505 7.07543945 81.08129883 C7.12784874 68.67879498 6.92123888 56.37077378 6 44 C5.34 44 4.68 44 4 44 C3.87882813 43.27554688 3.75765625 42.55109375 3.6328125 41.8046875 C3.46523438 40.83789062 3.29765625 39.87109375 3.125 38.875 C2.96257813 37.92367187 2.80015625 36.97234375 2.6328125 35.9921875 C2.07437418 32.99469045 2.07437418 32.99469045 0.97265625 30.21875 C-0.06165736 26.79596119 -0.22927592 24.07397174 -0.1953125 20.5078125 C-0.18886719 19.30898438 -0.18242188 18.11015625 -0.17578125 16.875 C-0.15902344 15.6375 -0.14226563 14.4 -0.125 13.125 C-0.11597656 11.86429688 -0.10695313 10.60359375 -0.09765625 9.3046875 C-0.07415808 6.2029296 -0.04130334 3.10156348 0 0 Z " fill="#195183" transform="translate(554,240)"/>
<path d="M0 0 C3.49053578 3.02513101 5.7021127 6.03092194 8 10 C8.53625 10.433125 9.0725 10.86625 9.625 11.3125 C11.93610368 14.14885452 11.70639593 17.41803037 12 21 C12.66 21 13.32 21 14 21 C17.36052948 33.98140015 16.28723556 51.16359565 10 63 C9.34 63 8.68 63 8 63 C7.74734375 63.73992187 7.4946875 64.47984375 7.234375 65.2421875 C4.38181189 71.61531901 -1.57573681 76.48615788 -8 79 C-8.825 79.350625 -9.65 79.70125 -10.5 80.0625 C-15.32963052 81.35615103 -19.90124864 81.21261351 -24.875 81.125 C-26.33679688 81.11146484 -26.33679688 81.11146484 -27.828125 81.09765625 C-30.21900728 81.07421623 -32.60937261 81.04140442 -35 81 C-35 80.34 -35 79.68 -35 79 C-36.98 78.67 -38.96 78.34 -41 78 C-41 77.34 -41 76.68 -41 76 C-41.845625 76.165 -42.69125 76.33 -43.5625 76.5 C-48.25542087 75.81739333 -49.56018351 73.57107494 -52.38671875 69.9453125 C-54.03314109 67.77108713 -54.03314109 67.77108713 -57 66 C-59.00800407 61.45964659 -60.47346006 56.72077248 -62 52 C-62.25265625 51.25878906 -62.5053125 50.51757812 -62.765625 49.75390625 C-66.26823789 38.12022774 -64.24369829 24.93631993 -59 14.203125 C-57.89371381 11.91498081 -57.89371381 11.91498081 -57.16015625 8.99609375 C-54.89824315 3.1547222 -49.08561245 -0.58333517 -43.515625 -3.140625 C-41.34866321 -3.88233675 -39.23393171 -4.49850513 -37 -5 C-36.23816406 -5.18304688 -35.47632813 -5.36609375 -34.69140625 -5.5546875 C-22.9009926 -7.50549615 -10.23275999 -6.49343632 0 0 Z " fill="#FBFCFD" transform="translate(303,286)"/>
<path d="M0 0 C20.78355912 -0.68853509 20.78355912 -0.68853509 29.3125 6.25 C32.79331394 9.53627743 35.02540569 12.63943757 37 17 C37 18.32 37 19.64 37 21 C37.66 21 38.32 21 39 21 C41.5600029 29.97041668 40.17579808 38.73984468 36 47 C35.01 47.495 35.01 47.495 34 48 C33.5875 48.763125 33.175 49.52625 32.75 50.3125 C30.60076515 53.61311066 28.3516729 54.96270863 25 57 C24.175 57.721875 23.35 58.44375 22.5 59.1875 C15.36187133 62.88403092 5.83037841 62.97169041 -1.91015625 60.8671875 C-5.2420937 59.48458916 -8.08655264 57.54479739 -10.99609375 55.4296875 C-13.04931199 53.87306864 -13.04931199 53.87306864 -15.8125 52.6875 C-20.46186314 49.10084843 -22.14399237 42.63118747 -23 37 C-23.09097204 34.81399532 -23.13007043 32.62539091 -23.125 30.4375 C-23.12757813 29.32246094 -23.13015625 28.20742188 -23.1328125 27.05859375 C-23.02206147 24.50806272 -22.7467862 22.42409171 -22 20 C-21.34 20 -20.68 20 -20 20 C-19.896875 19.071875 -19.79375 18.14375 -19.6875 17.1875 C-18.94302831 13.73585853 -18.56437546 13.1980361 -16 11 C-15.175 9.989375 -14.35 8.97875 -13.5 7.9375 C-10.45596764 4.36076198 -8.41244902 2.827454 -3.8125 2.375 C-2.554375 2.25125 -1.29625 2.1275 0 2 C0 1.34 0 0.68 0 0 Z " fill="#7C7C7C" transform="translate(737,460)"/>
<path d="M0 0 C2.6875 2.25 2.6875 2.25 5 5 C5.68255859 5.71736328 5.68255859 5.71736328 6.37890625 6.44921875 C11.98561618 12.53513465 11.2228718 19.63862761 11.15625 27.5 C10.95637239 31.97725854 10.37448052 35.73187629 9 40 C8.01 40.33 7.02 40.66 6 41 C5.30798893 42.32035711 4.6439585 43.65555228 4 45 C2.4140625 46.66796875 2.4140625 46.66796875 0.625 48.1875 C0.03976562 48.69667969 -0.54546875 49.20585937 -1.1484375 49.73046875 C-6.90599835 53.67816343 -16.29583092 52.88854377 -23 52 C-30.64556038 49.53632953 -36.16538727 45.04627394 -40 38 C-43.47770826 29.77996229 -43.03487251 20.10095403 -39.859375 11.84765625 C-38.81904376 9.61094408 -37.75093616 7.75093616 -36 6 C-35.34 6 -34.68 6 -34 6 C-34 5.34 -34 4.68 -34 4 C-32.58671871 3.18162558 -31.16921654 2.37053781 -29.75 1.5625 C-28.56664062 0.88380859 -28.56664062 0.88380859 -27.359375 0.19140625 C-19.37116512 -3.84237523 -8.21236612 -3.07963729 0 0 Z " fill="#E5BD32" transform="translate(591,189)"/>
<path d="M0 0 C3.96 0 7.92 0 12 0 C14.56834049 2.68508324 16 4.22212653 16 8 C16.66 8 17.32 8 18 8 C18 8.66 18 9.32 18 10 C18.66 10 19.32 10 20 10 C20 11.32 20 12.64 20 14 C20.66 14 21.32 14 22 14 C22.33 15.32 22.66 16.64 23 18 C23.66 18 24.32 18 25 18 C25.33 19.32 25.66 20.64 26 22 C26.66 22 27.32 22 28 22 C28 23.65 28 25.3 28 27 C28.99 27.33 29.98 27.66 31 28 C33.2825056 31.55802344 35.32359407 34.77246293 36 39 C37.65 39.33 39.3 39.66 41 40 C41 26.8 41 13.6 41 0 C51 0 51 0 53 1 C53.02312821 8.67536627 53.04091753 16.35072896 53.05181217 24.02612209 C53.05703995 27.58977422 53.06413569 31.15340257 53.07543945 34.71704102 C53.08834176 38.81006097 53.09322906 42.9030558 53.09765625 46.99609375 C53.10281754 48.28148544 53.10797882 49.56687714 53.11329651 50.89122009 C53.11337204 52.07236893 53.11344757 53.25351776 53.11352539 54.47045898 C53.115746 55.51636703 53.11796661 56.56227509 53.12025452 57.63987732 C53 60 53 60 52 61 C47.94432361 61.48471775 44.04748852 61.57743443 40 61 C36.94952847 58.01885737 36.1166304 56.34124961 35.75 52.125 C35.8325 51.42375 35.915 50.7225 36 50 C35.34 50 34.68 50 34 50 C34 48.68 34 47.36 34 46 C33.360625 45.896875 32.72125 45.79375 32.0625 45.6875 C31.381875 45.460625 30.70125 45.23375 30 45 C29.67 44.01 29.34 43.02 29 42 C28.34 41.67 27.68 41.34 27 41 C26.03608504 39.30483921 25.07514582 37.60783997 24.13671875 35.8984375 C22.40561308 33.00731256 20.18010453 30.56162282 18 28 C16.9171875 26.3603125 16.9171875 26.3603125 15.8125 24.6875 C14.27484577 21.93263584 14.27484577 21.93263584 12 21 C12.00523682 22.17618896 12.01047363 23.35237793 12.01586914 24.56420898 C12.03391663 28.91202031 12.04543108 33.2598283 12.05493164 37.60766602 C12.05997244 39.4924373 12.06680498 41.37720465 12.07543945 43.26196289 C12.08751617 45.96501636 12.09323068 48.66801831 12.09765625 51.37109375 C12.10281754 52.21900986 12.10797882 53.06692596 12.11329651 53.9405365 C12.11349195 55.96071068 12.06206211 57.98077934 12 60 C11.505 60.495 11.505 60.495 11 61 C7.37 61 3.74 61 0 61 C0 40.87 0 20.74 0 0 Z " fill="#7A7A7A" transform="translate(612,461)"/>
<path d="M0 0 C3.96 0 7.92 0 12 0 C12 20.46 12 40.92 12 62 C8.37 62 4.74 62 1 62 C0 61 0 61 -0.11352539 58.59155273 C-0.10828857 57.54942627 -0.10305176 56.5072998 -0.09765625 55.43359375 C-0.09515869 54.42095459 -0.09266113 53.40831543 -0.09008789 52.36499023 C-0.08098389 51.06891846 -0.07187988 49.77284668 -0.0625 48.4375 C-0.041875 44.333125 -0.02125 40.22875 0 36 C-8.91 36 -17.82 36 -27 36 C-27 44.58 -27 53.16 -27 62 C-30.96 62 -34.92 62 -39 62 C-39.02255497 54.19424413 -39.04091738 46.38850593 -39.05181217 38.58272648 C-39.05704002 34.9585404 -39.06413587 31.3343777 -39.07543945 27.71020508 C-39.08627184 24.21540025 -39.09227758 20.72061796 -39.09487724 17.22579765 C-39.09763551 15.23760611 -39.10544688 13.24942369 -39.11329651 11.26124573 C-39.11337204 10.06007614 -39.11344757 8.85890656 -39.11352539 7.62133789 C-39.115746 6.55766495 -39.11796661 5.493992 -39.12025452 4.39808655 C-39 2 -39 2 -38 1 C-34.37 1 -30.74 1 -27 1 C-27 9.25 -27 17.5 -27 26 C-18.09 26 -9.18 26 0 26 C0 17.42 0 8.84 0 0 Z " fill="#7B7B7C" transform="translate(548,460)"/>
<path d="M0 0 C0 0.66 0 1.32 0 2 C0.7425 2.0825 1.485 2.165 2.25 2.25 C6.88414903 3.51385883 8.8658494 6.60564655 11.25 10.5625 C13 14 13 14 13 17 C11.06440687 17.13504138 9.126128 17.23201129 7.1875 17.3125 C6.10855469 17.37050781 5.02960938 17.42851562 3.91796875 17.48828125 C1 17 1 17 -0.75 14.5625 C-1.1625 13.716875 -1.575 12.87125 -2 12 C-4.06700655 10.67206394 -4.06700655 10.67206394 -6 10 C-6 9.34 -6 8.68 -6 8 C-11.94 8 -17.88 8 -24 8 C-24 8.66 -24 9.32 -24 10 C-24.928125 10.12375 -24.928125 10.12375 -25.875 10.25 C-28.14785979 10.80581505 -28.14785979 10.80581505 -29.1875 12.875 C-29.83464059 14.56752155 -30.42698864 16.28096593 -31 18 C-31.66 18 -32.32 18 -33 18 C-33.05444001 21.00024947 -33.0938836 23.99949039 -33.125 27 C-33.14175781 27.83917969 -33.15851563 28.67835938 -33.17578125 29.54296875 C-33.21845226 35.04752882 -32.67394529 39.74072509 -31 45 C-29.30136062 46.51617907 -29.30136062 46.51617907 -27 47 C-26.175 47.37125 -25.35 47.7425 -24.5 48.125 C-17.2320674 49.94198315 -8.94366289 50.01898387 -2 47 C-0.54780623 45.09831644 -0.54780623 45.09831644 0 43 C0.495 42.01 0.495 42.01 1 41 C4.63 41 8.26 41 12 41 C12 41.99 12 42.98 12 44 C11.34 44 10.68 44 10 44 C9.87625 44.556875 9.7525 45.11375 9.625 45.6875 C8.92239096 48.28715346 8.23342762 50.598062 7 53 C4.875 53.8125 4.875 53.8125 3 54 C3 54.66 3 55.32 3 56 C-3.8413083 58.86439824 -9.57002855 60.79068953 -17 60 C-17.886875 59.92910156 -18.77375 59.85820313 -19.6875 59.78515625 C-27.00947491 58.8800788 -31.8026724 56.21977826 -37 51 C-38.9375 48.125 -38.9375 48.125 -40 46 C-40.66 45.67 -41.32 45.34 -42 45 C-45.53757665 38.00231188 -47.28657669 30.78325732 -46 23 C-44.60718182 18.85528153 -42.91875907 14.92660339 -41 11 C-40.34 11 -39.68 11 -39 11 C-38.5978125 9.8553125 -38.5978125 9.8553125 -38.1875 8.6875 C-35.81342552 3.31459459 -31.58914325 1.31895214 -26.37890625 -0.984375 C-17.73081689 -3.5838007 -8.51010446 -2.74483939 0 0 Z " fill="#7C7C7C" transform="translate(444,462)"/>
<path d="M0 0 C5.176875 -0.020625 10.35375 -0.04125 15.6875 -0.0625 C18.12515747 -0.07615601 18.12515747 -0.07615601 20.61206055 -0.09008789 C21.89894775 -0.09258545 23.18583496 -0.09508301 24.51171875 -0.09765625 C25.82615967 -0.10289307 27.14060059 -0.10812988 28.49487305 -0.11352539 C31.48205125 -0.01677552 34.10592611 0.29656236 37 1 C37 1.66 37 2.32 37 3 C37.556875 3.04125 38.11375 3.0825 38.6875 3.125 C42.34159971 4.50763232 44.39525155 6.51775929 46 10 C46.84135505 15.73128181 47.35597908 20.93968823 44.08984375 25.90234375 C43.40019531 26.59457031 42.71054687 27.28679687 42 28 C41.34 28 40.68 28 40 28 C40 28.66 40 29.32 40 30 C39.01 30 38.02 30 37 30 C37 30.66 37 31.32 37 32 C24.79 32 12.58 32 0 32 C0 21.44 0 10.88 0 0 Z " fill="#F4F7F9" transform="translate(675,338)"/>
<path d="M0 0 C4.79860598 3.01491362 7.73389805 6.00199215 10.5625 10.8671875 C11.2225 11.1971875 11.8825 11.5271875 12.5625 11.8671875 C12.5625 17.4771875 12.5625 23.0871875 12.5625 28.8671875 C11.9025 28.8671875 11.2425 28.8671875 10.5625 28.8671875 C10.294375 29.9396875 10.02625 31.0121875 9.75 32.1171875 C8.05778706 37.46101783 8.05778706 37.46101783 5.5625 39.8671875 C0.98088727 41.76605649 -2.87868791 42.08527829 -7.8125 41.9921875 C-9.05773437 41.97414063 -10.30296875 41.95609375 -11.5859375 41.9375 C-12.52695312 41.91429687 -13.46796875 41.89109375 -14.4375 41.8671875 C-14.4375 41.2071875 -14.4375 40.5471875 -14.4375 39.8671875 C-15.30375 39.774375 -15.30375 39.774375 -16.1875 39.6796875 C-19.35049331 38.53749547 -20.45158277 36.53576377 -22.4375 33.8671875 C-23.47390625 33.05314453 -23.47390625 33.05314453 -24.53125 32.22265625 C-27.26199705 28.84839299 -27.02305595 25.64165109 -26.9375 21.4921875 C-26.95296875 20.7496875 -26.9684375 20.0071875 -26.984375 19.2421875 C-26.94718161 13.97932282 -25.78015528 11.09539698 -22.4375 6.8671875 C-21.7775 5.8771875 -21.1175 4.8871875 -20.4375 3.8671875 C-19.7775 3.8671875 -19.1175 3.8671875 -18.4375 3.8671875 C-18.1075 2.8771875 -17.7775 1.8871875 -17.4375 0.8671875 C-11.88821014 -1.76872518 -5.65855828 -2.62977869 0 0 Z " fill="#F9F9F9" transform="translate(752.4375,470.1328125)"/>
<path d="M0 0 C4.12744949 2.89799645 6.70791472 6.55432757 8.9375 11.0625 C8.9375 12.0525 8.9375 13.0425 8.9375 14.0625 C7.1687602 14.19763292 5.39706945 14.29455586 3.625 14.375 C2.63886719 14.43300781 1.65273438 14.49101562 0.63671875 14.55078125 C-0.25402344 14.38964844 -1.14476562 14.22851562 -2.0625 14.0625 C-2.5265625 13.2478125 -2.990625 12.433125 -3.46875 11.59375 C-3.9946875 10.7584375 -4.520625 9.923125 -5.0625 9.0625 C-8.47184596 8.23945987 -8.47184596 8.23945987 -12.25 8.25 C-13.52230469 8.20230469 -14.79460938 8.15460938 -16.10546875 8.10546875 C-17.08128906 8.09128906 -18.05710937 8.07710938 -19.0625 8.0625 C-19.9348412 11.05730917 -20.17079766 13.69825911 -20.125 16.8125 C-20.11146484 18.01132812 -20.11146484 18.01132812 -20.09765625 19.234375 C-20.08605469 19.83765625 -20.07445312 20.4409375 -20.0625 21.0625 C-16.75233906 22.91040538 -13.49076509 23.80791487 -9.8125 24.6875 C-8.73484375 24.94789063 -7.6571875 25.20828125 -6.546875 25.4765625 C-5.72703125 25.66992188 -4.9071875 25.86328125 -4.0625 26.0625 C-4.0625 26.7225 -4.0625 27.3825 -4.0625 28.0625 C-2.7425 28.0625 -1.4225 28.0625 -0.0625 28.0625 C-0.0625 28.7225 -0.0625 29.3825 -0.0625 30.0625 C0.53175781 30.17464844 1.12601563 30.28679687 1.73828125 30.40234375 C5.45735935 31.51872776 7.74553512 33.91662448 9.9375 37.0625 C11.18871553 41.03739812 11.41999028 45.10919259 9.9375 49.0625 C9.2775 49.0625 8.6175 49.0625 7.9375 49.0625 C7.875625 49.619375 7.81375 50.17625 7.75 50.75 C6.57223177 54.10210959 4.60314604 55.76035114 1.9375 58.0625 C-6.3604481 61.93579471 -14.32549737 61.45213957 -22.9453125 58.94921875 C-25.0625 58.0625 -25.0625 58.0625 -26.0625 56.0625 C-26.866875 55.60875 -27.67125 55.155 -28.5 54.6875 C-31.25902297 52.93787568 -32.07243319 52.12270652 -33.0625 49.0625 C-33.0625 47.4125 -33.0625 45.7625 -33.0625 44.0625 C-29.1025 44.0625 -25.1425 44.0625 -21.0625 44.0625 C-20.629375 45.031875 -20.19625 46.00125 -19.75 47 C-18.3610139 50.33981765 -18.3610139 50.33981765 -15.0625 51.0625 C-13.41878509 51.15579934 -11.77135323 51.19245144 -10.125 51.1875 C-9.27035156 51.19007813 -8.41570313 51.19265625 -7.53515625 51.1953125 C-5.23569148 51.07180254 -3.26609652 50.70670687 -1.0625 50.0625 C-1.00827053 48.6254191 -0.96960277 47.18774538 -0.9375 45.75 C-0.91429687 44.94949219 -0.89109375 44.14898437 -0.8671875 43.32421875 C-0.90432678 40.77861424 -0.90432678 40.77861424 -3.0625 38.0625 C-4.5475 37.5675 -4.5475 37.5675 -6.0625 37.0625 C-6.0625 36.4025 -6.0625 35.7425 -6.0625 35.0625 C-7.114375 35.000625 -8.16625 34.93875 -9.25 34.875 C-16.35365919 33.96167239 -25.18299813 31.63909521 -30.3125 26.375 C-33.00405804 21.28026515 -33.72649454 16.46401587 -32.6171875 10.78125 C-31.13950875 6.22932006 -29.24471145 3.59127902 -25.0625 1.0625 C-17.60613789 -1.92219986 -7.72430982 -2.56322389 0 0 Z " fill="#7D7D7D" transform="translate(858.0625,460.9375)"/>
<path d="M0 0 C0.84626953 -0.020625 1.69253906 -0.04125 2.56445312 -0.0625 C7.39755806 -0.09277787 10.65843578 0.07748128 14.5625 3.25 C17.70667521 7.18021901 19.0854205 10.24066523 19.5625 15.25 C15.8382549 15.59674006 12.27172001 15.80556599 8.5625 15.25 C7.6653125 13.765 7.6653125 13.765 6.75 12.25 C6.028125 11.26 5.30625 10.27 4.5625 9.25 C-0.1370072 8.68935704 -4.72530119 8.90981452 -9.4375 9.25 C-10.0975 12.55 -10.7575 15.85 -11.4375 19.25 C-10.7775 19.25 -10.1175 19.25 -9.4375 19.25 C-9.4375 19.91 -9.4375 20.57 -9.4375 21.25 C-8.7775 21.25 -8.1175 21.25 -7.4375 21.25 C-7.1075 21.91 -6.7775 22.57 -6.4375 23.25 C-4.69199222 23.9147328 -4.69199222 23.9147328 -2.578125 24.36328125 C-1.79179688 24.55986328 -1.00546875 24.75644531 -0.1953125 24.95898438 C1.4591442 25.35713634 3.11539142 25.74792968 4.7734375 26.13085938 C10.06144701 27.47008654 12.95552397 28.94166752 16.5625 33.25 C17.43455078 34.01570313 17.43455078 34.01570313 18.32421875 34.796875 C20.80172667 37.70423446 20.55025745 41.57723375 20.5625 45.25 C19.61497533 51.56683112 17.45259056 53.6084432 12.5625 57.25 C12.0675 58.24 12.0675 58.24 11.5625 59.25 C3.75156966 62.13239343 -5.77884947 62.63405489 -13.4375 59.25 C-16.50989288 57.78363067 -18.0590011 56.9870768 -19.625 53.9375 C-19.893125 53.050625 -20.16125 52.16375 -20.4375 51.25 C-20.80875 50.156875 -21.18 49.06375 -21.5625 47.9375 C-21.85125 47.050625 -22.14 46.16375 -22.4375 45.25 C-12.33617004 44.6230209 -12.33617004 44.6230209 -8.75 47.125 C-7.4375 49.25 -7.4375 49.25 -7.4375 51.25 C-5.7084226 51.27725341 -3.97921824 51.29650987 -2.25 51.3125 C-0.80560547 51.32990234 -0.80560547 51.32990234 0.66796875 51.34765625 C3.93853061 51.3160089 3.93853061 51.3160089 8.5625 50.25 C8.5625 46.29 8.5625 42.33 8.5625 38.25 C7.2425 37.92 5.9225 37.59 4.5625 37.25 C4.5625 36.59 4.5625 35.93 4.5625 35.25 C3.69625 35.29125 2.83 35.3325 1.9375 35.375 C-1.56108468 35.24542279 -4.18301597 34.48980344 -7.4375 33.25 C-7.4375 32.59 -7.4375 31.93 -7.4375 31.25 C-8.4275 31.20875 -9.4175 31.1675 -10.4375 31.125 C-14.54805386 30.46932883 -17.64135153 28.98310091 -20.89453125 26.390625 C-24.08201324 21.96849809 -23.20116406 16.40786221 -22.4375 11.25 C-21.82238929 9.23354686 -21.16989688 7.22687613 -20.4375 5.25 C-18.4575 4.92 -16.4775 4.59 -14.4375 4.25 C-14.1075 3.26 -13.7775 2.27 -13.4375 1.25 C-9.18640858 -0.35322236 -4.48036689 0.02717433 0 0 Z " fill="#7B7B7B" transform="translate(1037.4375,460.75)"/>
<path d="M0 0 C11.55 0 23.1 0 35 0 C35 2.97 35 5.94 35 9 C27.08 9 19.16 9 11 9 C11 14.28 11 19.56 11 25 C17.93 25 24.86 25 32 25 C32 27.97 32 30.94 32 34 C25.07 34 18.14 34 11 34 C11 39.61 11 45.22 11 51 C13.47306641 50.98259766 13.47306641 50.98259766 15.99609375 50.96484375 C18.14322804 50.95546762 20.29036355 50.94636723 22.4375 50.9375 C23.52611328 50.92912109 24.61472656 50.92074219 25.73632812 50.91210938 C26.77080078 50.90888672 27.80527344 50.90566406 28.87109375 50.90234375 C29.82943115 50.89710693 30.78776855 50.89187012 31.77514648 50.88647461 C34 51 34 51 35 52 C35 54.64 35 57.28 35 60 C23.45 60 11.9 60 0 60 C0 40.2 0 20.4 0 0 Z " fill="#7D7D7D" transform="translate(315,461)"/>
<path d="M0 0 C4.3235925 -0.04602287 8.64632804 -0.08581365 12.9699707 -0.10986328 C14.43940112 -0.11989352 15.90881171 -0.13352101 17.37817383 -0.15087891 C19.49565537 -0.17525898 21.61287199 -0.18651286 23.73046875 -0.1953125 C25.63928833 -0.21102295 25.63928833 -0.21102295 27.58666992 -0.22705078 C32.01549563 0.0675496 34.80735463 1.0392579 38.25 3.8125 C41.69855074 8.12318842 41.41978238 13.68275657 41 19 C40.14672476 22.27088842 39.76058871 23.53022462 36.875 25.3125 C36.25625 25.539375 35.6375 25.76625 35 26 C35 26.66 35 27.32 35 28 C31.4937557 29.1687481 28.3522134 29.12514267 24.70703125 29.09765625 C23.64798836 29.09553383 23.64798836 29.09553383 22.56755066 29.09336853 C20.31582374 29.08777764 18.06419679 29.07522688 15.8125 29.0625 C14.28450665 29.05748382 12.75651173 29.05292112 11.22851562 29.04882812 C7.48560772 29.0386627 3.74291557 29.01908569 0 29 C0 19.43 0 9.86 0 0 Z " fill="#FCFDFD" transform="translate(676,276)"/>
<path d="M0 0 C1.95766281 -0.08082094 3.91626728 -0.13910778 5.875 -0.1875 C7.51082031 -0.23970703 7.51082031 -0.23970703 9.1796875 -0.29296875 C10.11039063 -0.19628906 11.04109375 -0.09960938 12 0 C14.29013653 3.4352048 14.17842973 4.985331 14 9 C14.66 9 15.32 9 16 9 C19.30199356 14.9435884 20.95518663 20.29119838 22 27 C23.98 27.33 25.96 27.66 28 28 C28.103125 27.360625 28.20625 26.72125 28.3125 26.0625 C29.23903073 21.93522674 30.61660629 17.99357051 32 14 C32.66 14 33.32 14 34 14 C34.1546875 12.9790625 34.1546875 12.9790625 34.3125 11.9375 C35.15693671 8.32945222 36.39239001 5.34382878 38 2 C40.52475462 0.73762269 42.31200466 0.90143596 45.125 0.9375 C46.03507813 0.94652344 46.94515625 0.95554687 47.8828125 0.96484375 C48.93082031 0.98224609 48.93082031 0.98224609 50 1 C49.65225015 9.13734658 49.65225015 9.13734658 47.0625 12.5625 C45 14 45 14 43 14 C43.0825 14.680625 43.165 15.36125 43.25 16.0625 C42.95265759 19.55627337 41.7680512 21.42065388 39.95703125 24.3515625 C38.88924832 26.19076412 38.33581998 27.90112512 38 30 C37.34 30 36.68 30 36 30 C35.71125 30.5775 35.4225 31.155 35.125 31.75 C34.4398693 33.1202614 33.72387538 34.47634402 32.95556641 35.80175781 C31.80488365 38.44885733 31.68197533 40.54074002 31.5859375 43.421875 C31.54726563 44.44667969 31.50859375 45.47148437 31.46875 46.52734375 C31.42234375 48.12255859 31.42234375 48.12255859 31.375 49.75 C31.33632813 50.82894531 31.29765625 51.90789062 31.2578125 53.01953125 C31.16365752 55.67940932 31.0807445 58.33968106 31 61 C27.37 61 23.74 61 20 61 C19.505 48.625 19.505 48.625 19 36 C18.34 36 17.68 36 17 36 C14.09891706 32.17057052 13.46319911 28.72463088 13 24 C12.34 24 11.68 24 11 24 C10.72285156 23.43410156 10.44570313 22.86820312 10.16015625 22.28515625 C9.79792969 21.55167969 9.43570313 20.81820313 9.0625 20.0625 C8.70285156 19.33160156 8.34320312 18.60070312 7.97265625 17.84765625 C7.13628173 16.03750973 7.13628173 16.03750973 6 15 C5.95936168 13.33382885 5.957279 11.66611905 6 10 C5.34 10 4.68 10 4 10 C0 3.375 0 3.375 0 0 Z " fill="#7B7A7B" transform="translate(916,460)"/>
<path d="M0 0 C14.52 0 29.04 0 44 0 C44 2.64 44 5.28 44 8 C38.39 8 32.78 8 27 8 C27 25.16 27 42.32 27 60 C23.7 60 20.4 60 17 60 C17 42.84 17 25.68 17 8 C11.39 8 5.78 8 0 8 C0 5.36 0 2.72 0 0 Z " fill="#757575" transform="translate(221,461)"/>
<path d="M0 0 C15.18 0 30.36 0 46 0 C47 1 47 1 47.12304783 2.85657597 C47.12166514 4.08302153 47.12166514 4.08302153 47.12025452 5.33424377 C47.12162918 6.26958954 47.12300385 7.2049353 47.12442017 8.16862488 C47.11902725 9.72012993 47.11902725 9.72012993 47.11352539 11.30297852 C47.11367142 12.38577087 47.11381744 13.46856323 47.1139679 14.58416748 C47.11326823 18.18243374 47.10547333 21.78064897 47.09765625 25.37890625 C47.09579226 27.86612418 47.09436827 30.35334248 47.09336853 32.84056091 C47.0899335 38.73021191 47.08204277 44.6198439 47.07201904 50.50948709 C47.05976246 57.87025374 47.05437791 65.23102264 47.04882812 72.59179688 C47.03808815 85.72787398 47.02120089 98.86393583 47 112 C46.67 112 46.34 112 46 112 C46 75.7 46 39.4 46 2 C31.48 2 16.96 2 2 2 C2.02320313 9.01894531 2.04640625 16.03789062 2.0703125 23.26953125 C2.08053833 27.73112352 2.09016678 32.19270122 2.09765625 36.65429688 C2.10958564 43.7271629 2.12365875 50.79997687 2.15087891 57.87280273 C2.17269934 63.57865149 2.18458799 69.28444437 2.18975449 74.99033165 C2.19343377 77.16108771 2.20061827 79.33184091 2.21146011 81.50257301 C2.22609739 84.55622458 2.22797285 87.60964876 2.22705078 90.66333008 C2.23783661 91.9925927 2.23783661 91.9925927 2.24884033 93.34870911 C2.22008459 102.2193818 1.74288323 110.91711069 -4 118 C-4 114.38970831 -3.03907418 111.44193324 -2 108 C-1.34 108 -0.68 108 0 108 C0 72.36 0 36.72 0 0 Z " fill="#5780A3" transform="translate(888,238)"/>
<path d="M0 0 C15.51 0 31.02 0 47 0 C47 34.65 47 69.3 47 105 C46.67 105 46.34 105 46 105 C46 71.01 46 37.02 46 2 C31.48 2 16.96 2 2 2 C2 39.29 2 76.58 2 115 C1.67 115 1.34 115 1 115 C0.14676631 108.37363124 -0.13856073 101.92445462 -0.11352539 95.24780273 C-0.11367142 94.21261002 -0.11381744 93.1774173 -0.1139679 92.1108551 C-0.113276 88.71841269 -0.10551771 85.32602647 -0.09765625 81.93359375 C-0.0957895 79.56991099 -0.09436681 77.20622784 -0.09336853 74.84254456 C-0.08956361 68.6431673 -0.07975072 62.44381374 -0.06866455 56.2444458 C-0.05660097 48.79452758 -0.05203854 41.34460141 -0.04621124 33.89467621 C-0.0365378 22.59643436 -0.01736707 11.29824444 0 0 Z " fill="#6A8FAE" transform="translate(386,239)"/>
<path d="M0 0 C30.69 0 61.38 0 93 0 C93 0.66 93 1.32 93 2 C93.89460937 2.01417969 94.78921875 2.02835938 95.7109375 2.04296875 C103.96516556 2.36856197 109.96955875 3.61002401 117 8 C115 9 115 9 111.875 8.0625 C110.92625 7.711875 109.9775 7.36125 109 7 C109 6.34 109 5.68 109 5 C107.97210358 5.02009125 106.94420715 5.0401825 105.88516235 5.06088257 C102.3871507 5.00606686 99.27285639 4.63014383 95.83740234 4.02587891 C86.44362156 2.62166272 77.08353792 2.64475346 67.6015625 2.5859375 C65.6710023 2.56718543 63.74044995 2.54760916 61.80990601 2.5272522 C56.77625192 2.47635109 51.74257139 2.43650301 46.70880127 2.39910889 C41.5531991 2.35880284 36.39770295 2.30783313 31.2421875 2.2578125 C21.16153326 2.16155211 11.08081857 2.07699087 1 2 C0.67 1.34 0.34 0.68 0 0 Z " fill="#5E85A6" transform="translate(629,238)"/>
<path d="M0 0 C3.96 0 7.92 0 12 0 C11.67 0.66 11.34 1.32 11 2 C8.03 1.67 5.06 1.34 2 1 C2 20.14 2 39.28 2 59 C4.97 59 7.94 59 11 59 C11 45.8 11 32.6 11 19 C12.98 19.66 14.96 20.32 17 21 C16.67 21.99 16.34 22.98 16 24 C14.68 23.01 13.36 22.02 12 21 C12.00523682 22.17618896 12.01047363 23.35237793 12.01586914 24.56420898 C12.03391663 28.91202031 12.04543108 33.2598283 12.05493164 37.60766602 C12.05997244 39.4924373 12.06680498 41.37720465 12.07543945 43.26196289 C12.08751617 45.96501636 12.09323068 48.66801831 12.09765625 51.37109375 C12.10281754 52.21900986 12.10797882 53.06692596 12.11329651 53.9405365 C12.11349195 55.96071068 12.06206211 57.98077934 12 60 C11.505 60.495 11.505 60.495 11 61 C7.37 61 3.74 61 0 61 C0 40.87 0 20.74 0 0 Z " fill="#9D9D9D" transform="translate(612,461)"/>
<path d="M0 0 C3.43424049 5.15136073 3.1164866 9.98073521 2.75 16 C2.70939453 17.04800781 2.70939453 17.04800781 2.66796875 18.1171875 C2.41234268 22.48756867 1.73390252 25.53525225 -1 29 C-1.66 29 -2.32 29 -3 29 C-3.28875 29.78375 -3.5775 30.5675 -3.875 31.375 C-5 34 -5 34 -7 36 C-4.69 36.33 -2.38 36.66 0 37 C0 45.58 0 54.16 0 63 C-0.33 63 -0.66 63 -1 63 C-1 54.75 -1 46.5 -1 38 C-5.95 38.495 -5.95 38.495 -11 39 C-11 39.66 -11 40.32 -11 41 C-19.58 41 -28.16 41 -37 41 C-37 40.34 -37 39.68 -37 39 C-40.3 38.67 -43.6 38.34 -47 38 C-47 37.67 -47 37.34 -47 37 C-46.030625 36.87625 -45.06125 36.7525 -44.0625 36.625 C-43.051875 36.41875 -42.04125 36.2125 -41 36 C-40.67 35.34 -40.34 34.68 -40 34 C-39.175 34.66 -38.35 35.32 -37.5 36 C-33.49494583 38.30618898 -29.51783165 38.41675697 -25 38.4375 C-23.98583008 38.45200195 -23.98583008 38.45200195 -22.95117188 38.46679688 C-17.18661819 38.37174604 -12.37882498 37.20994288 -8.07421875 33.2109375 C-7.61660156 32.60507813 -7.15898438 31.99921875 -6.6875 31.375 C-4.14408233 28.07204117 -4.14408233 28.07204117 -2 27 C0.86583983 18.24326719 0.17675853 9.10306442 0 0 Z " fill="#D0CFAF" transform="translate(601,202)"/>
<path d="M0 0 C0.33 0 0.66 0 1 0 C1 19.14 1 38.28 1 58 C3.97 58 6.94 58 10 58 C10 49.75 10 41.5 10 33 C19.9 33 29.8 33 40 33 C40 41.58 40 50.16 40 59 C39.67 59 39.34 59 39 59 C39 50.75 39 42.5 39 34 C30.09 34 21.18 34 12 34 C12 42.58 12 51.16 12 60 C8.04 60 4.08 60 0 60 C0 40.2 0 20.4 0 0 Z " fill="#ABAAAB" transform="translate(509,462)"/>
<path d="M0 0 C0.33 0 0.66 0 1 0 C1.00423194 0.54537383 1.00846388 1.09074766 1.01282406 1.65264797 C1.11599971 14.90522815 1.22468072 28.15775324 1.33933926 41.41023922 C1.39461881 47.81896642 1.44804671 54.22769815 1.49731445 60.63647461 C1.54488395 66.81563501 1.59722378 72.99473791 1.65294075 79.17383003 C1.67339802 81.53703959 1.69210538 83.90026494 1.70907402 86.26350212 C1.73304365 89.56106174 1.76310801 92.85851152 1.79467773 96.15600586 C1.8004332 97.14358887 1.80618866 98.13117188 1.81211853 99.14868164 C1.82190735 100.04195663 1.83169617 100.93523163 1.84178162 101.85557556 C1.84823417 102.63633422 1.85468672 103.41709288 1.8613348 104.22151089 C1.80808857 106.02475604 1.80808857 106.02475604 3 107 C3.56223522 110.37341134 4 113.57770311 4 117 C-0.45670356 112.54329644 -0.23103099 106.22404695 -0.24884033 100.27523804 C-0.2380545 98.79816879 -0.2380545 98.79816879 -0.22705078 97.29125977 C-0.22734283 96.23685196 -0.22763489 95.18244415 -0.22793579 94.09608459 C-0.22654786 90.62777336 -0.21101176 87.15967974 -0.1953125 83.69140625 C-0.19158047 81.2800254 -0.18873439 78.86864304 -0.18673706 76.45726013 C-0.17911562 70.12301416 -0.15947983 63.78886049 -0.1373291 57.45465088 C-0.11683864 50.98605599 -0.1077285 44.51744614 -0.09765625 38.04882812 C-0.0762326 25.36584613 -0.04250122 12.68292798 0 0 Z " fill="#B7CAD9" transform="translate(836,239)"/>
<path d="M0 0 C16.5 0 33 0 50 0 C50 0.66 50 1.32 50 2 C34.16 2 18.32 2 2 2 C2 3.65 2 5.3 2 7 C1.34 6.34 0.68 5.68 0 5 C0 3.35 0 1.7 0 0 Z " fill="#5E84A5" transform="translate(956,355)"/>
<path d="M0 0 C4.875 4.5 4.875 4.5 6 9 C-11.82 9 -29.64 9 -48 9 C-48 8.67 -48 8.34 -48 8 C-46.84064941 7.97494385 -45.68129883 7.9498877 -44.48681641 7.92407227 C-40.14427523 7.82918676 -35.80186417 7.7291715 -31.45947266 7.62768555 C-29.58775905 7.58464097 -27.71601381 7.54294762 -25.84423828 7.50268555 C-23.1382498 7.4442362 -20.43241612 7.38076599 -17.7265625 7.31640625 C-16.49155502 7.29133751 -16.49155502 7.29133751 -15.2315979 7.26576233 C-9.45094407 7.12165528 -3.74557686 6.64638333 2 6 C1.34 4.02 0.68 2.04 0 0 Z " fill="#5781A5" transform="translate(362,428)"/>
<path d="M0 0 C0.66 0 1.32 0 2 0 C1.55493029 2.59623998 1.06372168 4.85760655 -0.015625 7.26953125 C-3.54252432 17.05247819 -0.4748361 27.66137798 3 37 C2.34 37 1.68 37 1 37 C0.34760842 35.60721983 -0.29660552 34.21060788 -0.9375 32.8125 C-1.29714844 32.03519531 -1.65679688 31.25789063 -2.02734375 30.45703125 C-3.8826794 25.77025967 -4.13662322 21.45291955 -4.125 16.4375 C-4.12757813 15.32246094 -4.13015625 14.20742188 -4.1328125 13.05859375 C-4.02206147 10.50806272 -3.7467862 8.42409171 -3 6 C-2.34 6 -1.68 6 -1 6 C-0.67 4.02 -0.34 2.04 0 0 Z " fill="#A3A3A3" transform="translate(718,474)"/>
<path d="M0 0 C-1.5548764 4.03527446 -4.17821081 6.07508555 -7.5 8.75 C-8.4796875 9.54921875 -9.459375 10.3484375 -10.46875 11.171875 C-13 13 -13 13 -15 13 C-15.33 14.32 -15.66 15.64 -16 17 C-17.32 17.33 -18.64 17.66 -20 18 C-16.85156888 12.07354143 -12.80267359 6.22298484 -6.5625 3.5 C-5.716875 3.335 -4.87125 3.17 -4 3 C-4 2.34 -4 1.68 -4 1 C-2 0 -2 0 0 0 Z " fill="#4F799C" transform="translate(983,244)"/>
<path d="M0 0 C1.37453198 -0.05498128 2.74973578 -0.09322822 4.125 -0.125 C4.89070312 -0.14820313 5.65640625 -0.17140625 6.4453125 -0.1953125 C9 0 9 0 11.7109375 0.99609375 C16.04658161 2.31944355 19.99593359 2.25597687 24.5 2.1875 C25.37624023 2.18105469 26.25248047 2.17460937 27.15527344 2.16796875 C34.46433075 2.08251393 41.72046737 1.67492356 49 1 C37.56427565 7.28845135 16.76143013 5.605643 4.5 2.5 C2.98991101 2.03135169 1.48365074 1.54660817 0 1 C0 0.67 0 0.34 0 0 Z " fill="#5E85A5" transform="translate(836,405)"/>
<path d="M0 0 C0.66 0.33 1.32 0.66 2 1 C-0.59354593 5.2265193 -3.13545237 7.94904135 -7 11 C-7.350625 11.721875 -7.70125 12.44375 -8.0625 13.1875 C-9 15 -9 15 -11.125 15.75 C-12.053125 15.87375 -12.053125 15.87375 -13 16 C-11.43636055 12.34584258 -9.17824958 9.7880312 -6.5 6.875 C-5.7059375 6.00617188 -4.911875 5.13734375 -4.09375 4.2421875 C-2.75256247 2.80591578 -1.38954317 1.38954317 0 0 Z " fill="#47749B" transform="translate(221,257)"/>
<path d="M0 0 C1.95766281 -0.08082094 3.91626728 -0.13910778 5.875 -0.1875 C7.51082031 -0.23970703 7.51082031 -0.23970703 9.1796875 -0.29296875 C10.11039063 -0.19628906 11.04109375 -0.09960938 12 0 C12.66 0.99 13.32 1.98 14 3 C13.67 3.99 13.34 4.98 13 6 C12.34 5.01 11.68 4.02 11 3 C9.03638136 2.42251197 9.03638136 2.42251197 6.875 2.3125 C5.59625 2.209375 4.3175 2.10625 3 2 C3.33 3.98 3.66 5.96 4 8 C1.06674982 5.57688029 0.6208622 3.68297866 0 0 Z " fill="#A5A4A5" transform="translate(916,460)"/>
<path d="M0 0 C0.66 0 1.32 0 2 0 C5 3.46153846 5 3.46153846 5 6 C4.34 6 3.68 6 3 6 C3 7.32 3 8.64 3 10 C3.66 10.33 4.32 10.66 5 11 C4.01 11 3.02 11 2 11 C2 11.66 2 12.32 2 13 C1.34 13 0.68 13 0 13 C-0.66 14.32 -1.32 15.64 -2 17 C-2.66 17 -3.32 17 -4 17 C-4 17.66 -4 18.32 -4 19 C-5.32 18.67 -6.64 18.34 -8 18 C-7.01 18 -6.02 18 -5 18 C-5 17.34 -5 16.68 -5 16 C-3.125 13.875 -3.125 13.875 -1 12 C-0.34 12 0.32 12 1 12 C0.67 8.04 0.34 4.08 0 0 Z " fill="#527CA0" transform="translate(1037,353)"/>
<path d="M0 0 C7.43551156 0.19493851 7.43551156 0.19493851 10.20556641 0.29443359 C12.40004616 0.36993788 14.59405497 0.41901103 16.78930664 0.46606445 C18.18323772 0.50937912 19.5771215 0.55424968 20.97094727 0.60083008 C22.87638306 0.65920044 22.87638306 0.65920044 24.8203125 0.71875 C27.97485352 1.18286133 27.97485352 1.18286133 29.91259766 2.71923828 C30.26314209 3.20223389 30.61368652 3.68522949 30.97485352 4.18286133 C30.13229004 4.02438721 29.28972656 3.86591309 28.42163086 3.70263672 C24.86106731 3.16570232 21.42485008 2.97410054 17.82641602 2.86645508 C17.16902435 2.84567398 16.51163269 2.82489288 15.83432007 2.80348206 C13.7562599 2.7386538 11.67808496 2.67941569 9.59985352 2.62036133 C8.1818734 2.57711245 6.76390445 2.53349624 5.34594727 2.48950195 C1.88903472 2.38304215 -1.56800354 2.28159149 -5.02514648 2.18286133 C-3.02514648 0.18286133 -3.02514648 0.18286133 0 0 Z " fill="#2A5B86" transform="translate(680.025146484375,272.817138671875)"/>
<path d="M0 0 C0.66 0.33 1.32 0.66 2 1 C-2.51041383 4.84711768 -7.10251977 7.86586919 -13 9 C-13 9.66 -13 10.32 -13 11 C-14.98 11.66 -16.96 12.32 -19 13 C-13.85714286 7.42857143 -13.85714286 7.42857143 -10 7 C-10 6.34 -10 5.68 -10 5 C-8.38007835 4.13624104 -6.75388139 3.28424146 -5.125 2.4375 C-4.22007812 1.96183594 -3.31515625 1.48617187 -2.3828125 0.99609375 C-1.59648437 0.66738281 -0.81015625 0.33867187 0 0 Z " fill="#6084A4" transform="translate(242,244)"/>
<path d="M0 0 C0.33 0.66 0.66 1.32 1 2 C0.25888587 3.61697628 -0.48313244 5.23354632 -1.23046875 6.84765625 C-2.63054435 10.76360374 -2.7592621 14.87425042 -3 19 C-2.06414063 19.42925781 -2.06414063 19.42925781 -1.109375 19.8671875 C1.36466802 21.19584023 2.45784465 22.68676698 4 25 C1.01851171 23.61573758 -1.62791409 22.29334447 -4 20 C-4.4609375 17.07421875 -4.4609375 17.07421875 -4.375 13.6875 C-4.36210938 12.57761719 -4.34921875 11.46773438 -4.3359375 10.32421875 C-3.99213125 6.92213596 -3.31348258 4.15328975 -2 1 C-1.34 0.67 -0.68 0.34 0 0 Z " fill="#A9A9A9" transform="translate(1019,465)"/>
<path d="M0 0 C0.66 0.33 1.32 0.66 2 1 C1.11828125 1.36931641 1.11828125 1.36931641 0.21875 1.74609375 C-3.04912117 3.59290122 -4.90712324 6.31736171 -7.21875 9.22265625 C-9.16380272 11.1634435 -10.31906128 11.61784865 -13 12 C-13 11.01 -13 10.02 -13 9 C-10.91796875 6.9921875 -10.91796875 6.9921875 -8.1875 4.875 C-7.29417969 4.17117188 -6.40085938 3.46734375 -5.48046875 2.7421875 C-3 1 -3 1 0 0 Z " fill="#B0C4D3" transform="translate(260,283)"/>
<path d="M0 0 C-1.26391488 1.00873016 -2.53640883 2.00671822 -3.8125 3 C-4.87404297 3.8353125 -4.87404297 3.8353125 -5.95703125 4.6875 C-8 6 -8 6 -11 6 C-11 6.66 -11 7.32 -11 8 C-12.96147874 9.38938077 -14.96166576 10.7260411 -17 12 C-15.5 9 -15.5 9 -14 6 C-13.34 6 -12.68 6 -12 6 C-12 5.34 -12 4.68 -12 4 C-10.56988027 3.13353333 -9.13059381 2.28218171 -7.6875 1.4375 C-6.88699219 0.96183594 -6.08648438 0.48617187 -5.26171875 -0.00390625 C-3 -1 -3 -1 0 0 Z " fill="#EAD480" transform="translate(569,189)"/>
<path d="M0 0 C1.093125 0.639375 2.18625 1.27875 3.3125 1.9375 C8.38220676 4.51331151 13.39014692 4.7937554 19 5 C19 5.33 19 5.66 19 6 C10.3725342 6.20705918 2.40371809 6.21462689 -6 4 C-6 3.67 -6 3.34 -6 3 C-4.02 2.67 -2.04 2.34 0 2 C0 1.34 0 0.68 0 0 Z " fill="#E2E2D1" transform="translate(560,236)"/>
<path d="M0 0 C4.29 0 8.58 0 13 0 C12.67 2.31 12.34 4.62 12 7 C11.34 7 10.68 7 10 7 C10.33 5.35 10.66 3.7 11 2 C7.37 2.33 3.74 2.66 0 3 C0 2.01 0 1.02 0 0 Z " fill="#DCDCDD" transform="translate(955,459)"/>
<path d="M0 0 C0.99 0 1.98 0 3 0 C3.268125 0.804375 3.53625 1.60875 3.8125 2.4375 C4.204375 3.283125 4.59625 4.12875 5 5 C5.99 5.33 6.98 5.66 8 6 C8 6.66 8 7.32 8 8 C8.66 8 9.32 8 10 8 C9.67 8.99 9.34 9.98 9 11 C2.21917808 5.57534247 2.21917808 5.57534247 0 2 C0 1.34 0 0.68 0 0 Z " fill="#456E92" transform="translate(967,384)"/>
<path d="M0 0 C2.31 0.33 4.62 0.66 7 1 C7 1.66 7 2.32 7 3 C7.7425 3.0825 8.485 3.165 9.25 3.25 C12.51221354 4.1396946 13.80954878 5.48503749 16 8 C15.67 8.66 15.34 9.32 15 10 C14.38125 9.236875 13.7625 8.47375 13.125 7.6875 C9.53003505 4.01959373 4.86001881 3.16074236 0 2 C0 1.34 0 0.68 0 0 Z " fill="#B7B7B7" transform="translate(437,461)"/>
<path d="M0 0 C0.33 0 0.66 0 1 0 C1.06058594 0.85464844 1.12117187 1.70929688 1.18359375 2.58984375 C1.26738281 3.69457031 1.35117187 4.79929687 1.4375 5.9375 C1.51871094 7.03964844 1.59992187 8.14179688 1.68359375 9.27734375 C1.70418084 11.91109903 1.70418084 11.91109903 3 13 C3.56223522 16.37341134 4 19.57770311 4 23 C0.38560652 19.38560652 0.04744767 15.3567069 -0.125 10.42578125 C-0.125 6.94827596 -0.08678818 3.4763488 0 0 Z " fill="#A7BCCE" transform="translate(836,333)"/>
<path d="M0 0 C4.58894201 0.67069152 8.92547207 1.76122296 13.375 3.0625 C14.62023437 3.42472656 15.86546875 3.78695313 17.1484375 4.16015625 C18.08945312 4.43730469 19.03046875 4.71445312 20 5 C16.08263419 6.1700097 13.02040985 5.69584017 9 5 C9 4.34 9 3.68 9 3 C7.88625 2.87625 6.7725 2.7525 5.625 2.625 C2 2 2 2 0 0 Z " fill="#5A80A2" transform="translate(244,403)"/>
<path d="M0 0 C1 2 1 2 0.00390625 5.0390625 C-0.47175781 6.22242188 -0.94742188 7.40578125 -1.4375 8.625 C-1.91058594 9.81351562 -2.38367188 11.00203125 -2.87109375 12.2265625 C-3.24363281 13.14179688 -3.61617187 14.05703125 -4 15 C-4.33 15 -4.66 15 -5 15 C-4.88512252 13.41590006 -4.75765492 11.83271037 -4.625 10.25 C-4.55539062 9.36828125 -4.48578125 8.4865625 -4.4140625 7.578125 C-3.99616748 4.97613712 -3.39354867 3.22566767 -2 1 C-1.34 0.67 -0.68 0.34 0 0 Z " fill="#9A9999" transform="translate(830,465)"/>
<path d="M0 0 C3.3 0 6.6 0 10 0 C9.609375 6.8359375 9.609375 6.8359375 9 9 C6.953125 10.2890625 6.953125 10.2890625 5 11 C5 10.01 5 9.02 5 8 C5.66 8 6.32 8 7 8 C7.33 6.02 7.66 4.04 8 2 C5.36 1.67 2.72 1.34 0 1 C0 0.67 0 0.34 0 0 Z " fill="#A5A4A5" transform="translate(956,461)"/>
<path d="M0 0 C1.485 0.99 1.485 0.99 3 2 C3 2.99 3 3.98 3 5 C3.99 5 4.98 5 6 5 C9.22265625 10.2734375 9.22265625 10.2734375 10 12 C9.67 12.66 9.34 13.32 9 14 C7.67925885 12.42353449 6.36868776 10.83854469 5.0625 9.25 C4.33160156 8.36828125 3.60070312 7.4865625 2.84765625 6.578125 C1.16962815 4.23669045 0.41264834 2.80338873 0 0 Z " fill="#ACABAB" transform="translate(629,485)"/>
<path d="M0 0 C-0.33 1.32 -0.66 2.64 -1 4 C-0.401875 4.103125 0.19625 4.20625 0.8125 4.3125 C3.28243264 5.08876455 4.32251235 6.07088921 6 8 C4.35 7.67 2.7 7.34 1 7 C1 6.34 1 5.68 1 5 C-1.97 4.505 -1.97 4.505 -5 4 C-5 3.01 -5 2.02 -5 1 C-2 0 -2 0 0 0 Z " fill="#C9D6E0" transform="translate(744,318)"/>
<path d="M0 0 C5.66104589 0.49658297 9.87674471 1.54510684 15 4 C11.50448721 5.21405922 9.30906703 4.777272 5.8125 3.6875 C4.93207031 3.42324219 4.05164062 3.15898437 3.14453125 2.88671875 C1 2 1 2 0 0 Z " fill="#6B90AF" transform="translate(1033,305)"/>
<path d="M0 0 C2.5 2.3125 2.5 2.3125 5 5 C5 5.99 5 6.98 5 8 C0.71 8 -3.58 8 -8 8 C-8 7.67 -8 7.34 -8 7 C-4.7 6.67 -1.4 6.34 2 6 C1.34 4.02 0.68 2.04 0 0 Z " fill="#3F6E96" transform="translate(362,428)"/>
<path d="M0 0 C0.33 0 0.66 0 1 0 C1 1.65 1 3.3 1 5 C0.38125 5.04125 -0.2375 5.0825 -0.875 5.125 C-1.57625 5.41375 -2.2775 5.7025 -3 6 C-4.15835673 8.97503122 -4.15835673 8.97503122 -5 12 C-5.99 12.495 -5.99 12.495 -7 13 C-5.125 7.25 -5.125 7.25 -4 5 C-3.34 5 -2.68 5 -2 5 C-1.855625 4.360625 -1.71125 3.72125 -1.5625 3.0625 C-1 1 -1 1 0 0 Z " fill="#668BAB" transform="translate(207,273)"/>
<path d="M0 0 C0.99 0.495 0.99 0.495 2 1 C2.33 1.99 2.66 2.98 3 4 C3.99 4.33 4.98 4.66 6 5 C6 6.32 6 7.64 6 9 C6.66 9 7.32 9 8 9 C7.67 9.99 7.34 10.98 7 12 C0.29612756 4.88610478 0.29612756 4.88610478 0 0 Z " fill="#C6C5C6" transform="translate(640,502)"/>
<path d="M0 0 C0.66 0 1.32 0 2 0 C2.433125 1.0725 2.86625 2.145 3.3125 3.25 C4.55321513 6.16272646 5.95070379 8.56036166 8 11 C5.12160009 9.7096828 2.90945214 8.54593619 1 6 C0.3125 2.8125 0.3125 2.8125 0 0 Z " fill="#C0BFC0" transform="translate(411,499)"/>
<path d="M0 0 C3.11728368 1.36508501 5.08663738 2.86919698 7.3125 5.4375 C7.84488281 6.03433594 8.37726562 6.63117188 8.92578125 7.24609375 C9.45751953 8.11427734 9.45751953 8.11427734 10 9 C9.67 9.99 9.34 10.98 9 12 C5 7.25 5 7.25 5 5 C4.01 4.67 3.02 4.34 2 4 C0.8125 1.9375 0.8125 1.9375 0 0 Z " fill="#B6B5B6" transform="translate(763,465)"/>
<path d="M0 0 C0 3.7794561 -1.04679411 5.79116175 -3 9 C-5.1875 9.875 -5.1875 9.875 -7 10 C-5.33248852 6.05860922 -2.77289351 3.2107188 0 0 Z " fill="#5B83A8" transform="translate(215,263)"/>
<path d="M0 0 C0.66 0 1.32 0 2 0 C1.39009109 3.55780196 0.4216319 6.6828589 -1 10 C-1.66 10 -2.32 10 -3 10 C-3 8.68 -3 7.36 -3 6 C-2.34 6 -1.68 6 -1 6 C-0.67 4.02 -0.34 2.04 0 0 Z " fill="#9D9C9D" transform="translate(718,474)"/>
<path d="M0 0 C0.66 0.33 1.32 0.66 2 1 C1.67 1.99 1.34 2.98 1 4 C2.87197454 6.69433317 2.87197454 6.69433317 5 9 C4.67 9.66 4.34 10.32 4 11 C2.0625 10.5 2.0625 10.5 0 9 C-0.76128 6.26734566 -0.86331619 3.87035995 -1 1 C-0.67 0.67 -0.34 0.34 0 0 Z " fill="#5F87A8" transform="translate(335,389)"/>
<path d="M0 0 C3.3 0.33 6.6 0.66 10 1 C10 1.66 10 2.32 10 3 C10.66 3.33 11.32 3.66 12 4 C7.6822542 3.49202991 3.96697886 2.80317221 0 1 C0 0.67 0 0.34 0 0 Z " fill="#6E91AE" transform="translate(1001,336)"/>
<path d="M0 0 C0.66 0.33 1.32 0.66 2 1 C-0.80804268 3.96404505 -3.18315774 6.44499019 -7 8 C-6.01347016 4.68167234 -5.31268497 3.23451373 -2.5 1.125 C-1.675 0.75375 -0.85 0.3825 0 0 Z " fill="#E2C555" transform="translate(595,231)"/>
<path d="M0 0 C-1.28519565 2.86697492 -2.57129254 4.97607712 -5 7 C-5.66 7 -6.32 7 -7 7 C-3.86206897 0 -3.86206897 0 0 0 Z " fill="#DFDEDF" transform="translate(420,472)"/>
<path d="M0 0 C0.33 0.66 0.66 1.32 1 2 C-0.25535985 5.76607955 -1.52883585 6.26441793 -5 8 C-5.99 8 -6.98 8 -8 8 C-5.36 5.36 -2.72 2.72 0 0 Z " fill="#688BA8" transform="translate(309,353)"/>
<path d="M0 0 C0.66 0.33 1.32 0.66 2 1 C1.34 1.66 0.68 2.32 0 3 C2.31 3.33 4.62 3.66 7 4 C7 4.33 7 4.66 7 5 C2.545 5.495 2.545 5.495 -2 6 C-2.33 4.68 -2.66 3.36 -3 2 C-2.01 1.34 -1.02 0.68 0 0 Z " fill="#E8ECEB" transform="translate(594,235)"/>
<path d="M0 0 C2 1.3125 2 1.3125 4 3 C4 3.99 4 4.98 4 6 C4.66 6 5.32 6 6 6 C6.33 5.34 6.66 4.68 7 4 C7 4.99 7 5.98 7 7 C4.03 6.505 4.03 6.505 1 6 C0.67 4.02 0.34 2.04 0 0 Z " fill="#C0BFC0" transform="translate(937,481)"/>
<path d="M0 0 C0.33 0.99 0.66 1.98 1 3 C-1.31 4.98 -3.62 6.96 -6 9 C-4.68775452 5.06326356 -3.08089673 2.77280706 0 0 Z " fill="#CBD8E2" transform="translate(341,384)"/>
<path d="M0 0 C0.99 0.495 0.99 0.495 2 1 C2 1.66 2 2.32 2 3 C2.99 3.33 3.98 3.66 5 4 C4.67 6.31 4.34 8.62 4 11 C3.67 11 3.34 11 3 11 C3 9.35 3 7.7 3 6 C2.34 6 1.68 6 1 6 C0.67 4.02 0.34 2.04 0 0 Z " fill="#4F7BA2" transform="translate(314,301)"/>
<path d="M0 0 C2.64 0.33 5.28 0.66 8 1 C8.33 1.99 8.66 2.98 9 4 C4.545 3.01 4.545 3.01 0 2 C0 1.34 0 0.68 0 0 Z " fill="#EBD584" transform="translate(583,188)"/>
<path d="M0 0 C0.33 0 0.66 0 1 0 C0.75 3.375 0.75 3.375 0 7 C-2.0625 8.4375 -2.0625 8.4375 -4 9 C-3.34 7.02 -2.68 5.04 -2 3 C-1.34 3 -0.68 3 0 3 C0 2.01 0 1.02 0 0 Z " fill="#C7C7C8" transform="translate(456,503)"/>
<path d="M0 0 C0.99 0.33 1.98 0.66 3 1 C0.6875 3.0625 0.6875 3.0625 -2 5 C-2.99 4.67 -3.98 4.34 -5 4 C-3.36587557 2.29159719 -2.13093906 1.06546953 0 0 Z " fill="#ABABAB" transform="translate(412,464)"/>
<path d="M0 0 C3.375 0.3125 3.375 0.3125 7 1 C7.66 1.99 8.32 2.98 9 4 C4.545 3.01 4.545 3.01 0 2 C0 1.34 0 0.68 0 0 Z " fill="#ACACAD" transform="translate(1043,461)"/>
<path d="M0 0 C1.32 0 2.64 0 4 0 C4 0.66 4 1.32 4 2 C6.97 2.495 6.97 2.495 10 3 C10 3.33 10 3.66 10 4 C7.36 4 4.72 4 2 4 C2 3.01 2 2.02 2 1 C1.34 0.67 0.68 0.34 0 0 Z " fill="#7E9FB8" transform="translate(258,362)"/>
<path d="M0 0 C0.33 0 0.66 0 1 0 C1.33 3.63 1.66 7.26 2 11 C1.01 11.33 0.02 11.66 -1 12 C-0.67 8.04 -0.34 4.08 0 0 Z " fill="#3C6C94" transform="translate(721,351)"/>
<path d="M0 0 C0.66 1.32 1.32 2.64 2 4 C0.625 6 0.625 6 -1 8 C-1.66 8 -2.32 8 -3 8 C-3 8.66 -3 9.32 -3 10 C-3.66 9.67 -4.32 9.34 -5 9 C-4.34 8.01 -3.68 7.02 -3 6 C-2.34 6 -1.68 6 -1 6 C-0.67 4.02 -0.34 2.04 0 0 Z " fill="#597E9D" transform="translate(483,350)"/>
<path d="M0 0 C2.88437779 1.29299694 4.87219421 2.65941363 7 5 C6.67 5.66 6.34 6.32 6 7 C5.401875 6.54625 4.80375 6.0925 4.1875 5.625 C2.49409348 4.36704087 0.75522914 3.17015276 -1 2 C-0.67 1.34 -0.34 0.68 0 0 Z " fill="#E8D077" transform="translate(592,192)"/>
<path d="M0 0 C0.33 0.66 0.66 1.32 1 2 C1.66 2 2.32 2 3 2 C3.66 4.31 4.32 6.62 5 9 C4.34 9 3.68 9 3 9 C0 3.375 0 3.375 0 0 Z " fill="#CECECF" transform="translate(716,502)"/>
<path d="M0 0 C2.35171131 0.59861742 4.6859378 1.26924352 7 2 C7.33 2.66 7.66 3.32 8 4 C5.69 4 3.38 4 1 4 C0.67 2.68 0.34 1.36 0 0 Z " fill="#3B6A94" transform="translate(1049,311)"/>
</svg>
